M48
; DRILL file {KiCad 9.0.4-9.0.4-0~ubuntu22.04.1} date 2025-10-26T15:56:36+0100
; FORMAT={-:-/ absolute / metric / decimal}
; #@! TF.CreationDate,2025-10-26T15:56:36+01:00
; #@! TF.GenerationSoftware,Kicad,Pcbnew,9.0.4-9.0.4-0~ubuntu22.04.1
; #@! TF.FileFunction,Plated,1,2,PTH
FMAT,2
METRIC
; #@! TA.AperFunction,Plated,PTH,ComponentDrill
T1C0.200
; #@! TA.AperFunction,Plated,PTH,ComponentDrill
T2C0.800
; #@! TA.AperFunction,Plated,PTH,ComponentDrill
T3C1.000
; #@! TA.AperFunction,Plated,PTH,ComponentDrill
T4C1.500
%
G90
G05
T1
X168.89Y-48.1
X168.89Y-49.6
X169.64Y-47.35
X169.64Y-48.85
X169.64Y-50.35
X170.39Y-48.1
X170.39Y-49.6
X171.14Y-47.35
X171.14Y-48.85
X171.14Y-50.35
X171.89Y-48.1
X171.89Y-49.6
T2
X43.18Y-75.61
X43.18Y-77.81
X43.18Y-80.01
X43.18Y-82.21
X43.18Y-84.41
X43.18Y-86.61
X43.18Y-88.81
X43.18Y-91.01
X43.18Y-93.21
X46.18Y-75.61
X46.18Y-77.81
X46.18Y-80.01
X46.18Y-82.21
X46.18Y-84.41
X46.18Y-86.61
X46.18Y-88.81
X46.18Y-91.01
X46.18Y-93.21
T3
X42.72Y-164.64
X42.72Y-167.64
X42.72Y-169.84
X42.72Y-172.04
X42.72Y-174.24
X42.72Y-176.44
X42.72Y-178.64
X42.72Y-180.84
X42.72Y-183.04
X42.72Y-185.24
X42.72Y-187.44
X42.72Y-190.44
X43.18Y-68.61
X43.18Y-72.61
X43.18Y-96.21
X43.18Y-100.21
X45.72Y-167.64
X45.72Y-169.84
X45.72Y-172.04
X45.72Y-174.24
X45.72Y-176.44
X45.72Y-178.64
X45.72Y-180.84
X45.72Y-183.04
X45.72Y-185.24
X45.72Y-187.44
X46.72Y-164.64
X46.72Y-190.44
X47.18Y-68.61
X47.18Y-72.61
X47.18Y-96.21
X47.18Y-100.21
X111.52Y-32.97
X111.52Y-35.51
X111.52Y-38.05
X111.52Y-40.59
X111.52Y-43.13
X111.52Y-45.67
X111.52Y-48.21
X111.52Y-50.75
X111.52Y-53.29
X111.52Y-55.83
X111.52Y-58.37
X111.52Y-60.91
X111.52Y-63.45
X111.52Y-65.99
X111.52Y-68.53
X111.52Y-71.07
X111.52Y-73.61
X111.52Y-76.15
X111.52Y-78.69
X111.52Y-81.23
X114.06Y-32.97
X114.06Y-35.51
X114.06Y-38.05
X114.06Y-40.59
X114.06Y-43.13
X114.06Y-45.67
X114.06Y-48.21
X114.06Y-50.75
X114.06Y-53.29
X114.06Y-55.83
X114.06Y-58.37
X114.06Y-60.91
X114.06Y-63.45
X114.06Y-65.99
X114.06Y-68.53
X114.06Y-71.07
X114.06Y-73.61
X114.06Y-76.15
X114.06Y-78.69
X114.06Y-81.23
T4
X33.28Y-154.94
X35.56Y-109.48
X35.56Y-132.08
X45.72Y-109.48
X45.72Y-132.08
X55.88Y-154.94
M30
