%TF.GenerationSoftware,KiCad,Pcbnew,9.0.4-9.0.4-0~ubuntu22.04.1*%
%TF.CreationDate,2025-10-26T15:56:29+01:00*%
%TF.ProjectId,IndegoMower,496e6465-676f-44d6-9f77-65722e6b6963,rev?*%
%TF.SameCoordinates,Original*%
%TF.FileFunction,Copper,L1,Top*%
%TF.FilePolarity,Positive*%
%FSLAX46Y46*%
G04 Gerber Fmt 4.6, Leading zero omitted, Abs format (unit mm)*
G04 Created by KiCad (PCBNEW 9.0.4-9.0.4-0~ubuntu22.04.1) date 2025-10-26 15:56:29*
%MOMM*%
%LPD*%
G01*
G04 APERTURE LIST*
G04 Aperture macros list*
%AMRoundRect*
0 Rectangle with rounded corners*
0 $1 Rounding radius*
0 $2 $3 $4 $5 $6 $7 $8 $9 X,Y pos of 4 corners*
0 Add a 4 corners polygon primitive as box body*
4,1,4,$2,$3,$4,$5,$6,$7,$8,$9,$2,$3,0*
0 Add four circle primitives for the rounded corners*
1,1,$1+$1,$2,$3*
1,1,$1+$1,$4,$5*
1,1,$1+$1,$6,$7*
1,1,$1+$1,$8,$9*
0 Add four rect primitives between the rounded corners*
20,1,$1+$1,$2,$3,$4,$5,0*
20,1,$1+$1,$4,$5,$6,$7,0*
20,1,$1+$1,$6,$7,$8,$9,0*
20,1,$1+$1,$8,$9,$2,$3,0*%
G04 Aperture macros list end*
%TA.AperFunction,ComponentPad*%
%ADD10C,1.700000*%
%TD*%
%TA.AperFunction,ComponentPad*%
%ADD11R,1.700000X1.700000*%
%TD*%
%TA.AperFunction,ComponentPad*%
%ADD12RoundRect,0.277778X1.222222X-0.722222X1.222222X0.722222X-1.222222X0.722222X-1.222222X-0.722222X0*%
%TD*%
%TA.AperFunction,ComponentPad*%
%ADD13RoundRect,0.194444X0.805556X-0.505556X0.805556X0.505556X-0.805556X0.505556X-0.805556X-0.505556X0*%
%TD*%
%TA.AperFunction,ComponentPad*%
%ADD14RoundRect,0.300000X-1.200000X0.700000X-1.200000X-0.700000X1.200000X-0.700000X1.200000X0.700000X0*%
%TD*%
%TA.AperFunction,ComponentPad*%
%ADD15RoundRect,0.190500X1.079500X0.444500X-1.079500X0.444500X-1.079500X-0.444500X1.079500X-0.444500X0*%
%TD*%
%TA.AperFunction,WasherPad*%
%ADD16C,20.000000*%
%TD*%
%TA.AperFunction,WasherPad*%
%ADD17C,15.000000*%
%TD*%
%TA.AperFunction,ComponentPad*%
%ADD18C,3.000000*%
%TD*%
%TA.AperFunction,SMDPad,CuDef*%
%ADD19R,1.500000X0.900000*%
%TD*%
%TA.AperFunction,SMDPad,CuDef*%
%ADD20R,0.900000X1.500000*%
%TD*%
%TA.AperFunction,HeatsinkPad*%
%ADD21R,1.000000X1.000000*%
%TD*%
%TA.AperFunction,HeatsinkPad*%
%ADD22C,0.600000*%
%TD*%
%TA.AperFunction,Conductor*%
%ADD23C,10.000000*%
%TD*%
%TA.AperFunction,Conductor*%
%ADD24C,3.000000*%
%TD*%
G04 APERTURE END LIST*
D10*
%TO.P,J1,40,BCM21_SCLK_PCM_DO*%
%TO.N,unconnected-(J1-BCM21_SCLK_PCM_DO-Pad40)*%
X114060000Y-81230000D03*
%TO.P,J1,39,GND*%
%TO.N,GNDPWR*%
X111520000Y-81230000D03*
%TO.P,J1,38,BCM20_MOSI_PCM_DI*%
%TO.N,unconnected-(J1-BCM20_MOSI_PCM_DI-Pad38)*%
X114060000Y-78690000D03*
%TO.P,J1,37,BCM26*%
%TO.N,unconnected-(J1-BCM26-Pad37)*%
X111520000Y-78690000D03*
%TO.P,J1,36,BCM16*%
%TO.N,unconnected-(J1-BCM16-Pad36)*%
X114060000Y-76150000D03*
%TO.P,J1,35,BCM19_MISO_PCM_FS*%
%TO.N,unconnected-(J1-BCM19_MISO_PCM_FS-Pad35)*%
X111520000Y-76150000D03*
%TO.P,J1,34,GND*%
%TO.N,GNDPWR*%
X114060000Y-73610000D03*
%TO.P,J1,33,BCM13_PWM1*%
%TO.N,unconnected-(J1-BCM13_PWM1-Pad33)*%
X111520000Y-73610000D03*
%TO.P,J1,32,BCM12_PWM0*%
%TO.N,unconnected-(J1-BCM12_PWM0-Pad32)*%
X114060000Y-71070000D03*
%TO.P,J1,31,BCM6*%
%TO.N,unconnected-(J1-BCM6-Pad31)*%
X111520000Y-71070000D03*
%TO.P,J1,30,GND*%
%TO.N,GNDPWR*%
X114060000Y-68530000D03*
%TO.P,J1,29,BCM5*%
%TO.N,unconnected-(J1-BCM5-Pad29)*%
X111520000Y-68530000D03*
%TO.P,J1,28,BCM1_ID_SC*%
%TO.N,unconnected-(J1-BCM1_ID_SC-Pad28)*%
X114060000Y-65990000D03*
%TO.P,J1,27,BCM0_ID_SD*%
%TO.N,unconnected-(J1-BCM0_ID_SD-Pad27)*%
X111520000Y-65990000D03*
%TO.P,J1,26,BCM7_CE1*%
%TO.N,unconnected-(J1-BCM7_CE1-Pad26)*%
X114060000Y-63450000D03*
%TO.P,J1,25,GND*%
%TO.N,GNDPWR*%
X111520000Y-63450000D03*
%TO.P,J1,24,BCM8_CE0*%
%TO.N,unconnected-(J1-BCM8_CE0-Pad24)*%
X114060000Y-60910000D03*
%TO.P,J1,23,BCM11_SCLK*%
%TO.N,unconnected-(J1-BCM11_SCLK-Pad23)*%
X111520000Y-60910000D03*
%TO.P,J1,22,BCM25*%
%TO.N,unconnected-(J1-BCM25-Pad22)*%
X114060000Y-58370000D03*
%TO.P,J1,21,BCM9_MISO*%
%TO.N,unconnected-(J1-BCM9_MISO-Pad21)*%
X111520000Y-58370000D03*
%TO.P,J1,20,GND*%
%TO.N,GNDPWR*%
X114060000Y-55830000D03*
%TO.P,J1,19,BCM10_MOSI*%
%TO.N,unconnected-(J1-BCM10_MOSI-Pad19)*%
X111520000Y-55830000D03*
%TO.P,J1,18,BCM24*%
%TO.N,unconnected-(J1-BCM24-Pad18)*%
X114060000Y-53290000D03*
%TO.P,J1,17,3.3V*%
%TO.N,unconnected-(J1-3.3V-Pad17)*%
X111520000Y-53290000D03*
%TO.P,J1,16,BCM23*%
%TO.N,unconnected-(J1-BCM23-Pad16)*%
X114060000Y-50750000D03*
%TO.P,J1,15,BCM22*%
%TO.N,unconnected-(J1-BCM22-Pad15)*%
X111520000Y-50750000D03*
%TO.P,J1,14,GND*%
%TO.N,GNDPWR*%
X114060000Y-48210000D03*
%TO.P,J1,13,BCM27*%
%TO.N,unconnected-(J1-BCM27-Pad13)*%
X111520000Y-48210000D03*
%TO.P,J1,12,BCM18_PCM_C*%
%TO.N,unconnected-(J1-BCM18_PCM_C-Pad12)*%
X114060000Y-45670000D03*
%TO.P,J1,11,BCM17*%
%TO.N,unconnected-(J1-BCM17-Pad11)*%
X111520000Y-45670000D03*
%TO.P,J1,10,BCM15_RXD*%
%TO.N,unconnected-(J1-BCM15_RXD-Pad10)*%
X114060000Y-43130000D03*
%TO.P,J1,9,GND*%
%TO.N,GNDPWR*%
X111520000Y-43130000D03*
%TO.P,J1,8,BCM14_TXD*%
%TO.N,unconnected-(J1-BCM14_TXD-Pad8)*%
X114060000Y-40590000D03*
%TO.P,J1,7,BCM4_GPCLK0*%
%TO.N,unconnected-(J1-BCM4_GPCLK0-Pad7)*%
X111520000Y-40590000D03*
%TO.P,J1,6,GND*%
%TO.N,GNDPWR*%
X114060000Y-38050000D03*
%TO.P,J1,5,BCM3_SCL*%
%TO.N,unconnected-(J1-BCM3_SCL-Pad5)*%
X111520000Y-38050000D03*
%TO.P,J1,4,5V*%
%TO.N,U_55*%
X114060000Y-35510000D03*
%TO.P,J1,3,BCM2_SDA*%
%TO.N,unconnected-(J1-BCM2_SDA-Pad3)*%
X111520000Y-35510000D03*
%TO.P,J1,2,5V*%
%TO.N,U_55*%
X114060000Y-32970000D03*
D11*
%TO.P,J1,1,3.3V*%
%TO.N,unconnected-(J1-3.3V-Pad1)*%
X111520000Y-32970000D03*
%TD*%
D12*
%TO.P,U2,P$2,P$1*%
%TO.N,Net-(U2-P$1)*%
X42720000Y-164640000D03*
%TO.P,U2,P$3,P$2*%
%TO.N,GNDPWR*%
X46720000Y-164640000D03*
D13*
%TO.P,U2,P$4,P$3*%
%TO.N,Net-(D19-A)*%
X42720000Y-167640000D03*
%TO.P,U2,P$5,P$4*%
%TO.N,Net-(J_B1-Pin_1)*%
X45720000Y-167640000D03*
%TO.P,U2,P$6,P$5*%
%TO.N,BUMPER_BACK*%
X42720000Y-169840000D03*
%TO.P,U2,P$7,P$6*%
%TO.N,BUMPER_LEFT*%
X45720000Y-169840000D03*
%TO.P,U2,P$8,P$7*%
%TO.N,BUMPER_FRONT*%
X42720000Y-172040000D03*
%TO.P,U2,P$9,P$8*%
%TO.N,BUMPER_RIGHt*%
X45720000Y-172040000D03*
%TO.P,U2,P$10,P$9*%
%TO.N,Net-(J_B2-Pin_1)*%
X42720000Y-174240000D03*
%TO.P,U2,P$11,P$10*%
%TO.N,Net-(J_B3-Pin_1)*%
X45720000Y-174240000D03*
%TO.P,U2,P$12,P$11*%
%TO.N,Net-(U2-P$11)*%
X42720000Y-176440000D03*
%TO.P,U2,P$13,P$12*%
%TO.N,Net-(U2-P$12)*%
X45720000Y-176440000D03*
%TO.P,U2,P$14,P$13*%
%TO.N,Net-(J_B4-Pin_1)*%
X42720000Y-178640000D03*
%TO.P,U2,P$15,P$14*%
%TO.N,Net-(J_B5-Pin_1)*%
X45720000Y-178640000D03*
%TO.P,U2,P$16,P$15*%
%TO.N,CONTACT_L*%
X42720000Y-180840000D03*
%TO.P,U2,P$17,P$16*%
%TO.N,CONTACT_R*%
X45720000Y-180840000D03*
%TO.P,U2,P$18,P$17*%
%TO.N,STOPSW_1*%
X42720000Y-183040000D03*
%TO.P,U2,P$19,P$18*%
%TO.N,STOPSW_2*%
X45720000Y-183040000D03*
%TO.P,U2,P$20,P$19*%
%TO.N,U5SW*%
X42720000Y-185240000D03*
%TO.P,U2,P$21,P$20*%
%TO.N,GNDD*%
X45720000Y-185240000D03*
%TO.P,U2,P$22,P$21*%
%TO.N,Net-(J_B6-Pin_1)*%
X42720000Y-187440000D03*
%TO.P,U2,P$23,P$22*%
%TO.N,Net-(J_B7-Pin_1)*%
X45720000Y-187440000D03*
D12*
%TO.P,U2,P$24,P$23*%
%TO.N,MM_P*%
X42720000Y-190440000D03*
%TO.P,U2,P$25,P$24*%
%TO.N,MM_N*%
X46720000Y-190440000D03*
%TD*%
D14*
%TO.P,U1,P$2,P$1*%
%TO.N,MR_P*%
X43180000Y-68610000D03*
%TO.P,U1,P$3,P$2*%
%TO.N,MR_N*%
X47180000Y-68610000D03*
%TO.P,U1,P$4,P$3*%
%TO.N,ML_P*%
X43180000Y-72610000D03*
%TO.P,U1,P$5,P$4*%
%TO.N,ML_N*%
X47180000Y-72610000D03*
D15*
%TO.P,U1,P$6,P$5*%
%TO.N,Net-(JP20-A)*%
X43180000Y-75610000D03*
%TO.P,U1,P$7,P$6*%
%TO.N,Net-(JP19-A)*%
X46180000Y-75610000D03*
%TO.P,U1,P$8,P$7*%
%TO.N,GNDD*%
X43180000Y-77810000D03*
%TO.P,U1,P$9,P$8*%
%TO.N,U5SW*%
X46180000Y-77810000D03*
%TO.P,U1,P$10,P$9*%
%TO.N,QENC_R_A*%
X43180000Y-80010000D03*
%TO.P,U1,P$11,P$10*%
%TO.N,QENC_R_B*%
X46180000Y-80010000D03*
%TO.P,U1,P$12,P$11*%
%TO.N,QENC_L_A*%
X43180000Y-82210000D03*
%TO.P,U1,P$13,P$12*%
%TO.N,QENC_L_B*%
X46180000Y-82210000D03*
%TO.P,U1,P$14,P$13*%
%TO.N,GNDD*%
X43180000Y-84410000D03*
%TO.P,U1,P$15,P$14*%
%TO.N,U5SW*%
X46180000Y-84410000D03*
%TO.P,U1,P$16,P$15*%
%TO.N,Net-(JP12-A)*%
X43180000Y-86610000D03*
%TO.P,U1,P$17,P$16*%
%TO.N,Net-(JP13-A)*%
X46180000Y-86610000D03*
%TO.P,U1,P$18,P$17*%
%TO.N,Net-(JP14-A)*%
X43180000Y-88810000D03*
%TO.P,U1,P$19,P$18*%
%TO.N,Net-(JP16-A)*%
X46180000Y-88810000D03*
%TO.P,U1,P$20,P$19*%
%TO.N,Net-(JP17-A)*%
X43180000Y-91010000D03*
%TO.P,U1,P$21,P$20*%
%TO.N,Net-(JP18-A)*%
X46180000Y-91010000D03*
%TO.P,U1,P$22,P$21*%
%TO.N,Net-(U1-P$21)*%
X43180000Y-93210000D03*
%TO.P,U1,P$23,P$22*%
%TO.N,Net-(U1-P$22)*%
X46180000Y-93210000D03*
D14*
%TO.P,U1,P$24,P$23*%
%TO.N,GNDPWR*%
X43180000Y-96210000D03*
%TO.P,U1,P$25,P$24*%
X47180000Y-96210000D03*
%TO.P,U1,P$26,P$25*%
%TO.N,Net-(U1-P$25)*%
X43180000Y-100210000D03*
%TO.P,U1,P$27,P$26*%
%TO.N,Net-(U1-P$26)*%
X47180000Y-100210000D03*
%TD*%
D16*
%TO.P,REF\u002A\u002A,*%
%TO.N,*%
X32000000Y-239000000D03*
D17*
X128000000Y-175000000D03*
D16*
X148000000Y-170500000D03*
D17*
X73000000Y-135000000D03*
D16*
X148000000Y-101000000D03*
D17*
X128000000Y-95000000D03*
D16*
X32000000Y-31000000D03*
%TD*%
D18*
%TO.P,F_MAIN1,1*%
%TO.N,Net-(U1-P$25)*%
X35560000Y-109480000D03*
%TO.P,F_MAIN1,2*%
%TO.N,UB*%
X35560000Y-132080000D03*
%TD*%
D19*
%TO.P,U14,1,GND*%
%TO.N,GND*%
X163000000Y-43500000D03*
%TO.P,U14,2,3V3*%
%TO.N,VCC_STBY*%
X163000000Y-44770000D03*
%TO.P,U14,3,EN*%
%TO.N,ESP32_RESET*%
X163000000Y-46040000D03*
%TO.P,U14,4,GPIO4/TOUCH4/ADC1_CH3*%
%TO.N,CAM_SDA*%
X163000000Y-47310000D03*
%TO.P,U14,5,GPIO5/TOUCH5/ADC1_CH4*%
%TO.N,COIL_ADC_L*%
X163000000Y-48580000D03*
%TO.P,U14,6,GPIO6/TOUCH6/ADC1_CH5*%
%TO.N,COIL_ADC_R*%
X163000000Y-49850000D03*
%TO.P,U14,7,GPIO7/TOUCH7/ADC1_CH6*%
%TO.N,M_L_A*%
X163000000Y-51120000D03*
%TO.P,U14,8,GPIO15/U0RTS/ADC2_CH4/XTAL_32K_P*%
%TO.N,BUS_SCL*%
X163000000Y-52390000D03*
%TO.P,U14,9,GPIO16/U0CTS/ADC2_CH5/XTAL_32K_NH5*%
%TO.N,BUS_SDA*%
X163000000Y-53660000D03*
%TO.P,U14,10,GPIO17/U1TXD/ADC2_CH6*%
%TO.N,GPS_TXD*%
X163000000Y-54930000D03*
%TO.P,U14,11,GPIO18/U1RXD/ADC2_CH7/CLK_OUT3*%
%TO.N,GPS_RXD*%
X163000000Y-56200000D03*
%TO.P,U14,12,GPIO8/TOUCH8/ADC1_CH7/SUBSPICS1*%
%TO.N,M_L_B*%
X163000000Y-57470000D03*
%TO.P,U14,13,GPIO19/U1RTS/ADC2_CH8/CLK_OUT2/USB_D-*%
%TO.N,USB_DN*%
X163000000Y-58740000D03*
%TO.P,U14,14,GPIO20/U1CTS/ADC2_CH9/CLK_OUT1/USB_D+*%
%TO.N,USB_DP*%
X163000000Y-60010000D03*
D20*
%TO.P,U14,15,GPIO3/TOUCH3/ADC1_CH2*%
%TO.N,Net-(JP7-C)*%
X164765000Y-61260000D03*
%TO.P,U14,16,GPIO46*%
%TO.N,CAM_XCLK*%
X166035000Y-61260000D03*
%TO.P,U14,17,GPIO9/TOUCH9/ADC1_CH8/FSPIHD/SUBSPIHD*%
%TO.N,M_L_ENC1*%
X167305000Y-61260000D03*
%TO.P,U14,18,GPIO10/TOUCH10/ADC1_CH9/FSPICS0/FSPIIO4/SUBSPICS0*%
%TO.N,M_L_ENC2*%
X168575000Y-61260000D03*
%TO.P,U14,19,GPIO11/TOUCH11/ADC2_CH0/FSPICS0/FSPIIO4/SUBSPICS0*%
%TO.N,M_R_A*%
X169845000Y-61260000D03*
%TO.P,U14,20,GPIO12/TOUCH11/ADC2_CH0/FSPICS0/FSPIIO4/SUBSPICS0*%
%TO.N,M_R_B*%
X171115000Y-61260000D03*
%TO.P,U14,21,GPIO13/TOUCH13/ADC2_CH2/FSPIQ/FSPIIO7/SUBSPIQ*%
%TO.N,M_R_ENC1*%
X172385000Y-61260000D03*
%TO.P,U14,22,GPIO14/TOUCH14/ADC2_CH3/FSPIWP/FSPIDQS/SUBSPIWP*%
%TO.N,M_R_ENC2*%
X173655000Y-61260000D03*
%TO.P,U14,23,GPIO21*%
%TO.N,CAM_D0*%
X174925000Y-61260000D03*
%TO.P,U14,24,GPIO47/SPICLK_P/SUBSPICLK_P_DIFF*%
%TO.N,CAM_VREF*%
X176195000Y-61260000D03*
%TO.P,U14,25,GPIO48/SPICLK_N/SUBSPICLK_N_DIFF*%
%TO.N,CAM_HREF*%
X177465000Y-61260000D03*
%TO.P,U14,26,GPIO45*%
%TO.N,CAM_PCLK*%
X178735000Y-61260000D03*
D19*
%TO.P,U14,27,GPIO0/BOOT*%
%TO.N,ESP32_BOOT*%
X180500000Y-60010000D03*
%TO.P,U14,28,SPIIO6/GPIO35/FSPID/SUBSPID*%
%TO.N,Net-(U14-SPIIO6{slash}GPIO35{slash}FSPID{slash}SUBSPID)*%
X180500000Y-58740000D03*
%TO.P,U14,29,SPIIO7/GPIO36/FSPICLK/SUBSPICLK*%
%TO.N,Net-(U14-SPIIO7{slash}GPIO36{slash}FSPICLK{slash}SUBSPICLK)*%
X180500000Y-57470000D03*
%TO.P,U14,30,SPIDQS/GPIO37/FSPIQ/SUBSPIQ*%
%TO.N,Net-(U14-SPIDQS{slash}GPIO37{slash}FSPIQ{slash}SUBSPIQ)*%
X180500000Y-56200000D03*
%TO.P,U14,31,GPIO38/FSPIWP/SUBSPIWP*%
%TO.N,CAM_D7*%
X180500000Y-54930000D03*
%TO.P,U14,32,MTCK/GPIO39/CLK_OUT3/SUBSPICS1*%
%TO.N,CAM_D6*%
X180500000Y-53660000D03*
%TO.P,U14,33,MTDO/GPIO40/CLK_OUT2*%
%TO.N,CAM_D5*%
X180500000Y-52390000D03*
%TO.P,U14,34,MTDI/GPIO41/CLK_OUT1*%
%TO.N,CAM_D4*%
X180500000Y-51120000D03*
%TO.P,U14,35,MTMS/GPIO42*%
%TO.N,CAM_D3*%
X180500000Y-49850000D03*
%TO.P,U14,36,U0RXD/GPIO44/CLK_OUT2*%
%TO.N,UART_RXD*%
X180500000Y-48580000D03*
%TO.P,U14,37,U0TXD/GPIO43/CLK_OUT1*%
%TO.N,UART_TXD*%
X180500000Y-47310000D03*
%TO.P,U14,38,GPIO2/TOUCH2/ADC1_CH1*%
%TO.N,CAM_D2*%
X180500000Y-46040000D03*
%TO.P,U14,39,GPIO1/TOUCH1/ADC1_CH0*%
%TO.N,CAM_D1*%
X180500000Y-44770000D03*
%TO.P,U14,40,GND*%
%TO.N,GND*%
X180500000Y-43500000D03*
D21*
%TO.P,U14,41,GND*%
X168890000Y-47350000D03*
D22*
X168890000Y-48100000D03*
D21*
X168890000Y-48850000D03*
D22*
X168890000Y-49600000D03*
D21*
X168890000Y-50350000D03*
D22*
X169640000Y-47350000D03*
X169640000Y-48850000D03*
X169640000Y-50350000D03*
D21*
X170390000Y-47350000D03*
D22*
X170390000Y-48100000D03*
D21*
X170390000Y-48850000D03*
D22*
X170390000Y-49600000D03*
D21*
X170390000Y-50350000D03*
D22*
X171140000Y-47350000D03*
X171140000Y-48850000D03*
X171140000Y-50350000D03*
D21*
X171890000Y-47350000D03*
D22*
X171890000Y-48100000D03*
D21*
X171890000Y-48850000D03*
D22*
X171890000Y-49600000D03*
D21*
X171890000Y-50350000D03*
%TD*%
D18*
%TO.P,F_CHARGE1,1*%
%TO.N,Net-(U2-P$1)*%
X33280000Y-154940000D03*
%TO.P,F_CHARGE1,2*%
%TO.N,U_CHARGE*%
X55880000Y-154940000D03*
%TD*%
%TO.P,F_SEC1,1*%
%TO.N,Net-(U1-P$26)*%
X45720000Y-109480000D03*
%TO.P,F_SEC1,2*%
%TO.N,UB*%
X45720000Y-132080000D03*
%TD*%
D23*
%TO.N,GNDPWR*%
X25400000Y-96210000D02*
X25400000Y-157480000D01*
D24*
X46720000Y-164640000D02*
X46720000Y-163640000D01*
X46720000Y-163640000D02*
X42369000Y-159289000D01*
X42369000Y-159289000D02*
X27209000Y-159289000D01*
X27209000Y-159289000D02*
X25400000Y-157480000D01*
D23*
X25400000Y-157480000D02*
X25400000Y-223495461D01*
D24*
%TO.N,UB*%
X35560000Y-132080000D02*
X45720000Y-132080000D01*
%TO.N,Net-(U1-P$25)*%
X43180000Y-100210000D02*
X43180000Y-104140000D01*
X43180000Y-104140000D02*
X37840000Y-109480000D01*
X37840000Y-109480000D02*
X35560000Y-109480000D01*
%TO.N,Net-(U1-P$26)*%
X47180000Y-100210000D02*
X47180000Y-108020000D01*
X47180000Y-108020000D02*
X45720000Y-109480000D01*
D23*
%TO.N,GNDPWR*%
X25400000Y-96210000D02*
X25400000Y-45720000D01*
D24*
X43180000Y-96210000D02*
X25400000Y-96210000D01*
X47180000Y-96210000D02*
X43180000Y-96210000D01*
%TD*%
M02*
