%TF.GenerationSoftware,KiCad,Pcbnew,9.0.4-9.0.4-0~ubuntu22.04.1*%
%TF.CreationDate,2025-10-26T15:56:29+01:00*%
%TF.ProjectId,IndegoMower,496e6465-676f-44d6-9f77-65722e6b6963,rev?*%
%TF.SameCoordinates,Original*%
%TF.FileFunction,Legend,Top*%
%TF.FilePolarity,Positive*%
%FSLAX46Y46*%
G04 Gerber Fmt 4.6, Leading zero omitted, Abs format (unit mm)*
G04 Created by KiCad (PCBNEW 9.0.4-9.0.4-0~ubuntu22.04.1) date 2025-10-26 15:56:29*
%MOMM*%
%LPD*%
G01*
G04 APERTURE LIST*
%ADD10C,0.120000*%
%ADD11C,0.150000*%
%ADD12C,0.127000*%
G04 APERTURE END LIST*
D10*
X60550000Y-24760000D02*
X116550000Y-24760000D01*
X116550000Y-88240000D01*
X60550000Y-88240000D01*
X60550000Y-24760000D01*
D11*
X34593200Y-190506665D02*
X34526533Y-190439998D01*
X34526533Y-190439998D02*
X34459866Y-190306665D01*
X34459866Y-190306665D02*
X34459866Y-189973332D01*
X34459866Y-189973332D02*
X34526533Y-189839998D01*
X34526533Y-189839998D02*
X34593200Y-189773332D01*
X34593200Y-189773332D02*
X34726533Y-189706665D01*
X34726533Y-189706665D02*
X34859866Y-189706665D01*
X34859866Y-189706665D02*
X35059866Y-189773332D01*
X35059866Y-189773332D02*
X35859866Y-190573332D01*
X35859866Y-190573332D02*
X35859866Y-189706665D01*
X34926533Y-188506665D02*
X35859866Y-188506665D01*
X34393200Y-188839999D02*
X35393200Y-189173332D01*
X35393200Y-189173332D02*
X35393200Y-188306665D01*
X35793200Y-187839999D02*
X35859866Y-187639999D01*
X35859866Y-187639999D02*
X35859866Y-187306666D01*
X35859866Y-187306666D02*
X35793200Y-187173332D01*
X35793200Y-187173332D02*
X35726533Y-187106666D01*
X35726533Y-187106666D02*
X35593200Y-187039999D01*
X35593200Y-187039999D02*
X35459866Y-187039999D01*
X35459866Y-187039999D02*
X35326533Y-187106666D01*
X35326533Y-187106666D02*
X35259866Y-187173332D01*
X35259866Y-187173332D02*
X35193200Y-187306666D01*
X35193200Y-187306666D02*
X35126533Y-187573332D01*
X35126533Y-187573332D02*
X35059866Y-187706666D01*
X35059866Y-187706666D02*
X34993200Y-187773332D01*
X34993200Y-187773332D02*
X34859866Y-187839999D01*
X34859866Y-187839999D02*
X34726533Y-187839999D01*
X34726533Y-187839999D02*
X34593200Y-187773332D01*
X34593200Y-187773332D02*
X34526533Y-187706666D01*
X34526533Y-187706666D02*
X34459866Y-187573332D01*
X34459866Y-187573332D02*
X34459866Y-187239999D01*
X34459866Y-187239999D02*
X34526533Y-187039999D01*
X35859866Y-186439999D02*
X34459866Y-186439999D01*
X35126533Y-186439999D02*
X35126533Y-185639999D01*
X35859866Y-185639999D02*
X34459866Y-185639999D01*
X35726533Y-184173332D02*
X35793200Y-184239999D01*
X35793200Y-184239999D02*
X35859866Y-184439999D01*
X35859866Y-184439999D02*
X35859866Y-184573332D01*
X35859866Y-184573332D02*
X35793200Y-184773332D01*
X35793200Y-184773332D02*
X35659866Y-184906666D01*
X35659866Y-184906666D02*
X35526533Y-184973332D01*
X35526533Y-184973332D02*
X35259866Y-185039999D01*
X35259866Y-185039999D02*
X35059866Y-185039999D01*
X35059866Y-185039999D02*
X34793200Y-184973332D01*
X34793200Y-184973332D02*
X34659866Y-184906666D01*
X34659866Y-184906666D02*
X34526533Y-184773332D01*
X34526533Y-184773332D02*
X34459866Y-184573332D01*
X34459866Y-184573332D02*
X34459866Y-184439999D01*
X34459866Y-184439999D02*
X34526533Y-184239999D01*
X34526533Y-184239999D02*
X34593200Y-184173332D01*
X35326533Y-183573332D02*
X35326533Y-182506666D01*
X35126533Y-181373333D02*
X35193200Y-181173333D01*
X35193200Y-181173333D02*
X35259866Y-181106666D01*
X35259866Y-181106666D02*
X35393200Y-181039999D01*
X35393200Y-181039999D02*
X35593200Y-181039999D01*
X35593200Y-181039999D02*
X35726533Y-181106666D01*
X35726533Y-181106666D02*
X35793200Y-181173333D01*
X35793200Y-181173333D02*
X35859866Y-181306666D01*
X35859866Y-181306666D02*
X35859866Y-181839999D01*
X35859866Y-181839999D02*
X34459866Y-181839999D01*
X34459866Y-181839999D02*
X34459866Y-181373333D01*
X34459866Y-181373333D02*
X34526533Y-181239999D01*
X34526533Y-181239999D02*
X34593200Y-181173333D01*
X34593200Y-181173333D02*
X34726533Y-181106666D01*
X34726533Y-181106666D02*
X34859866Y-181106666D01*
X34859866Y-181106666D02*
X34993200Y-181173333D01*
X34993200Y-181173333D02*
X35059866Y-181239999D01*
X35059866Y-181239999D02*
X35126533Y-181373333D01*
X35126533Y-181373333D02*
X35126533Y-181839999D01*
X35326533Y-180439999D02*
X35326533Y-179373333D01*
X35859866Y-177973333D02*
X35859866Y-178773333D01*
X35859866Y-178373333D02*
X34459866Y-178373333D01*
X34459866Y-178373333D02*
X34659866Y-178506666D01*
X34659866Y-178506666D02*
X34793200Y-178640000D01*
X34793200Y-178640000D02*
X34859866Y-178773333D01*
X35459866Y-177440000D02*
X35459866Y-176773333D01*
X35859866Y-177573333D02*
X34459866Y-177106667D01*
X34459866Y-177106667D02*
X35859866Y-176640000D01*
X35053200Y-100976665D02*
X34986533Y-100909998D01*
X34986533Y-100909998D02*
X34919866Y-100776665D01*
X34919866Y-100776665D02*
X34919866Y-100443332D01*
X34919866Y-100443332D02*
X34986533Y-100309998D01*
X34986533Y-100309998D02*
X35053200Y-100243332D01*
X35053200Y-100243332D02*
X35186533Y-100176665D01*
X35186533Y-100176665D02*
X35319866Y-100176665D01*
X35319866Y-100176665D02*
X35519866Y-100243332D01*
X35519866Y-100243332D02*
X36319866Y-101043332D01*
X36319866Y-101043332D02*
X36319866Y-100176665D01*
X34919866Y-98976665D02*
X34919866Y-99243332D01*
X34919866Y-99243332D02*
X34986533Y-99376665D01*
X34986533Y-99376665D02*
X35053200Y-99443332D01*
X35053200Y-99443332D02*
X35253200Y-99576665D01*
X35253200Y-99576665D02*
X35519866Y-99643332D01*
X35519866Y-99643332D02*
X36053200Y-99643332D01*
X36053200Y-99643332D02*
X36186533Y-99576665D01*
X36186533Y-99576665D02*
X36253200Y-99509999D01*
X36253200Y-99509999D02*
X36319866Y-99376665D01*
X36319866Y-99376665D02*
X36319866Y-99109999D01*
X36319866Y-99109999D02*
X36253200Y-98976665D01*
X36253200Y-98976665D02*
X36186533Y-98909999D01*
X36186533Y-98909999D02*
X36053200Y-98843332D01*
X36053200Y-98843332D02*
X35719866Y-98843332D01*
X35719866Y-98843332D02*
X35586533Y-98909999D01*
X35586533Y-98909999D02*
X35519866Y-98976665D01*
X35519866Y-98976665D02*
X35453200Y-99109999D01*
X35453200Y-99109999D02*
X35453200Y-99376665D01*
X35453200Y-99376665D02*
X35519866Y-99509999D01*
X35519866Y-99509999D02*
X35586533Y-99576665D01*
X35586533Y-99576665D02*
X35719866Y-99643332D01*
X36253200Y-98309999D02*
X36319866Y-98109999D01*
X36319866Y-98109999D02*
X36319866Y-97776666D01*
X36319866Y-97776666D02*
X36253200Y-97643332D01*
X36253200Y-97643332D02*
X36186533Y-97576666D01*
X36186533Y-97576666D02*
X36053200Y-97509999D01*
X36053200Y-97509999D02*
X35919866Y-97509999D01*
X35919866Y-97509999D02*
X35786533Y-97576666D01*
X35786533Y-97576666D02*
X35719866Y-97643332D01*
X35719866Y-97643332D02*
X35653200Y-97776666D01*
X35653200Y-97776666D02*
X35586533Y-98043332D01*
X35586533Y-98043332D02*
X35519866Y-98176666D01*
X35519866Y-98176666D02*
X35453200Y-98243332D01*
X35453200Y-98243332D02*
X35319866Y-98309999D01*
X35319866Y-98309999D02*
X35186533Y-98309999D01*
X35186533Y-98309999D02*
X35053200Y-98243332D01*
X35053200Y-98243332D02*
X34986533Y-98176666D01*
X34986533Y-98176666D02*
X34919866Y-98043332D01*
X34919866Y-98043332D02*
X34919866Y-97709999D01*
X34919866Y-97709999D02*
X34986533Y-97509999D01*
X36319866Y-96909999D02*
X34919866Y-96909999D01*
X35586533Y-96909999D02*
X35586533Y-96109999D01*
X36319866Y-96109999D02*
X34919866Y-96109999D01*
X36186533Y-94643332D02*
X36253200Y-94709999D01*
X36253200Y-94709999D02*
X36319866Y-94909999D01*
X36319866Y-94909999D02*
X36319866Y-95043332D01*
X36319866Y-95043332D02*
X36253200Y-95243332D01*
X36253200Y-95243332D02*
X36119866Y-95376666D01*
X36119866Y-95376666D02*
X35986533Y-95443332D01*
X35986533Y-95443332D02*
X35719866Y-95509999D01*
X35719866Y-95509999D02*
X35519866Y-95509999D01*
X35519866Y-95509999D02*
X35253200Y-95443332D01*
X35253200Y-95443332D02*
X35119866Y-95376666D01*
X35119866Y-95376666D02*
X34986533Y-95243332D01*
X34986533Y-95243332D02*
X34919866Y-95043332D01*
X34919866Y-95043332D02*
X34919866Y-94909999D01*
X34919866Y-94909999D02*
X34986533Y-94709999D01*
X34986533Y-94709999D02*
X35053200Y-94643332D01*
X35786533Y-94043332D02*
X35786533Y-92976666D01*
X35586533Y-91843333D02*
X35653200Y-91643333D01*
X35653200Y-91643333D02*
X35719866Y-91576666D01*
X35719866Y-91576666D02*
X35853200Y-91509999D01*
X35853200Y-91509999D02*
X36053200Y-91509999D01*
X36053200Y-91509999D02*
X36186533Y-91576666D01*
X36186533Y-91576666D02*
X36253200Y-91643333D01*
X36253200Y-91643333D02*
X36319866Y-91776666D01*
X36319866Y-91776666D02*
X36319866Y-92309999D01*
X36319866Y-92309999D02*
X34919866Y-92309999D01*
X34919866Y-92309999D02*
X34919866Y-91843333D01*
X34919866Y-91843333D02*
X34986533Y-91709999D01*
X34986533Y-91709999D02*
X35053200Y-91643333D01*
X35053200Y-91643333D02*
X35186533Y-91576666D01*
X35186533Y-91576666D02*
X35319866Y-91576666D01*
X35319866Y-91576666D02*
X35453200Y-91643333D01*
X35453200Y-91643333D02*
X35519866Y-91709999D01*
X35519866Y-91709999D02*
X35586533Y-91843333D01*
X35586533Y-91843333D02*
X35586533Y-92309999D01*
X35786533Y-90909999D02*
X35786533Y-89843333D01*
X36319866Y-88443333D02*
X36319866Y-89243333D01*
X36319866Y-88843333D02*
X34919866Y-88843333D01*
X34919866Y-88843333D02*
X35119866Y-88976666D01*
X35119866Y-88976666D02*
X35253200Y-89110000D01*
X35253200Y-89110000D02*
X35319866Y-89243333D01*
X35919866Y-87910000D02*
X35919866Y-87243333D01*
X36319866Y-88043333D02*
X34919866Y-87576667D01*
X34919866Y-87576667D02*
X36319866Y-87110000D01*
X38931009Y-115476190D02*
X38931009Y-115809523D01*
X39454819Y-115809523D02*
X38454819Y-115809523D01*
X38454819Y-115809523D02*
X38454819Y-115333333D01*
X39550057Y-115190476D02*
X39550057Y-114428571D01*
X39454819Y-114190475D02*
X38454819Y-114190475D01*
X38454819Y-114190475D02*
X39169104Y-113857142D01*
X39169104Y-113857142D02*
X38454819Y-113523809D01*
X38454819Y-113523809D02*
X39454819Y-113523809D01*
X39169104Y-113095237D02*
X39169104Y-112619047D01*
X39454819Y-113190475D02*
X38454819Y-112857142D01*
X38454819Y-112857142D02*
X39454819Y-112523809D01*
X39454819Y-112190475D02*
X38454819Y-112190475D01*
X39454819Y-111714285D02*
X38454819Y-111714285D01*
X38454819Y-111714285D02*
X39454819Y-111142857D01*
X39454819Y-111142857D02*
X38454819Y-111142857D01*
X39454819Y-110142857D02*
X39454819Y-110714285D01*
X39454819Y-110428571D02*
X38454819Y-110428571D01*
X38454819Y-110428571D02*
X38597676Y-110523809D01*
X38597676Y-110523809D02*
X38692914Y-110619047D01*
X38692914Y-110619047D02*
X38740533Y-110714285D01*
X160704819Y-61923220D02*
X161514342Y-61923220D01*
X161514342Y-61923220D02*
X161609580Y-61875601D01*
X161609580Y-61875601D02*
X161657200Y-61827982D01*
X161657200Y-61827982D02*
X161704819Y-61732744D01*
X161704819Y-61732744D02*
X161704819Y-61542268D01*
X161704819Y-61542268D02*
X161657200Y-61447030D01*
X161657200Y-61447030D02*
X161609580Y-61399411D01*
X161609580Y-61399411D02*
X161514342Y-61351792D01*
X161514342Y-61351792D02*
X160704819Y-61351792D01*
X161704819Y-60351792D02*
X161704819Y-60923220D01*
X161704819Y-60637506D02*
X160704819Y-60637506D01*
X160704819Y-60637506D02*
X160847676Y-60732744D01*
X160847676Y-60732744D02*
X160942914Y-60827982D01*
X160942914Y-60827982D02*
X160990533Y-60923220D01*
X161038152Y-59494649D02*
X161704819Y-59494649D01*
X160657200Y-59732744D02*
X161371485Y-59970839D01*
X161371485Y-59970839D02*
X161371485Y-59351792D01*
X40910952Y-148871009D02*
X40577619Y-148871009D01*
X40577619Y-149394819D02*
X40577619Y-148394819D01*
X40577619Y-148394819D02*
X41053809Y-148394819D01*
X41196667Y-149490057D02*
X41958571Y-149490057D01*
X42768095Y-149299580D02*
X42720476Y-149347200D01*
X42720476Y-149347200D02*
X42577619Y-149394819D01*
X42577619Y-149394819D02*
X42482381Y-149394819D01*
X42482381Y-149394819D02*
X42339524Y-149347200D01*
X42339524Y-149347200D02*
X42244286Y-149251961D01*
X42244286Y-149251961D02*
X42196667Y-149156723D01*
X42196667Y-149156723D02*
X42149048Y-148966247D01*
X42149048Y-148966247D02*
X42149048Y-148823390D01*
X42149048Y-148823390D02*
X42196667Y-148632914D01*
X42196667Y-148632914D02*
X42244286Y-148537676D01*
X42244286Y-148537676D02*
X42339524Y-148442438D01*
X42339524Y-148442438D02*
X42482381Y-148394819D01*
X42482381Y-148394819D02*
X42577619Y-148394819D01*
X42577619Y-148394819D02*
X42720476Y-148442438D01*
X42720476Y-148442438D02*
X42768095Y-148490057D01*
X43196667Y-149394819D02*
X43196667Y-148394819D01*
X43196667Y-148871009D02*
X43768095Y-148871009D01*
X43768095Y-149394819D02*
X43768095Y-148394819D01*
X44196667Y-149109104D02*
X44672857Y-149109104D01*
X44101429Y-149394819D02*
X44434762Y-148394819D01*
X44434762Y-148394819D02*
X44768095Y-149394819D01*
X45672857Y-149394819D02*
X45339524Y-148918628D01*
X45101429Y-149394819D02*
X45101429Y-148394819D01*
X45101429Y-148394819D02*
X45482381Y-148394819D01*
X45482381Y-148394819D02*
X45577619Y-148442438D01*
X45577619Y-148442438D02*
X45625238Y-148490057D01*
X45625238Y-148490057D02*
X45672857Y-148585295D01*
X45672857Y-148585295D02*
X45672857Y-148728152D01*
X45672857Y-148728152D02*
X45625238Y-148823390D01*
X45625238Y-148823390D02*
X45577619Y-148871009D01*
X45577619Y-148871009D02*
X45482381Y-148918628D01*
X45482381Y-148918628D02*
X45101429Y-148918628D01*
X46625238Y-148442438D02*
X46530000Y-148394819D01*
X46530000Y-148394819D02*
X46387143Y-148394819D01*
X46387143Y-148394819D02*
X46244286Y-148442438D01*
X46244286Y-148442438D02*
X46149048Y-148537676D01*
X46149048Y-148537676D02*
X46101429Y-148632914D01*
X46101429Y-148632914D02*
X46053810Y-148823390D01*
X46053810Y-148823390D02*
X46053810Y-148966247D01*
X46053810Y-148966247D02*
X46101429Y-149156723D01*
X46101429Y-149156723D02*
X46149048Y-149251961D01*
X46149048Y-149251961D02*
X46244286Y-149347200D01*
X46244286Y-149347200D02*
X46387143Y-149394819D01*
X46387143Y-149394819D02*
X46482381Y-149394819D01*
X46482381Y-149394819D02*
X46625238Y-149347200D01*
X46625238Y-149347200D02*
X46672857Y-149299580D01*
X46672857Y-149299580D02*
X46672857Y-148966247D01*
X46672857Y-148966247D02*
X46482381Y-148966247D01*
X47101429Y-148871009D02*
X47434762Y-148871009D01*
X47577619Y-149394819D02*
X47101429Y-149394819D01*
X47101429Y-149394819D02*
X47101429Y-148394819D01*
X47101429Y-148394819D02*
X47577619Y-148394819D01*
X48530000Y-149394819D02*
X47958572Y-149394819D01*
X48244286Y-149394819D02*
X48244286Y-148394819D01*
X48244286Y-148394819D02*
X48149048Y-148537676D01*
X48149048Y-148537676D02*
X48053810Y-148632914D01*
X48053810Y-148632914D02*
X47958572Y-148680533D01*
X51651009Y-122872857D02*
X51651009Y-123206190D01*
X52174819Y-123206190D02*
X51174819Y-123206190D01*
X51174819Y-123206190D02*
X51174819Y-122730000D01*
X52270057Y-122587143D02*
X52270057Y-121825238D01*
X52127200Y-121634761D02*
X52174819Y-121491904D01*
X52174819Y-121491904D02*
X52174819Y-121253809D01*
X52174819Y-121253809D02*
X52127200Y-121158571D01*
X52127200Y-121158571D02*
X52079580Y-121110952D01*
X52079580Y-121110952D02*
X51984342Y-121063333D01*
X51984342Y-121063333D02*
X51889104Y-121063333D01*
X51889104Y-121063333D02*
X51793866Y-121110952D01*
X51793866Y-121110952D02*
X51746247Y-121158571D01*
X51746247Y-121158571D02*
X51698628Y-121253809D01*
X51698628Y-121253809D02*
X51651009Y-121444285D01*
X51651009Y-121444285D02*
X51603390Y-121539523D01*
X51603390Y-121539523D02*
X51555771Y-121587142D01*
X51555771Y-121587142D02*
X51460533Y-121634761D01*
X51460533Y-121634761D02*
X51365295Y-121634761D01*
X51365295Y-121634761D02*
X51270057Y-121587142D01*
X51270057Y-121587142D02*
X51222438Y-121539523D01*
X51222438Y-121539523D02*
X51174819Y-121444285D01*
X51174819Y-121444285D02*
X51174819Y-121206190D01*
X51174819Y-121206190D02*
X51222438Y-121063333D01*
X51651009Y-120634761D02*
X51651009Y-120301428D01*
X52174819Y-120158571D02*
X52174819Y-120634761D01*
X52174819Y-120634761D02*
X51174819Y-120634761D01*
X51174819Y-120634761D02*
X51174819Y-120158571D01*
X52079580Y-119158571D02*
X52127200Y-119206190D01*
X52127200Y-119206190D02*
X52174819Y-119349047D01*
X52174819Y-119349047D02*
X52174819Y-119444285D01*
X52174819Y-119444285D02*
X52127200Y-119587142D01*
X52127200Y-119587142D02*
X52031961Y-119682380D01*
X52031961Y-119682380D02*
X51936723Y-119729999D01*
X51936723Y-119729999D02*
X51746247Y-119777618D01*
X51746247Y-119777618D02*
X51603390Y-119777618D01*
X51603390Y-119777618D02*
X51412914Y-119729999D01*
X51412914Y-119729999D02*
X51317676Y-119682380D01*
X51317676Y-119682380D02*
X51222438Y-119587142D01*
X51222438Y-119587142D02*
X51174819Y-119444285D01*
X51174819Y-119444285D02*
X51174819Y-119349047D01*
X51174819Y-119349047D02*
X51222438Y-119206190D01*
X51222438Y-119206190D02*
X51270057Y-119158571D01*
X52174819Y-118206190D02*
X52174819Y-118777618D01*
X52174819Y-118491904D02*
X51174819Y-118491904D01*
X51174819Y-118491904D02*
X51317676Y-118587142D01*
X51317676Y-118587142D02*
X51412914Y-118682380D01*
X51412914Y-118682380D02*
X51460533Y-118777618D01*
D12*
%TO.C,U2*%
X21220000Y-195660000D02*
X21220000Y-160100000D01*
X36220000Y-195660000D02*
X21220000Y-195660000D01*
X21220000Y-160100000D02*
X36220000Y-160100000D01*
%TO.C,U1*%
X21680000Y-105980000D02*
X21680000Y-64070000D01*
X36680000Y-105980000D02*
X21680000Y-105980000D01*
X21680000Y-64070000D02*
X36680000Y-64070000D01*
D10*
%TO.C,F_MAIN1*%
X30760000Y-109480000D02*
X30760000Y-132080000D01*
X30760000Y-109480000D02*
X33560000Y-109480000D01*
X30760000Y-132080000D02*
X33560000Y-132080000D01*
X37560000Y-109480000D02*
X40360000Y-109480000D01*
X37560000Y-132080000D02*
X40360000Y-132080000D01*
X40360000Y-109480000D02*
X40360000Y-132080000D01*
%TO.C,U14*%
X162550000Y-61710000D02*
X162550000Y-60760000D01*
X163950000Y-61710000D02*
X162550000Y-61710000D01*
X179550000Y-61710000D02*
X180950000Y-61710000D01*
X180950000Y-61710000D02*
X180950000Y-60760000D01*
X162550000Y-42760000D02*
X162050000Y-42760000D01*
X162550000Y-42260000D01*
X162550000Y-42760000D01*
G36*
X162550000Y-42760000D02*
G01*
X162050000Y-42760000D01*
X162550000Y-42260000D01*
X162550000Y-42760000D01*
G37*
%TO.C,F_CHARGE1*%
X33280000Y-150140000D02*
X55880000Y-150140000D01*
X33280000Y-152940000D02*
X33280000Y-150140000D01*
X33280000Y-159740000D02*
X33280000Y-156940000D01*
X33280000Y-159740000D02*
X55880000Y-159740000D01*
X55880000Y-152940000D02*
X55880000Y-150140000D01*
X55880000Y-159740000D02*
X55880000Y-156940000D01*
%TO.C,F_SEC1*%
X40920000Y-109480000D02*
X40920000Y-132080000D01*
X40920000Y-109480000D02*
X43720000Y-109480000D01*
X40920000Y-132080000D02*
X43720000Y-132080000D01*
X47720000Y-109480000D02*
X50520000Y-109480000D01*
X47720000Y-132080000D02*
X50520000Y-132080000D01*
X50520000Y-109480000D02*
X50520000Y-132080000D01*
%TD*%
M02*
