M48
; DRILL file {KiCad 6.0.4-6f826c9f35~116~ubuntu20.04.1} date Sun 24 Apr 2022 05:34:33 PM CEST
; FORMAT={-:-/ absolute / inch / decimal}
; #@! TF.CreationDate,2022-04-24T17:34:33+02:00
; #@! TF.GenerationSoftware,Kicad,Pcbnew,6.0.4-6f826c9f35~116~ubuntu20.04.1
; #@! TF.FileFunction,Plated,1,2,PTH
FMAT,2
INCH
; #@! TA.AperFunction,Plated,PTH,ComponentDrill
T1C0.0433
; #@! TA.AperFunction,Plated,PTH,ComponentDrill
T2C0.0472
; #@! TA.AperFunction,Plated,PTH,ComponentDrill
T3C0.0591
; #@! TA.AperFunction,Plated,PTH,ComponentDrill
T4C0.0689
%
G90
G05
T1
X1.55Y-3.0
X1.55Y-3.45
X1.55Y-3.55
X1.55Y-3.65
X1.55Y-6.85
X1.55Y-7.0
X1.55Y-7.35
X1.9Y-3.0
X1.9Y-3.45
X1.9Y-3.55
X1.9Y-3.65
X1.9Y-6.6
X1.9Y-6.85
X1.9Y-7.0
X1.9Y-7.35
T2
X1.6559Y-2.7287
X1.6559Y-2.8862
X1.6559Y-3.0043
X1.6559Y-3.0909
X1.6559Y-3.1776
X1.6559Y-3.2642
X1.6559Y-3.3508
X1.6559Y-3.4374
X1.6559Y-3.524
X1.6559Y-3.6106
X1.6559Y-3.6972
X1.6559Y-3.8154
X1.6559Y-3.9728
X1.6559Y-6.4787
X1.6559Y-6.5969
X1.6559Y-6.6835
X1.6559Y-6.7701
X1.6559Y-6.8567
X1.6559Y-6.9433
X1.6559Y-7.0299
X1.6559Y-7.1165
X1.6559Y-7.2031
X1.6559Y-7.2898
X1.6559Y-7.3764
X1.6559Y-7.4945
X1.774Y-3.0043
X1.774Y-3.0909
X1.774Y-3.1776
X1.774Y-3.2642
X1.774Y-3.3508
X1.774Y-3.4374
X1.774Y-3.524
X1.774Y-3.6106
X1.774Y-3.6972
X1.774Y-6.5969
X1.774Y-6.6835
X1.774Y-6.7701
X1.774Y-6.8567
X1.774Y-6.9433
X1.774Y-7.0299
X1.774Y-7.1165
X1.774Y-7.2031
X1.774Y-7.2898
X1.774Y-7.3764
X1.8134Y-2.7287
X1.8134Y-2.8862
X1.8134Y-3.8154
X1.8134Y-3.9728
X1.8134Y-6.4787
X1.8134Y-7.4945
T3
X0.9Y-4.5
X0.9102Y-5.0
X0.9102Y-6.0
X1.7898Y-4.5
X1.8Y-5.0
X1.8Y-6.0
T4
X4.3807Y-6.387
X4.3807Y-6.6213
X4.6346Y-6.387
X4.9484Y-5.9894
X4.9484Y-6.2236
X5.4268Y-5.6724
X5.8244Y-4.9579
X5.8244Y-5.1921
X6.0783Y-4.9579
T0
M30
