%TF.GenerationSoftware,KiCad,Pcbnew,6.0.4-6f826c9f35~116~ubuntu20.04.1*%
%TF.CreationDate,2022-04-24T17:32:18+02:00*%
%TF.ProjectId,IndegoMower,496e6465-676f-44d6-9f77-65722e6b6963,rev?*%
%TF.SameCoordinates,Original*%
%TF.FileFunction,Soldermask,Top*%
%TF.FilePolarity,Negative*%
%FSLAX46Y46*%
G04 Gerber Fmt 4.6, Leading zero omitted, Abs format (unit mm)*
G04 Created by KiCad (PCBNEW 6.0.4-6f826c9f35~116~ubuntu20.04.1) date 2022-04-24 17:32:18*
%MOMM*%
%LPD*%
G01*
G04 APERTURE LIST*
G04 Aperture macros list*
%AMRoundRect*
0 Rectangle with rounded corners*
0 $1 Rounding radius*
0 $2 $3 $4 $5 $6 $7 $8 $9 X,Y pos of 4 corners*
0 Add a 4 corners polygon primitive as box body*
4,1,4,$2,$3,$4,$5,$6,$7,$8,$9,$2,$3,0*
0 Add four circle primitives for the rounded corners*
1,1,$1+$1,$2,$3*
1,1,$1+$1,$4,$5*
1,1,$1+$1,$6,$7*
1,1,$1+$1,$8,$9*
0 Add four rect primitives between the rounded corners*
20,1,$1+$1,$2,$3,$4,$5,0*
20,1,$1+$1,$4,$5,$6,$7,0*
20,1,$1+$1,$6,$7,$8,$9,0*
20,1,$1+$1,$8,$9,$2,$3,0*%
%AMFreePoly0*
4,1,22,0.500000,-0.750000,0.000000,-0.750000,0.000000,-0.745033,-0.079941,-0.743568,-0.215256,-0.701293,-0.333266,-0.622738,-0.424486,-0.514219,-0.481581,-0.384460,-0.499164,-0.250000,-0.500000,-0.250000,-0.500000,0.250000,-0.499164,0.250000,-0.499963,0.256109,-0.478152,0.396186,-0.417904,0.524511,-0.324060,0.630769,-0.204165,0.706417,-0.067858,0.745374,0.000000,0.744959,0.000000,0.750000,
0.500000,0.750000,0.500000,-0.750000,0.500000,-0.750000,$1*%
%AMFreePoly1*
4,1,20,0.000000,0.744959,0.073905,0.744508,0.209726,0.703889,0.328688,0.626782,0.421226,0.519385,0.479903,0.390333,0.500000,0.250000,0.500000,-0.250000,0.499851,-0.262216,0.476331,-0.402017,0.414519,-0.529596,0.319384,-0.634700,0.198574,-0.708877,0.061801,-0.746166,0.000000,-0.745033,0.000000,-0.750000,-0.500000,-0.750000,-0.500000,0.750000,0.000000,0.750000,0.000000,0.744959,
0.000000,0.744959,$1*%
G04 Aperture macros list end*
%ADD10C,3.200000*%
%ADD11C,1.800000*%
%ADD12RoundRect,0.250001X-0.799999X-0.799999X0.799999X-0.799999X0.799999X0.799999X-0.799999X0.799999X0*%
%ADD13RoundRect,0.250000X-1.125000X-1.125000X1.125000X-1.125000X1.125000X1.125000X-1.125000X1.125000X0*%
%ADD14FreePoly0,0.000000*%
%ADD15FreePoly1,0.000000*%
%ADD16R,2.200000X1.200000*%
%ADD17R,6.400000X5.800000*%
%ADD18R,4.600000X1.100000*%
%ADD19R,9.400000X10.800000*%
%ADD20RoundRect,0.250000X-0.350000X-0.450000X0.350000X-0.450000X0.350000X0.450000X-0.350000X0.450000X0*%
%ADD21RoundRect,0.150000X-0.587500X-0.150000X0.587500X-0.150000X0.587500X0.150000X-0.587500X0.150000X0*%
%ADD22R,4.000000X3.000000*%
%ADD23C,3.000000*%
%ADD24R,2.500000X1.800000*%
%ADD25RoundRect,0.250000X-0.337500X-0.475000X0.337500X-0.475000X0.337500X0.475000X-0.337500X0.475000X0*%
%ADD26RoundRect,0.249998X-3.650002X-4.550002X3.650002X-4.550002X3.650002X4.550002X-3.650002X4.550002X0*%
G04 APERTURE END LIST*
D10*
%TO.C,U2*%
X35560000Y-162560000D03*
X35560000Y-192360000D03*
D11*
X42060000Y-164560000D03*
X46060000Y-164560000D03*
X42060000Y-167560000D03*
X45060000Y-167560000D03*
X42060000Y-169760000D03*
X45060000Y-169760000D03*
X42060000Y-171960000D03*
X45060000Y-171960000D03*
X42060000Y-174160000D03*
X45060000Y-174160000D03*
X42060000Y-176360000D03*
X45060000Y-176360000D03*
X42060000Y-178560000D03*
X45060000Y-178560000D03*
X42060000Y-180760000D03*
X45060000Y-180760000D03*
X42060000Y-182960000D03*
X45060000Y-182960000D03*
X42060000Y-185160000D03*
X45060000Y-185160000D03*
X42060000Y-187360000D03*
X45060000Y-187360000D03*
X42060000Y-190360000D03*
X46060000Y-190360000D03*
%TD*%
D10*
%TO.C,U1*%
X35560000Y-67310000D03*
X35560000Y-103910000D03*
D11*
X42060000Y-69310000D03*
X46060000Y-69310000D03*
X42060000Y-73310000D03*
X46060000Y-73310000D03*
X42060000Y-76310000D03*
X45060000Y-76310000D03*
X42060000Y-78510000D03*
X45060000Y-78510000D03*
X42060000Y-80710000D03*
X45060000Y-80710000D03*
X42060000Y-82910000D03*
X45060000Y-82910000D03*
X42060000Y-85110000D03*
X45060000Y-85110000D03*
X42060000Y-87310000D03*
X45060000Y-87310000D03*
X42060000Y-89510000D03*
X45060000Y-89510000D03*
X42060000Y-91710000D03*
X45060000Y-91710000D03*
X42060000Y-93910000D03*
X45060000Y-93910000D03*
X42060000Y-96910000D03*
X46060000Y-96910000D03*
X42060000Y-100910000D03*
X46060000Y-100910000D03*
%TD*%
D12*
%TO.C,J_B7*%
X48260000Y-186690000D03*
%TD*%
%TO.C,J_B6*%
X39370000Y-186690000D03*
%TD*%
%TO.C,J_B5*%
X48260000Y-177800000D03*
%TD*%
%TO.C,J_B4*%
X39370000Y-177800000D03*
%TD*%
%TO.C,J_B3*%
X48260000Y-173990000D03*
%TD*%
%TO.C,J_B2*%
X39370000Y-173990000D03*
%TD*%
%TO.C,J_B1*%
X48260000Y-167640000D03*
%TD*%
%TO.C,J_A8*%
X48260000Y-92710000D03*
%TD*%
%TO.C,J_A7*%
X39370000Y-92710000D03*
%TD*%
%TO.C,J_A6*%
X48260000Y-90170000D03*
%TD*%
%TO.C,J_A5*%
X39370000Y-90170000D03*
%TD*%
%TO.C,J_A4*%
X48260000Y-87630000D03*
%TD*%
%TO.C,J_A3*%
X39370000Y-87630000D03*
%TD*%
%TO.C,J_A2*%
X48260000Y-76200000D03*
%TD*%
%TO.C,J_A1*%
X39370000Y-76200000D03*
%TD*%
D13*
%TO.C,J_U3_OUT1*%
X111270000Y-162230000D03*
%TD*%
%TO.C,J_U3_IN1*%
X125690000Y-152130000D03*
%TD*%
%TO.C,J_U3_GNDOUT1*%
X154390000Y-125930000D03*
%TD*%
%TO.C,J_U3_GNDIN1*%
X125690000Y-158080000D03*
%TD*%
%TO.C,J_B12*%
X117720000Y-162230000D03*
%TD*%
%TO.C,J_B11*%
X147940000Y-125930000D03*
%TD*%
%TO.C,J_B10*%
X137840000Y-144080000D03*
%TD*%
%TO.C,J_B9*%
X147940000Y-131880000D03*
%TD*%
%TO.C,J_B8*%
X111270000Y-168180000D03*
%TD*%
D14*
%TO.C,JP3*%
X164450000Y-129540000D03*
D15*
X165750000Y-129540000D03*
%TD*%
D16*
%TO.C,U4*%
X124340000Y-142850000D03*
D17*
X130640000Y-145130000D03*
D16*
X124340000Y-147410000D03*
%TD*%
D18*
%TO.C,U3*%
X81275000Y-160530000D03*
X81275000Y-162230000D03*
D19*
X90425000Y-163930000D03*
D18*
X81275000Y-163930000D03*
X81275000Y-165630000D03*
X81275000Y-167330000D03*
%TD*%
D20*
%TO.C,R10*%
X142440000Y-145590000D03*
X144440000Y-145590000D03*
%TD*%
%TO.C,R9*%
X158990000Y-127440000D03*
X160990000Y-127440000D03*
%TD*%
%TO.C,R8*%
X150900000Y-136340000D03*
X152900000Y-136340000D03*
%TD*%
%TO.C,R7*%
X122320000Y-165540000D03*
X124320000Y-165540000D03*
%TD*%
%TO.C,R6*%
X130290000Y-155080000D03*
X132290000Y-155080000D03*
%TD*%
%TO.C,R5*%
X135180000Y-152980000D03*
X137180000Y-152980000D03*
%TD*%
%TO.C,R4*%
X130290000Y-158030000D03*
X132290000Y-158030000D03*
%TD*%
%TO.C,R3*%
X152540000Y-133390000D03*
X154540000Y-133390000D03*
%TD*%
%TO.C,R2*%
X117380000Y-187960000D03*
X119380000Y-187960000D03*
%TD*%
%TO.C,R1*%
X146090000Y-139340000D03*
X148090000Y-139340000D03*
%TD*%
D21*
%TO.C,Q3*%
X130422500Y-150430000D03*
X130422500Y-152330000D03*
X132297500Y-151380000D03*
%TD*%
D16*
%TO.C,Q2*%
X97770000Y-161000000D03*
D17*
X104070000Y-163280000D03*
D16*
X97770000Y-165560000D03*
%TD*%
D21*
%TO.C,Q1*%
X136122500Y-148330000D03*
X136122500Y-150230000D03*
X137997500Y-149280000D03*
%TD*%
D22*
%TO.C,L1*%
X97660000Y-131280000D03*
X81000000Y-131280000D03*
%TD*%
D14*
%TO.C,JP2*%
X163950000Y-124730000D03*
D15*
X165250000Y-124730000D03*
%TD*%
D14*
%TO.C,JP1*%
X157500000Y-130690000D03*
D15*
X158800000Y-130690000D03*
%TD*%
D23*
%TO.C,F_SEC1*%
X23120000Y-127000000D03*
X45720000Y-127000000D03*
%TD*%
%TO.C,F_MAIN1*%
X22860000Y-114300000D03*
X45460000Y-114300000D03*
%TD*%
%TO.C,F_CHARGE1*%
X23120000Y-152400000D03*
X45720000Y-152400000D03*
%TD*%
D24*
%TO.C,D1*%
X97920000Y-169580000D03*
X101920000Y-169580000D03*
%TD*%
D25*
%TO.C,C10*%
X122312500Y-162560000D03*
X124387500Y-162560000D03*
%TD*%
%TO.C,C9*%
X142432500Y-142610000D03*
X144507500Y-142610000D03*
%TD*%
%TO.C,C8*%
X146082500Y-136360000D03*
X148157500Y-136360000D03*
%TD*%
D26*
%TO.C,C7*%
X127545000Y-132030000D03*
X140045000Y-132030000D03*
%TD*%
D25*
%TO.C,C6*%
X152532500Y-130410000D03*
X154607500Y-130410000D03*
%TD*%
D26*
%TO.C,C5*%
X105295000Y-150180000D03*
X117795000Y-150180000D03*
%TD*%
%TO.C,C4*%
X83165000Y-148680000D03*
X95665000Y-148680000D03*
%TD*%
D25*
%TO.C,C3*%
X115862500Y-166710000D03*
X117937500Y-166710000D03*
%TD*%
D26*
%TO.C,C2*%
X105415000Y-132030000D03*
X117915000Y-132030000D03*
%TD*%
D25*
%TO.C,C1*%
X158982500Y-124460000D03*
X161057500Y-124460000D03*
%TD*%
M02*
