%TF.GenerationSoftware,KiCad,Pcbnew,6.0.4-6f826c9f35~116~ubuntu20.04.1*%
%TF.CreationDate,2022-04-24T17:32:18+02:00*%
%TF.ProjectId,IndegoMower,496e6465-676f-44d6-9f77-65722e6b6963,rev?*%
%TF.SameCoordinates,Original*%
%TF.FileFunction,Copper,L1,Top*%
%TF.FilePolarity,Positive*%
%FSLAX46Y46*%
G04 Gerber Fmt 4.6, Leading zero omitted, Abs format (unit mm)*
G04 Created by KiCad (PCBNEW 6.0.4-6f826c9f35~116~ubuntu20.04.1) date 2022-04-24 17:32:18*
%MOMM*%
%LPD*%
G01*
G04 APERTURE LIST*
G04 Aperture macros list*
%AMRoundRect*
0 Rectangle with rounded corners*
0 $1 Rounding radius*
0 $2 $3 $4 $5 $6 $7 $8 $9 X,Y pos of 4 corners*
0 Add a 4 corners polygon primitive as box body*
4,1,4,$2,$3,$4,$5,$6,$7,$8,$9,$2,$3,0*
0 Add four circle primitives for the rounded corners*
1,1,$1+$1,$2,$3*
1,1,$1+$1,$4,$5*
1,1,$1+$1,$6,$7*
1,1,$1+$1,$8,$9*
0 Add four rect primitives between the rounded corners*
20,1,$1+$1,$2,$3,$4,$5,0*
20,1,$1+$1,$4,$5,$6,$7,0*
20,1,$1+$1,$6,$7,$8,$9,0*
20,1,$1+$1,$8,$9,$2,$3,0*%
%AMFreePoly0*
4,1,22,0.500000,-0.750000,0.000000,-0.750000,0.000000,-0.745033,-0.079941,-0.743568,-0.215256,-0.701293,-0.333266,-0.622738,-0.424486,-0.514219,-0.481581,-0.384460,-0.499164,-0.250000,-0.500000,-0.250000,-0.500000,0.250000,-0.499164,0.250000,-0.499963,0.256109,-0.478152,0.396186,-0.417904,0.524511,-0.324060,0.630769,-0.204165,0.706417,-0.067858,0.745374,0.000000,0.744959,0.000000,0.750000,
0.500000,0.750000,0.500000,-0.750000,0.500000,-0.750000,$1*%
%AMFreePoly1*
4,1,20,0.000000,0.744959,0.073905,0.744508,0.209726,0.703889,0.328688,0.626782,0.421226,0.519385,0.479903,0.390333,0.500000,0.250000,0.500000,-0.250000,0.499851,-0.262216,0.476331,-0.402017,0.414519,-0.529596,0.319384,-0.634700,0.198574,-0.708877,0.061801,-0.746166,0.000000,-0.745033,0.000000,-0.750000,-0.500000,-0.750000,-0.500000,0.750000,0.000000,0.750000,0.000000,0.744959,
0.000000,0.744959,$1*%
G04 Aperture macros list end*
%TA.AperFunction,ComponentPad*%
%ADD10C,1.800000*%
%TD*%
%TA.AperFunction,ComponentPad*%
%ADD11RoundRect,0.250001X-0.799999X-0.799999X0.799999X-0.799999X0.799999X0.799999X-0.799999X0.799999X0*%
%TD*%
%TA.AperFunction,ComponentPad*%
%ADD12RoundRect,0.250000X-1.125000X-1.125000X1.125000X-1.125000X1.125000X1.125000X-1.125000X1.125000X0*%
%TD*%
%TA.AperFunction,SMDPad,CuDef*%
%ADD13FreePoly0,0.000000*%
%TD*%
%TA.AperFunction,SMDPad,CuDef*%
%ADD14FreePoly1,0.000000*%
%TD*%
%TA.AperFunction,SMDPad,CuDef*%
%ADD15R,2.200000X1.200000*%
%TD*%
%TA.AperFunction,SMDPad,CuDef*%
%ADD16R,6.400000X5.800000*%
%TD*%
%TA.AperFunction,SMDPad,CuDef*%
%ADD17R,4.600000X1.100000*%
%TD*%
%TA.AperFunction,SMDPad,CuDef*%
%ADD18R,9.400000X10.800000*%
%TD*%
%TA.AperFunction,SMDPad,CuDef*%
%ADD19RoundRect,0.250000X-0.350000X-0.450000X0.350000X-0.450000X0.350000X0.450000X-0.350000X0.450000X0*%
%TD*%
%TA.AperFunction,SMDPad,CuDef*%
%ADD20RoundRect,0.150000X-0.587500X-0.150000X0.587500X-0.150000X0.587500X0.150000X-0.587500X0.150000X0*%
%TD*%
%TA.AperFunction,SMDPad,CuDef*%
%ADD21R,4.000000X3.000000*%
%TD*%
%TA.AperFunction,ComponentPad*%
%ADD22C,3.000000*%
%TD*%
%TA.AperFunction,SMDPad,CuDef*%
%ADD23R,2.500000X1.800000*%
%TD*%
%TA.AperFunction,SMDPad,CuDef*%
%ADD24RoundRect,0.250000X-0.337500X-0.475000X0.337500X-0.475000X0.337500X0.475000X-0.337500X0.475000X0*%
%TD*%
%TA.AperFunction,SMDPad,CuDef*%
%ADD25RoundRect,0.249998X-3.650002X-4.550002X3.650002X-4.550002X3.650002X4.550002X-3.650002X4.550002X0*%
%TD*%
%TA.AperFunction,Conductor*%
%ADD26C,3.000000*%
%TD*%
%TA.AperFunction,Conductor*%
%ADD27C,1.000000*%
%TD*%
G04 APERTURE END LIST*
D10*
%TO.P,U2,P$2,P$1*%
%TO.N,Net-(F_CHARGE1-Pad1)*%
X42060000Y-164560000D03*
%TO.P,U2,P$3,P$2*%
%TO.N,GNDPWR*%
X46060000Y-164560000D03*
%TO.P,U2,P$4,P$3*%
%TO.N,BUZZER*%
X42060000Y-167560000D03*
%TO.P,U2,P$5,P$4*%
%TO.N,Net-(J_B1-Pad1)*%
X45060000Y-167560000D03*
%TO.P,U2,P$6,P$5*%
%TO.N,BUMPER_BACK*%
X42060000Y-169760000D03*
%TO.P,U2,P$7,P$6*%
%TO.N,BUMPER_LEFT*%
X45060000Y-169760000D03*
%TO.P,U2,P$8,P$7*%
%TO.N,BUMPER_FRONT*%
X42060000Y-171960000D03*
%TO.P,U2,P$9,P$8*%
%TO.N,BUMPER_RIGHt*%
X45060000Y-171960000D03*
%TO.P,U2,P$10,P$9*%
%TO.N,Net-(J_B2-Pad1)*%
X42060000Y-174160000D03*
%TO.P,U2,P$11,P$10*%
%TO.N,Net-(J_B3-Pad1)*%
X45060000Y-174160000D03*
%TO.P,U2,P$12,P$11*%
%TO.N,COIL_YELLOW*%
X42060000Y-176360000D03*
%TO.P,U2,P$13,P$12*%
%TO.N,COIL_BLUE*%
X45060000Y-176360000D03*
%TO.P,U2,P$14,P$13*%
%TO.N,Net-(J_B4-Pad1)*%
X42060000Y-178560000D03*
%TO.P,U2,P$15,P$14*%
%TO.N,Net-(J_B5-Pad1)*%
X45060000Y-178560000D03*
%TO.P,U2,P$16,P$15*%
%TO.N,CONTACT_L*%
X42060000Y-180760000D03*
%TO.P,U2,P$17,P$16*%
%TO.N,CONTACT_R*%
X45060000Y-180760000D03*
%TO.P,U2,P$18,P$17*%
%TO.N,STOPSW_1*%
X42060000Y-182960000D03*
%TO.P,U2,P$19,P$18*%
%TO.N,STOPSW_2*%
X45060000Y-182960000D03*
%TO.P,U2,P$20,P$19*%
%TO.N,U5SW*%
X42060000Y-185160000D03*
%TO.P,U2,P$21,P$20*%
%TO.N,GNDD*%
X45060000Y-185160000D03*
%TO.P,U2,P$22,P$21*%
%TO.N,Net-(J_B6-Pad1)*%
X42060000Y-187360000D03*
%TO.P,U2,P$23,P$22*%
%TO.N,Net-(J_B7-Pad1)*%
X45060000Y-187360000D03*
%TO.P,U2,P$24,P$23*%
%TO.N,MM_P*%
X42060000Y-190360000D03*
%TO.P,U2,P$25,P$24*%
%TO.N,MM_N*%
X46060000Y-190360000D03*
%TD*%
%TO.P,U1,P$2,P$1*%
%TO.N,MR_P*%
X42060000Y-69310000D03*
%TO.P,U1,P$3,P$2*%
%TO.N,MR_N*%
X46060000Y-69310000D03*
%TO.P,U1,P$4,P$3*%
%TO.N,ML_P*%
X42060000Y-73310000D03*
%TO.P,U1,P$5,P$4*%
%TO.N,ML_N*%
X46060000Y-73310000D03*
%TO.P,U1,P$6,P$5*%
%TO.N,Net-(J_A1-Pad1)*%
X42060000Y-76310000D03*
%TO.P,U1,P$7,P$6*%
%TO.N,Net-(J_A2-Pad1)*%
X45060000Y-76310000D03*
%TO.P,U1,P$8,P$7*%
%TO.N,GNDD*%
X42060000Y-78510000D03*
%TO.P,U1,P$9,P$8*%
%TO.N,U5SW*%
X45060000Y-78510000D03*
%TO.P,U1,P$10,P$9*%
%TO.N,SIG1*%
X42060000Y-80710000D03*
%TO.P,U1,P$11,P$10*%
%TO.N,SIG2*%
X45060000Y-80710000D03*
%TO.P,U1,P$12,P$11*%
%TO.N,QUAD_L*%
X42060000Y-82910000D03*
%TO.P,U1,P$13,P$12*%
%TO.N,A12_YELLOW*%
X45060000Y-82910000D03*
%TO.P,U1,P$14,P$13*%
%TO.N,A13_BLACK*%
X42060000Y-85110000D03*
%TO.P,U1,P$15,P$14*%
%TO.N,A14_RED*%
X45060000Y-85110000D03*
%TO.P,U1,P$16,P$15*%
%TO.N,Net-(J_A3-Pad1)*%
X42060000Y-87310000D03*
%TO.P,U1,P$17,P$16*%
%TO.N,Net-(J_A4-Pad1)*%
X45060000Y-87310000D03*
%TO.P,U1,P$18,P$17*%
%TO.N,Net-(J_A5-Pad1)*%
X42060000Y-89510000D03*
%TO.P,U1,P$19,P$18*%
%TO.N,Net-(J_A6-Pad1)*%
X45060000Y-89510000D03*
%TO.P,U1,P$20,P$19*%
%TO.N,Net-(J_A7-Pad1)*%
X42060000Y-91710000D03*
%TO.P,U1,P$21,P$20*%
%TO.N,Net-(J_A8-Pad1)*%
X45060000Y-91710000D03*
%TO.P,U1,P$22,P$21*%
%TO.N,MAIN_BAT_SENSOR*%
X42060000Y-93910000D03*
%TO.P,U1,P$23,P$22*%
%TO.N,SEC_BAT_SENSOR*%
X45060000Y-93910000D03*
%TO.P,U1,P$24,P$23*%
%TO.N,GNDPWR*%
X42060000Y-96910000D03*
%TO.P,U1,P$25,P$24*%
X46060000Y-96910000D03*
%TO.P,U1,P$26,P$25*%
%TO.N,Net-(F_MAIN1-Pad1)*%
X42060000Y-100910000D03*
%TO.P,U1,P$27,P$26*%
%TO.N,Net-(F_SEC1-Pad1)*%
X46060000Y-100910000D03*
%TD*%
D11*
%TO.P,J_B7,1,Pin_1*%
%TO.N,Net-(J_B7-Pad1)*%
X48260000Y-186690000D03*
%TD*%
%TO.P,J_B6,1,Pin_1*%
%TO.N,Net-(J_B6-Pad1)*%
X39370000Y-186690000D03*
%TD*%
%TO.P,J_B5,1,Pin_1*%
%TO.N,Net-(J_B5-Pad1)*%
X48260000Y-177800000D03*
%TD*%
%TO.P,J_B4,1,Pin_1*%
%TO.N,Net-(J_B4-Pad1)*%
X39370000Y-177800000D03*
%TD*%
%TO.P,J_B3,1,Pin_1*%
%TO.N,Net-(J_B3-Pad1)*%
X48260000Y-173990000D03*
%TD*%
%TO.P,J_B2,1,Pin_1*%
%TO.N,Net-(J_B2-Pad1)*%
X39370000Y-173990000D03*
%TD*%
%TO.P,J_B1,1,Pin_1*%
%TO.N,Net-(J_B1-Pad1)*%
X48260000Y-167640000D03*
%TD*%
%TO.P,J_A8,1,Pin_1*%
%TO.N,Net-(J_A8-Pad1)*%
X48260000Y-92710000D03*
%TD*%
%TO.P,J_A7,1,Pin_1*%
%TO.N,Net-(J_A7-Pad1)*%
X39370000Y-92710000D03*
%TD*%
%TO.P,J_A6,1,Pin_1*%
%TO.N,Net-(J_A6-Pad1)*%
X48260000Y-90170000D03*
%TD*%
%TO.P,J_A5,1,Pin_1*%
%TO.N,Net-(J_A5-Pad1)*%
X39370000Y-90170000D03*
%TD*%
%TO.P,J_A4,1,Pin_1*%
%TO.N,Net-(J_A4-Pad1)*%
X48260000Y-87630000D03*
%TD*%
%TO.P,J_A3,1,Pin_1*%
%TO.N,Net-(J_A3-Pad1)*%
X39370000Y-87630000D03*
%TD*%
%TO.P,J_A2,1,Pin_1*%
%TO.N,Net-(J_A2-Pad1)*%
X48260000Y-76200000D03*
%TD*%
%TO.P,J_A1,1,Pin_1*%
%TO.N,Net-(J_A1-Pad1)*%
X39370000Y-76200000D03*
%TD*%
D12*
%TO.P,J_U3_OUT1,1,Pin_1*%
%TO.N,U_DRIVE_SW*%
X111270000Y-162230000D03*
%TD*%
%TO.P,J_U3_IN1,1,Pin_1*%
%TO.N,U_BAT_SW*%
X125690000Y-152130000D03*
%TD*%
%TO.P,J_U3_GNDOUT1,1,Pin_1*%
%TO.N,GNDPWR*%
X154390000Y-125930000D03*
%TD*%
%TO.P,J_U3_GNDIN1,1,Pin_1*%
%TO.N,GNDPWR*%
X125690000Y-158080000D03*
%TD*%
%TO.P,J_B12,1,Pin_1*%
%TO.N,VCC*%
X117720000Y-162230000D03*
%TD*%
%TO.P,J_B11,1,Pin_1*%
%TO.N,Net-(C5-Pad1)*%
X147940000Y-125930000D03*
%TD*%
%TO.P,J_B10,1,Pin_1*%
%TO.N,GNDPWR*%
X137840000Y-144080000D03*
%TD*%
%TO.P,J_B9,1,Pin_1*%
%TO.N,GNDPWR*%
X147940000Y-131880000D03*
%TD*%
%TO.P,J_B8,1,Pin_1*%
%TO.N,Net-(JP1-Pad2)*%
X111270000Y-168180000D03*
%TD*%
D13*
%TO.P,JP3,1,A*%
%TO.N,UB*%
X164450000Y-129540000D03*
D14*
%TO.P,JP3,2,B*%
%TO.N,Net-(C5-Pad1)*%
X165750000Y-129540000D03*
%TD*%
D15*
%TO.P,U4,1,ADJ*%
%TO.N,Net-(R7-Pad2)*%
X124340000Y-142850000D03*
D16*
%TO.P,U4,2,VO*%
%TO.N,Net-(C5-Pad1)*%
X130640000Y-145130000D03*
D15*
%TO.P,U4,3,VI*%
%TO.N,UB*%
X124340000Y-147410000D03*
%TD*%
D17*
%TO.P,U3,1,VIN*%
%TO.N,U_BAT_SW*%
X81275000Y-160530000D03*
%TO.P,U3,2,OUT*%
%TO.N,Net-(D1-Pad1)*%
X81275000Y-162230000D03*
D18*
%TO.P,U3,3,GND*%
%TO.N,GNDPWR*%
X90425000Y-163930000D03*
D17*
X81275000Y-163930000D03*
%TO.P,U3,4,FB*%
%TO.N,Net-(C9-Pad1)*%
X81275000Y-165630000D03*
%TO.P,U3,5,~{ON}/OFF*%
%TO.N,Net-(JP1-Pad2)*%
X81275000Y-167330000D03*
%TD*%
D19*
%TO.P,R10,1*%
%TO.N,Net-(C9-Pad1)*%
X142440000Y-145590000D03*
%TO.P,R10,2*%
%TO.N,GNDPWR*%
X144440000Y-145590000D03*
%TD*%
%TO.P,R9,1*%
%TO.N,U_DRIVE_SW*%
X158990000Y-127440000D03*
%TO.P,R9,2*%
%TO.N,Net-(C9-Pad1)*%
X160990000Y-127440000D03*
%TD*%
%TO.P,R8,1*%
%TO.N,Net-(R7-Pad2)*%
X150900000Y-136340000D03*
%TO.P,R8,2*%
%TO.N,GNDPWR*%
X152900000Y-136340000D03*
%TD*%
%TO.P,R7,1*%
%TO.N,Net-(C5-Pad1)*%
X122320000Y-165540000D03*
%TO.P,R7,2*%
%TO.N,Net-(R7-Pad2)*%
X124320000Y-165540000D03*
%TD*%
%TO.P,R6,1*%
%TO.N,U_BAT_SW*%
X130290000Y-155080000D03*
%TO.P,R6,2*%
%TO.N,Net-(JP1-Pad2)*%
X132290000Y-155080000D03*
%TD*%
%TO.P,R5,1*%
%TO.N,Net-(JP1-Pad1)*%
X135180000Y-152980000D03*
%TO.P,R5,2*%
%TO.N,GNDPWR*%
X137180000Y-152980000D03*
%TD*%
%TO.P,R4,1*%
%TO.N,Net-(JP1-Pad1)*%
X130290000Y-158030000D03*
%TO.P,R4,2*%
%TO.N,ON_U24*%
X132290000Y-158030000D03*
%TD*%
%TO.P,R3,1*%
%TO.N,UB*%
X152540000Y-133390000D03*
%TO.P,R3,2*%
%TO.N,Net-(Q1-Pad3)*%
X154540000Y-133390000D03*
%TD*%
%TO.P,R2,1*%
%TO.N,Net-(Q1-Pad1)*%
X117380000Y-187960000D03*
%TO.P,R2,2*%
%TO.N,GNDD*%
X119380000Y-187960000D03*
%TD*%
%TO.P,R1,1*%
%TO.N,Net-(Q1-Pad1)*%
X146090000Y-139340000D03*
%TO.P,R1,2*%
%TO.N,S_PON*%
X148090000Y-139340000D03*
%TD*%
D20*
%TO.P,Q3,1,B*%
%TO.N,Net-(JP1-Pad1)*%
X130422500Y-150430000D03*
%TO.P,Q3,2,E*%
%TO.N,GNDPWR*%
X130422500Y-152330000D03*
%TO.P,Q3,3,C*%
%TO.N,Net-(JP1-Pad2)*%
X132297500Y-151380000D03*
%TD*%
D15*
%TO.P,Q2,1,G*%
%TO.N,Net-(Q1-Pad3)*%
X97770000Y-161000000D03*
D16*
%TO.P,Q2,2,D*%
%TO.N,UB*%
X104070000Y-163280000D03*
D15*
%TO.P,Q2,3,S*%
%TO.N,U_BAT_SW*%
X97770000Y-165560000D03*
%TD*%
D20*
%TO.P,Q1,1,B*%
%TO.N,Net-(Q1-Pad1)*%
X136122500Y-148330000D03*
%TO.P,Q1,2,E*%
%TO.N,GNDD*%
X136122500Y-150230000D03*
%TO.P,Q1,3,C*%
%TO.N,Net-(Q1-Pad3)*%
X137997500Y-149280000D03*
%TD*%
D21*
%TO.P,L1,1,1*%
%TO.N,Net-(D1-Pad1)*%
X97660000Y-131280000D03*
%TO.P,L1,2,2*%
%TO.N,U_DRIVE_SW*%
X81000000Y-131280000D03*
%TD*%
D13*
%TO.P,JP2,1,A*%
%TO.N,Net-(C5-Pad1)*%
X163950000Y-124730000D03*
D14*
%TO.P,JP2,2,B*%
%TO.N,VCC*%
X165250000Y-124730000D03*
%TD*%
D13*
%TO.P,JP1,1,A*%
%TO.N,Net-(JP1-Pad1)*%
X157500000Y-130690000D03*
D14*
%TO.P,JP1,2,B*%
%TO.N,Net-(JP1-Pad2)*%
X158800000Y-130690000D03*
%TD*%
D22*
%TO.P,F_SEC1,1*%
%TO.N,Net-(F_SEC1-Pad1)*%
X23120000Y-127000000D03*
%TO.P,F_SEC1,2*%
%TO.N,UB*%
X45720000Y-127000000D03*
%TD*%
%TO.P,F_MAIN1,1*%
%TO.N,Net-(F_MAIN1-Pad1)*%
X22860000Y-114300000D03*
%TO.P,F_MAIN1,2*%
%TO.N,UB*%
X45460000Y-114300000D03*
%TD*%
%TO.P,F_CHARGE1,1*%
%TO.N,Net-(F_CHARGE1-Pad1)*%
X23120000Y-152400000D03*
%TO.P,F_CHARGE1,2*%
%TO.N,U_CHARGE*%
X45720000Y-152400000D03*
%TD*%
D23*
%TO.P,D1,1,K*%
%TO.N,Net-(D1-Pad1)*%
X97920000Y-169580000D03*
%TO.P,D1,2,A*%
%TO.N,GNDPWR*%
X101920000Y-169580000D03*
%TD*%
D24*
%TO.P,C10,1*%
%TO.N,U_DRIVE_SW*%
X122312500Y-162560000D03*
%TO.P,C10,2*%
%TO.N,GNDPWR*%
X124387500Y-162560000D03*
%TD*%
%TO.P,C9,1*%
%TO.N,Net-(C9-Pad1)*%
X142432500Y-142610000D03*
%TO.P,C9,2*%
%TO.N,U_DRIVE_SW*%
X144507500Y-142610000D03*
%TD*%
%TO.P,C8,1*%
%TO.N,VCC*%
X146082500Y-136360000D03*
%TO.P,C8,2*%
%TO.N,GNDPWR*%
X148157500Y-136360000D03*
%TD*%
D25*
%TO.P,C7,1*%
%TO.N,U_DRIVE_SW*%
X127545000Y-132030000D03*
%TO.P,C7,2*%
%TO.N,GNDPWR*%
X140045000Y-132030000D03*
%TD*%
D24*
%TO.P,C6,1*%
%TO.N,Net-(C5-Pad1)*%
X152532500Y-130410000D03*
%TO.P,C6,2*%
%TO.N,GNDPWR*%
X154607500Y-130410000D03*
%TD*%
D25*
%TO.P,C5,1*%
%TO.N,Net-(C5-Pad1)*%
X105295000Y-150180000D03*
%TO.P,C5,2*%
%TO.N,GNDPWR*%
X117795000Y-150180000D03*
%TD*%
%TO.P,C4,1*%
%TO.N,UB*%
X83165000Y-148680000D03*
%TO.P,C4,2*%
%TO.N,GNDPWR*%
X95665000Y-148680000D03*
%TD*%
D24*
%TO.P,C3,1*%
%TO.N,UB*%
X115862500Y-166710000D03*
%TO.P,C3,2*%
%TO.N,GNDPWR*%
X117937500Y-166710000D03*
%TD*%
D25*
%TO.P,C2,1*%
%TO.N,U_BAT_SW*%
X105415000Y-132030000D03*
%TO.P,C2,2*%
%TO.N,GNDPWR*%
X117915000Y-132030000D03*
%TD*%
D24*
%TO.P,C1,1*%
%TO.N,U_BAT_SW*%
X158982500Y-124460000D03*
%TO.P,C1,2*%
%TO.N,GNDPWR*%
X161057500Y-124460000D03*
%TD*%
D26*
%TO.N,UB*%
X45460000Y-114300000D02*
X45460000Y-126740000D01*
X45460000Y-126740000D02*
X45720000Y-127000000D01*
%TO.N,Net-(F_SEC1-Pad1)*%
X46060000Y-100910000D02*
X46060000Y-102530000D01*
X46060000Y-102530000D02*
X43180000Y-105410000D01*
X43180000Y-105410000D02*
X39370000Y-105410000D01*
X39370000Y-105410000D02*
X35560000Y-109220000D01*
X35560000Y-109220000D02*
X29210000Y-109220000D01*
X29210000Y-109220000D02*
X26670000Y-111760000D01*
X26670000Y-111760000D02*
X26670000Y-123450000D01*
X26670000Y-123450000D02*
X23120000Y-127000000D01*
%TO.N,Net-(F_MAIN1-Pad1)*%
X24450000Y-100010000D02*
X22860000Y-101600000D01*
X41160000Y-100010000D02*
X24450000Y-100010000D01*
X42060000Y-100910000D02*
X41160000Y-100010000D01*
X22860000Y-101600000D02*
X22860000Y-114300000D01*
%TO.N,Net-(F_CHARGE1-Pad1)*%
X42060000Y-164560000D02*
X39910000Y-164560000D01*
X39910000Y-164560000D02*
X38100000Y-166370000D01*
X38100000Y-166370000D02*
X33020000Y-166370000D01*
X33020000Y-166370000D02*
X23120000Y-156470000D01*
X23120000Y-156470000D02*
X23120000Y-152400000D01*
D27*
%TO.N,Net-(J_B1-Pad1)*%
X48260000Y-167640000D02*
X45140000Y-167640000D01*
X45140000Y-167640000D02*
X45060000Y-167560000D01*
%TO.N,Net-(J_B3-Pad1)*%
X48260000Y-173990000D02*
X45230000Y-173990000D01*
X45230000Y-173990000D02*
X45060000Y-174160000D01*
%TO.N,Net-(J_B2-Pad1)*%
X39370000Y-173990000D02*
X41890000Y-173990000D01*
X41890000Y-173990000D02*
X42060000Y-174160000D01*
%TO.N,Net-(J_B4-Pad1)*%
X39370000Y-177800000D02*
X41300000Y-177800000D01*
X41300000Y-177800000D02*
X42060000Y-178560000D01*
%TO.N,Net-(J_B5-Pad1)*%
X48260000Y-177800000D02*
X45820000Y-177800000D01*
X45820000Y-177800000D02*
X45060000Y-178560000D01*
%TO.N,Net-(J_B6-Pad1)*%
X39370000Y-186690000D02*
X41390000Y-186690000D01*
X41390000Y-186690000D02*
X42060000Y-187360000D01*
%TO.N,Net-(J_B7-Pad1)*%
X48260000Y-186690000D02*
X45730000Y-186690000D01*
X45730000Y-186690000D02*
X45060000Y-187360000D01*
%TO.N,Net-(J_A7-Pad1)*%
X39370000Y-92710000D02*
X39787208Y-92710000D01*
X39787208Y-92710000D02*
X40787208Y-91710000D01*
X40787208Y-91710000D02*
X42060000Y-91710000D01*
%TO.N,Net-(J_A8-Pad1)*%
X48260000Y-92710000D02*
X47857177Y-92710000D01*
X47857177Y-92710000D02*
X46857177Y-91710000D01*
X46857177Y-91710000D02*
X45060000Y-91710000D01*
%TO.N,Net-(J_A5-Pad1)*%
X39370000Y-90170000D02*
X41400000Y-90170000D01*
X41400000Y-90170000D02*
X42060000Y-89510000D01*
%TO.N,Net-(J_A6-Pad1)*%
X48260000Y-90170000D02*
X45720000Y-90170000D01*
X45720000Y-90170000D02*
X45060000Y-89510000D01*
%TO.N,Net-(J_A3-Pad1)*%
X39370000Y-87630000D02*
X41740000Y-87630000D01*
X41740000Y-87630000D02*
X42060000Y-87310000D01*
%TO.N,Net-(J_A4-Pad1)*%
X48260000Y-87630000D02*
X45380000Y-87630000D01*
X45380000Y-87630000D02*
X45060000Y-87310000D01*
%TO.N,Net-(J_A2-Pad1)*%
X48260000Y-76200000D02*
X45170000Y-76200000D01*
X45170000Y-76200000D02*
X45060000Y-76310000D01*
%TO.N,Net-(J_A1-Pad1)*%
X39370000Y-76200000D02*
X41950000Y-76200000D01*
X41950000Y-76200000D02*
X42060000Y-76310000D01*
%TD*%
M02*
