%TF.GenerationSoftware,KiCad,Pcbnew,9.0.4-9.0.4-0~ubuntu22.04.1*%
%TF.CreationDate,2025-10-26T15:56:30+01:00*%
%TF.ProjectId,IndegoMower,496e6465-676f-44d6-9f77-65722e6b6963,rev?*%
%TF.SameCoordinates,Original*%
%TF.FileFunction,Soldermask,Bot*%
%TF.FilePolarity,Negative*%
%FSLAX46Y46*%
G04 Gerber Fmt 4.6, Leading zero omitted, Abs format (unit mm)*
G04 Created by KiCad (PCBNEW 9.0.4-9.0.4-0~ubuntu22.04.1) date 2025-10-26 15:56:30*
%MOMM*%
%LPD*%
G01*
G04 APERTURE LIST*
G04 Aperture macros list*
%AMRoundRect*
0 Rectangle with rounded corners*
0 $1 Rounding radius*
0 $2 $3 $4 $5 $6 $7 $8 $9 X,Y pos of 4 corners*
0 Add a 4 corners polygon primitive as box body*
4,1,4,$2,$3,$4,$5,$6,$7,$8,$9,$2,$3,0*
0 Add four circle primitives for the rounded corners*
1,1,$1+$1,$2,$3*
1,1,$1+$1,$4,$5*
1,1,$1+$1,$6,$7*
1,1,$1+$1,$8,$9*
0 Add four rect primitives between the rounded corners*
20,1,$1+$1,$2,$3,$4,$5,0*
20,1,$1+$1,$4,$5,$6,$7,0*
20,1,$1+$1,$6,$7,$8,$9,0*
20,1,$1+$1,$8,$9,$2,$3,0*%
G04 Aperture macros list end*
%ADD10C,1.700000*%
%ADD11R,1.700000X1.700000*%
%ADD12C,3.200000*%
%ADD13RoundRect,0.277778X1.222222X-0.722222X1.222222X0.722222X-1.222222X0.722222X-1.222222X-0.722222X0*%
%ADD14RoundRect,0.194444X0.805556X-0.505556X0.805556X0.505556X-0.805556X0.505556X-0.805556X-0.505556X0*%
%ADD15RoundRect,0.300000X-1.200000X0.700000X-1.200000X-0.700000X1.200000X-0.700000X1.200000X0.700000X0*%
%ADD16RoundRect,0.190500X1.079500X0.444500X-1.079500X0.444500X-1.079500X-0.444500X1.079500X-0.444500X0*%
%ADD17C,20.000000*%
%ADD18C,15.000000*%
%ADD19C,3.000000*%
%ADD20C,0.600000*%
G04 APERTURE END LIST*
D10*
%TO.C,J1*%
X114060000Y-81230000D03*
X111520000Y-81230000D03*
X114060000Y-78690000D03*
X111520000Y-78690000D03*
X114060000Y-76150000D03*
X111520000Y-76150000D03*
X114060000Y-73610000D03*
X111520000Y-73610000D03*
X114060000Y-71070000D03*
X111520000Y-71070000D03*
X114060000Y-68530000D03*
X111520000Y-68530000D03*
X114060000Y-65990000D03*
X111520000Y-65990000D03*
X114060000Y-63450000D03*
X111520000Y-63450000D03*
X114060000Y-60910000D03*
X111520000Y-60910000D03*
X114060000Y-58370000D03*
X111520000Y-58370000D03*
X114060000Y-55830000D03*
X111520000Y-55830000D03*
X114060000Y-53290000D03*
X111520000Y-53290000D03*
X114060000Y-50750000D03*
X111520000Y-50750000D03*
X114060000Y-48210000D03*
X111520000Y-48210000D03*
X114060000Y-45670000D03*
X111520000Y-45670000D03*
X114060000Y-43130000D03*
X111520000Y-43130000D03*
X114060000Y-40590000D03*
X111520000Y-40590000D03*
X114060000Y-38050000D03*
X111520000Y-38050000D03*
X114060000Y-35510000D03*
X111520000Y-35510000D03*
X114060000Y-32970000D03*
D11*
X111520000Y-32970000D03*
%TD*%
D12*
%TO.C,U2*%
X36220000Y-192440000D03*
X36220000Y-162640000D03*
D13*
X42720000Y-164640000D03*
X46720000Y-164640000D03*
D14*
X42720000Y-167640000D03*
X45720000Y-167640000D03*
X42720000Y-169840000D03*
X45720000Y-169840000D03*
X42720000Y-172040000D03*
X45720000Y-172040000D03*
X42720000Y-174240000D03*
X45720000Y-174240000D03*
X42720000Y-176440000D03*
X45720000Y-176440000D03*
X42720000Y-178640000D03*
X45720000Y-178640000D03*
X42720000Y-180840000D03*
X45720000Y-180840000D03*
X42720000Y-183040000D03*
X45720000Y-183040000D03*
X42720000Y-185240000D03*
X45720000Y-185240000D03*
X42720000Y-187440000D03*
X45720000Y-187440000D03*
D13*
X42720000Y-190440000D03*
X46720000Y-190440000D03*
%TD*%
D12*
%TO.C,U1*%
X36680000Y-103210000D03*
X36680000Y-66610000D03*
D15*
X43180000Y-68610000D03*
X47180000Y-68610000D03*
X43180000Y-72610000D03*
X47180000Y-72610000D03*
D16*
X43180000Y-75610000D03*
X46180000Y-75610000D03*
X43180000Y-77810000D03*
X46180000Y-77810000D03*
X43180000Y-80010000D03*
X46180000Y-80010000D03*
X43180000Y-82210000D03*
X46180000Y-82210000D03*
X43180000Y-84410000D03*
X46180000Y-84410000D03*
X43180000Y-86610000D03*
X46180000Y-86610000D03*
X43180000Y-88810000D03*
X46180000Y-88810000D03*
X43180000Y-91010000D03*
X46180000Y-91010000D03*
X43180000Y-93210000D03*
X46180000Y-93210000D03*
D15*
X43180000Y-96210000D03*
X47180000Y-96210000D03*
X43180000Y-100210000D03*
X47180000Y-100210000D03*
%TD*%
D17*
%TO.C,REF\u002A\u002A*%
X32000000Y-239000000D03*
D18*
X128000000Y-175000000D03*
D17*
X148000000Y-170500000D03*
D18*
X73000000Y-135000000D03*
D17*
X148000000Y-101000000D03*
D18*
X128000000Y-95000000D03*
D17*
X32000000Y-31000000D03*
%TD*%
D19*
%TO.C,F_MAIN1*%
X35560000Y-109480000D03*
X35560000Y-132080000D03*
%TD*%
D20*
%TO.C,U14*%
X168890000Y-48100000D03*
X168890000Y-49600000D03*
X169640000Y-47350000D03*
X169640000Y-48850000D03*
X169640000Y-50350000D03*
X170390000Y-48100000D03*
X170390000Y-49600000D03*
X171140000Y-47350000D03*
X171140000Y-48850000D03*
X171140000Y-50350000D03*
X171890000Y-48100000D03*
X171890000Y-49600000D03*
%TD*%
D19*
%TO.C,F_CHARGE1*%
X33280000Y-154940000D03*
X55880000Y-154940000D03*
%TD*%
%TO.C,F_SEC1*%
X45720000Y-109480000D03*
X45720000Y-132080000D03*
%TD*%
M02*
