%TF.GenerationSoftware,KiCad,Pcbnew,9.0.4-9.0.4-0~ubuntu22.04.1*%
%TF.CreationDate,2025-10-26T15:56:30+01:00*%
%TF.ProjectId,IndegoMower,496e6465-676f-44d6-9f77-65722e6b6963,rev?*%
%TF.SameCoordinates,Original*%
%TF.FileFunction,Profile,NP*%
%FSLAX46Y46*%
G04 Gerber Fmt 4.6, Leading zero omitted, Abs format (unit mm)*
G04 Created by KiCad (PCBNEW 9.0.4-9.0.4-0~ubuntu22.04.1) date 2025-10-26 15:56:30*
%MOMM*%
%LPD*%
G01*
G04 APERTURE LIST*
%TA.AperFunction,Profile*%
%ADD10C,0.120000*%
%TD*%
%TA.AperFunction,Profile*%
%ADD11C,0.050000*%
%TD*%
G04 APERTURE END LIST*
D10*
X65450000Y-86080000D02*
G75*
G02*
X62250000Y-86080000I-1600000J0D01*
G01*
X62250000Y-86080000D02*
G75*
G02*
X65450000Y-86080000I1600000J0D01*
G01*
X63500000Y-68580000D02*
X80350000Y-68580000D01*
X80350000Y-70580000D01*
X63500000Y-70580000D01*
X63500000Y-68580000D01*
X114500000Y-28080000D02*
G75*
G02*
X111300000Y-28080000I-1600000J0D01*
G01*
X111300000Y-28080000D02*
G75*
G02*
X114500000Y-28080000I1600000J0D01*
G01*
X65500000Y-28080000D02*
G75*
G02*
X62300000Y-28080000I-1600000J0D01*
G01*
X62300000Y-28080000D02*
G75*
G02*
X65500000Y-28080000I1600000J0D01*
G01*
D11*
X107650000Y-67530000D02*
G75*
G02*
X77650000Y-67530000I-15000000J0D01*
G01*
X77650000Y-67530000D02*
G75*
G02*
X107650000Y-67530000I15000000J0D01*
G01*
D10*
X114500000Y-86130000D02*
G75*
G02*
X111300000Y-86130000I-1600000J0D01*
G01*
X111300000Y-86130000D02*
G75*
G02*
X114500000Y-86130000I1600000J0D01*
G01*
D11*
X60550000Y-88680000D02*
X116550000Y-88680000D01*
X116550000Y-124740000D01*
X60550000Y-124740000D01*
X60550000Y-88680000D01*
%TO.C,REF\u002A\u002A*%
X25000000Y-250000000D02*
X20000000Y-245000000D01*
X187000000Y-250000000D02*
X25000000Y-250000000D01*
X20000000Y-245000000D02*
X20000000Y-25000000D01*
X192000000Y-245000000D02*
X187000000Y-250000000D01*
X192000000Y-47000000D02*
X192000000Y-245000000D01*
X147000000Y-42000000D02*
X187000000Y-42000000D01*
X187000000Y-42000000D02*
X192000000Y-47000000D01*
X142000000Y-37000000D02*
X147000000Y-42000000D01*
X20000000Y-25000000D02*
X25000000Y-20000000D01*
X142000000Y-25000000D02*
X142000000Y-37000000D01*
X25000000Y-20000000D02*
X137000000Y-20000000D01*
X137000000Y-20000000D02*
X142000000Y-25000000D01*
%TD*%
M02*
