%TF.GenerationSoftware,KiCad,Pcbnew,9.0.4-9.0.4-0~ubuntu22.04.1*%
%TF.CreationDate,2025-10-26T15:56:29+01:00*%
%TF.ProjectId,IndegoMower,496e6465-676f-44d6-9f77-65722e6b6963,rev?*%
%TF.SameCoordinates,Original*%
%TF.FileFunction,Paste,Top*%
%TF.FilePolarity,Positive*%
%FSLAX46Y46*%
G04 Gerber Fmt 4.6, Leading zero omitted, Abs format (unit mm)*
G04 Created by KiCad (PCBNEW 9.0.4-9.0.4-0~ubuntu22.04.1) date 2025-10-26 15:56:29*
%MOMM*%
%LPD*%
G01*
G04 APERTURE LIST*
%ADD10R,1.500000X0.900000*%
%ADD11R,0.900000X1.500000*%
%ADD12R,1.000000X1.000000*%
G04 APERTURE END LIST*
D10*
%TO.C,U14*%
X163000000Y-43500000D03*
X163000000Y-44770000D03*
X163000000Y-46040000D03*
X163000000Y-47310000D03*
X163000000Y-48580000D03*
X163000000Y-49850000D03*
X163000000Y-51120000D03*
X163000000Y-52390000D03*
X163000000Y-53660000D03*
X163000000Y-54930000D03*
X163000000Y-56200000D03*
X163000000Y-57470000D03*
X163000000Y-58740000D03*
X163000000Y-60010000D03*
D11*
X164765000Y-61260000D03*
X166035000Y-61260000D03*
X167305000Y-61260000D03*
X168575000Y-61260000D03*
X169845000Y-61260000D03*
X171115000Y-61260000D03*
X172385000Y-61260000D03*
X173655000Y-61260000D03*
X174925000Y-61260000D03*
X176195000Y-61260000D03*
X177465000Y-61260000D03*
X178735000Y-61260000D03*
D10*
X180500000Y-60010000D03*
X180500000Y-58740000D03*
X180500000Y-57470000D03*
X180500000Y-56200000D03*
X180500000Y-54930000D03*
X180500000Y-53660000D03*
X180500000Y-52390000D03*
X180500000Y-51120000D03*
X180500000Y-49850000D03*
X180500000Y-48580000D03*
X180500000Y-47310000D03*
X180500000Y-46040000D03*
X180500000Y-44770000D03*
X180500000Y-43500000D03*
D12*
X168890000Y-47350000D03*
X168890000Y-48850000D03*
X168890000Y-50350000D03*
X170390000Y-47350000D03*
X170390000Y-48850000D03*
X170390000Y-50350000D03*
X171890000Y-47350000D03*
X171890000Y-48850000D03*
X171890000Y-50350000D03*
%TD*%
M02*
