%TF.GenerationSoftware,KiCad,Pcbnew,6.0.4-6f826c9f35~116~ubuntu20.04.1*%
%TF.CreationDate,2022-04-24T17:32:18+02:00*%
%TF.ProjectId,IndegoMower,496e6465-676f-44d6-9f77-65722e6b6963,rev?*%
%TF.SameCoordinates,Original*%
%TF.FileFunction,Paste,Top*%
%TF.FilePolarity,Positive*%
%FSLAX46Y46*%
G04 Gerber Fmt 4.6, Leading zero omitted, Abs format (unit mm)*
G04 Created by KiCad (PCBNEW 6.0.4-6f826c9f35~116~ubuntu20.04.1) date 2022-04-24 17:32:18*
%MOMM*%
%LPD*%
G01*
G04 APERTURE LIST*
G04 Aperture macros list*
%AMRoundRect*
0 Rectangle with rounded corners*
0 $1 Rounding radius*
0 $2 $3 $4 $5 $6 $7 $8 $9 X,Y pos of 4 corners*
0 Add a 4 corners polygon primitive as box body*
4,1,4,$2,$3,$4,$5,$6,$7,$8,$9,$2,$3,0*
0 Add four circle primitives for the rounded corners*
1,1,$1+$1,$2,$3*
1,1,$1+$1,$4,$5*
1,1,$1+$1,$6,$7*
1,1,$1+$1,$8,$9*
0 Add four rect primitives between the rounded corners*
20,1,$1+$1,$2,$3,$4,$5,0*
20,1,$1+$1,$4,$5,$6,$7,0*
20,1,$1+$1,$6,$7,$8,$9,0*
20,1,$1+$1,$8,$9,$2,$3,0*%
G04 Aperture macros list end*
%ADD10R,3.050000X2.750000*%
%ADD11R,2.200000X1.200000*%
%ADD12R,4.550000X5.250000*%
%ADD13R,4.600000X1.100000*%
%ADD14RoundRect,0.250000X-0.350000X-0.450000X0.350000X-0.450000X0.350000X0.450000X-0.350000X0.450000X0*%
%ADD15RoundRect,0.150000X-0.587500X-0.150000X0.587500X-0.150000X0.587500X0.150000X-0.587500X0.150000X0*%
%ADD16R,4.000000X3.000000*%
%ADD17R,2.500000X1.800000*%
%ADD18RoundRect,0.250000X-0.337500X-0.475000X0.337500X-0.475000X0.337500X0.475000X-0.337500X0.475000X0*%
%ADD19RoundRect,0.249998X-3.650002X-4.550002X3.650002X-4.550002X3.650002X4.550002X-3.650002X4.550002X0*%
G04 APERTURE END LIST*
D10*
%TO.C,U4*%
X128965000Y-143605000D03*
X128965000Y-146655000D03*
X132315000Y-143605000D03*
X132315000Y-146655000D03*
D11*
X124340000Y-142850000D03*
X124340000Y-147410000D03*
%TD*%
D12*
%TO.C,U3*%
X92850000Y-161155000D03*
X88000000Y-161155000D03*
X92850000Y-166705000D03*
X88000000Y-166705000D03*
D13*
X81275000Y-160530000D03*
X81275000Y-162230000D03*
X81275000Y-163930000D03*
X81275000Y-165630000D03*
X81275000Y-167330000D03*
%TD*%
D14*
%TO.C,R10*%
X142440000Y-145590000D03*
X144440000Y-145590000D03*
%TD*%
%TO.C,R9*%
X158990000Y-127440000D03*
X160990000Y-127440000D03*
%TD*%
%TO.C,R8*%
X150900000Y-136340000D03*
X152900000Y-136340000D03*
%TD*%
%TO.C,R7*%
X122320000Y-165540000D03*
X124320000Y-165540000D03*
%TD*%
%TO.C,R6*%
X130290000Y-155080000D03*
X132290000Y-155080000D03*
%TD*%
%TO.C,R5*%
X135180000Y-152980000D03*
X137180000Y-152980000D03*
%TD*%
%TO.C,R4*%
X130290000Y-158030000D03*
X132290000Y-158030000D03*
%TD*%
%TO.C,R3*%
X152540000Y-133390000D03*
X154540000Y-133390000D03*
%TD*%
%TO.C,R2*%
X117380000Y-187960000D03*
X119380000Y-187960000D03*
%TD*%
%TO.C,R1*%
X146090000Y-139340000D03*
X148090000Y-139340000D03*
%TD*%
D15*
%TO.C,Q3*%
X130422500Y-150430000D03*
X130422500Y-152330000D03*
X132297500Y-151380000D03*
%TD*%
D10*
%TO.C,Q2*%
X102395000Y-161755000D03*
X102395000Y-164805000D03*
X105745000Y-161755000D03*
X105745000Y-164805000D03*
D11*
X97770000Y-161000000D03*
X97770000Y-165560000D03*
%TD*%
D15*
%TO.C,Q1*%
X136122500Y-148330000D03*
X136122500Y-150230000D03*
X137997500Y-149280000D03*
%TD*%
D16*
%TO.C,L1*%
X97660000Y-131280000D03*
X81000000Y-131280000D03*
%TD*%
D17*
%TO.C,D1*%
X97920000Y-169580000D03*
X101920000Y-169580000D03*
%TD*%
D18*
%TO.C,C10*%
X122312500Y-162560000D03*
X124387500Y-162560000D03*
%TD*%
%TO.C,C9*%
X142432500Y-142610000D03*
X144507500Y-142610000D03*
%TD*%
%TO.C,C8*%
X146082500Y-136360000D03*
X148157500Y-136360000D03*
%TD*%
D19*
%TO.C,C7*%
X127545000Y-132030000D03*
X140045000Y-132030000D03*
%TD*%
D18*
%TO.C,C6*%
X152532500Y-130410000D03*
X154607500Y-130410000D03*
%TD*%
D19*
%TO.C,C5*%
X105295000Y-150180000D03*
X117795000Y-150180000D03*
%TD*%
%TO.C,C4*%
X83165000Y-148680000D03*
X95665000Y-148680000D03*
%TD*%
D18*
%TO.C,C3*%
X115862500Y-166710000D03*
X117937500Y-166710000D03*
%TD*%
D19*
%TO.C,C2*%
X105415000Y-132030000D03*
X117915000Y-132030000D03*
%TD*%
D18*
%TO.C,C1*%
X158982500Y-124460000D03*
X161057500Y-124460000D03*
%TD*%
M02*
