%TF.GenerationSoftware,KiCad,Pcbnew,6.0.4-6f826c9f35~116~ubuntu20.04.1*%
%TF.CreationDate,2022-04-24T17:32:18+02:00*%
%TF.ProjectId,IndegoMower,496e6465-676f-44d6-9f77-65722e6b6963,rev?*%
%TF.SameCoordinates,Original*%
%TF.FileFunction,Legend,Top*%
%TF.FilePolarity,Positive*%
%FSLAX46Y46*%
G04 Gerber Fmt 4.6, Leading zero omitted, Abs format (unit mm)*
G04 Created by KiCad (PCBNEW 6.0.4-6f826c9f35~116~ubuntu20.04.1) date 2022-04-24 17:32:18*
%MOMM*%
%LPD*%
G01*
G04 APERTURE LIST*
%ADD10C,0.150000*%
%ADD11C,0.127000*%
%ADD12C,0.120000*%
G04 APERTURE END LIST*
D10*
%TO.C,U2*%
X35128803Y-163159925D02*
X35766224Y-163159925D01*
X35841215Y-163122430D01*
X35878710Y-163084934D01*
X35916205Y-163009944D01*
X35916205Y-162859962D01*
X35878710Y-162784972D01*
X35841215Y-162747476D01*
X35766224Y-162709981D01*
X35128803Y-162709981D01*
X35203794Y-162372523D02*
X35166299Y-162335028D01*
X35128803Y-162260037D01*
X35128803Y-162072560D01*
X35166299Y-161997570D01*
X35203794Y-161960074D01*
X35278785Y-161922579D01*
X35353775Y-161922579D01*
X35466261Y-161960074D01*
X35916205Y-162410018D01*
X35916205Y-161922579D01*
X32386666Y-201176666D02*
X32320000Y-201110000D01*
X32253333Y-200976666D01*
X32253333Y-200643333D01*
X32320000Y-200510000D01*
X32386666Y-200443333D01*
X32520000Y-200376666D01*
X32653333Y-200376666D01*
X32853333Y-200443333D01*
X33653333Y-201243333D01*
X33653333Y-200376666D01*
X32720000Y-199176666D02*
X33653333Y-199176666D01*
X32186666Y-199510000D02*
X33186666Y-199843333D01*
X33186666Y-198976666D01*
X33586666Y-198510000D02*
X33653333Y-198310000D01*
X33653333Y-197976666D01*
X33586666Y-197843333D01*
X33520000Y-197776666D01*
X33386666Y-197710000D01*
X33253333Y-197710000D01*
X33120000Y-197776666D01*
X33053333Y-197843333D01*
X32986666Y-197976666D01*
X32920000Y-198243333D01*
X32853333Y-198376666D01*
X32786666Y-198443333D01*
X32653333Y-198510000D01*
X32520000Y-198510000D01*
X32386666Y-198443333D01*
X32320000Y-198376666D01*
X32253333Y-198243333D01*
X32253333Y-197910000D01*
X32320000Y-197710000D01*
X33653333Y-197110000D02*
X32253333Y-197110000D01*
X32920000Y-197110000D02*
X32920000Y-196310000D01*
X33653333Y-196310000D02*
X32253333Y-196310000D01*
X33520000Y-194843333D02*
X33586666Y-194910000D01*
X33653333Y-195110000D01*
X33653333Y-195243333D01*
X33586666Y-195443333D01*
X33453333Y-195576666D01*
X33320000Y-195643333D01*
X33053333Y-195710000D01*
X32853333Y-195710000D01*
X32586666Y-195643333D01*
X32453333Y-195576666D01*
X32320000Y-195443333D01*
X32253333Y-195243333D01*
X32253333Y-195110000D01*
X32320000Y-194910000D01*
X32386666Y-194843333D01*
X33120000Y-194243333D02*
X33120000Y-193176666D01*
X32920000Y-192043333D02*
X32986666Y-191843333D01*
X33053333Y-191776666D01*
X33186666Y-191710000D01*
X33386666Y-191710000D01*
X33520000Y-191776666D01*
X33586666Y-191843333D01*
X33653333Y-191976666D01*
X33653333Y-192510000D01*
X32253333Y-192510000D01*
X32253333Y-192043333D01*
X32320000Y-191910000D01*
X32386666Y-191843333D01*
X32520000Y-191776666D01*
X32653333Y-191776666D01*
X32786666Y-191843333D01*
X32853333Y-191910000D01*
X32920000Y-192043333D01*
X32920000Y-192510000D01*
X33120000Y-191110000D02*
X33120000Y-190043333D01*
X33653333Y-188643333D02*
X33653333Y-189443333D01*
X33653333Y-189043333D02*
X32253333Y-189043333D01*
X32453333Y-189176666D01*
X32586666Y-189310000D01*
X32653333Y-189443333D01*
X33253333Y-188110000D02*
X33253333Y-187443333D01*
X33653333Y-188243333D02*
X32253333Y-187776666D01*
X33653333Y-187310000D01*
%TO.C,U1*%
X35128803Y-67909925D02*
X35766224Y-67909925D01*
X35841215Y-67872430D01*
X35878710Y-67834934D01*
X35916205Y-67759944D01*
X35916205Y-67609962D01*
X35878710Y-67534972D01*
X35841215Y-67497476D01*
X35766224Y-67459981D01*
X35128803Y-67459981D01*
X35916205Y-66672579D02*
X35916205Y-67122523D01*
X35916205Y-66897551D02*
X35128803Y-66897551D01*
X35241289Y-66972542D01*
X35316280Y-67047532D01*
X35353775Y-67122523D01*
X32386666Y-112276666D02*
X32320000Y-112210000D01*
X32253333Y-112076666D01*
X32253333Y-111743333D01*
X32320000Y-111610000D01*
X32386666Y-111543333D01*
X32520000Y-111476666D01*
X32653333Y-111476666D01*
X32853333Y-111543333D01*
X33653333Y-112343333D01*
X33653333Y-111476666D01*
X32253333Y-110276666D02*
X32253333Y-110543333D01*
X32320000Y-110676666D01*
X32386666Y-110743333D01*
X32586666Y-110876666D01*
X32853333Y-110943333D01*
X33386666Y-110943333D01*
X33520000Y-110876666D01*
X33586666Y-110810000D01*
X33653333Y-110676666D01*
X33653333Y-110410000D01*
X33586666Y-110276666D01*
X33520000Y-110210000D01*
X33386666Y-110143333D01*
X33053333Y-110143333D01*
X32920000Y-110210000D01*
X32853333Y-110276666D01*
X32786666Y-110410000D01*
X32786666Y-110676666D01*
X32853333Y-110810000D01*
X32920000Y-110876666D01*
X33053333Y-110943333D01*
X33586666Y-109610000D02*
X33653333Y-109410000D01*
X33653333Y-109076666D01*
X33586666Y-108943333D01*
X33520000Y-108876666D01*
X33386666Y-108810000D01*
X33253333Y-108810000D01*
X33120000Y-108876666D01*
X33053333Y-108943333D01*
X32986666Y-109076666D01*
X32920000Y-109343333D01*
X32853333Y-109476666D01*
X32786666Y-109543333D01*
X32653333Y-109610000D01*
X32520000Y-109610000D01*
X32386666Y-109543333D01*
X32320000Y-109476666D01*
X32253333Y-109343333D01*
X32253333Y-109010000D01*
X32320000Y-108810000D01*
X33653333Y-108210000D02*
X32253333Y-108210000D01*
X32920000Y-108210000D02*
X32920000Y-107410000D01*
X33653333Y-107410000D02*
X32253333Y-107410000D01*
X33520000Y-105943333D02*
X33586666Y-106010000D01*
X33653333Y-106210000D01*
X33653333Y-106343333D01*
X33586666Y-106543333D01*
X33453333Y-106676666D01*
X33320000Y-106743333D01*
X33053333Y-106810000D01*
X32853333Y-106810000D01*
X32586666Y-106743333D01*
X32453333Y-106676666D01*
X32320000Y-106543333D01*
X32253333Y-106343333D01*
X32253333Y-106210000D01*
X32320000Y-106010000D01*
X32386666Y-105943333D01*
X33120000Y-105343333D02*
X33120000Y-104276666D01*
X32920000Y-103143333D02*
X32986666Y-102943333D01*
X33053333Y-102876666D01*
X33186666Y-102810000D01*
X33386666Y-102810000D01*
X33520000Y-102876666D01*
X33586666Y-102943333D01*
X33653333Y-103076666D01*
X33653333Y-103610000D01*
X32253333Y-103610000D01*
X32253333Y-103143333D01*
X32320000Y-103010000D01*
X32386666Y-102943333D01*
X32520000Y-102876666D01*
X32653333Y-102876666D01*
X32786666Y-102943333D01*
X32853333Y-103010000D01*
X32920000Y-103143333D01*
X32920000Y-103610000D01*
X33120000Y-102210000D02*
X33120000Y-101143333D01*
X33653333Y-99743333D02*
X33653333Y-100543333D01*
X33653333Y-100143333D02*
X32253333Y-100143333D01*
X32453333Y-100276666D01*
X32586666Y-100410000D01*
X32653333Y-100543333D01*
X33253333Y-99210000D02*
X33253333Y-98543333D01*
X33653333Y-99343333D02*
X32253333Y-98876666D01*
X33653333Y-98410000D01*
%TO.C,J_B7*%
X47045714Y-183892380D02*
X47045714Y-184606666D01*
X46998095Y-184749523D01*
X46902857Y-184844761D01*
X46760000Y-184892380D01*
X46664761Y-184892380D01*
X47283809Y-184987619D02*
X48045714Y-184987619D01*
X48617142Y-184368571D02*
X48760000Y-184416190D01*
X48807619Y-184463809D01*
X48855238Y-184559047D01*
X48855238Y-184701904D01*
X48807619Y-184797142D01*
X48760000Y-184844761D01*
X48664761Y-184892380D01*
X48283809Y-184892380D01*
X48283809Y-183892380D01*
X48617142Y-183892380D01*
X48712380Y-183940000D01*
X48760000Y-183987619D01*
X48807619Y-184082857D01*
X48807619Y-184178095D01*
X48760000Y-184273333D01*
X48712380Y-184320952D01*
X48617142Y-184368571D01*
X48283809Y-184368571D01*
X49188571Y-183892380D02*
X49855238Y-183892380D01*
X49426666Y-184892380D01*
%TO.C,J_B6*%
X38155714Y-183892380D02*
X38155714Y-184606666D01*
X38108095Y-184749523D01*
X38012857Y-184844761D01*
X37870000Y-184892380D01*
X37774761Y-184892380D01*
X38393809Y-184987619D02*
X39155714Y-184987619D01*
X39727142Y-184368571D02*
X39870000Y-184416190D01*
X39917619Y-184463809D01*
X39965238Y-184559047D01*
X39965238Y-184701904D01*
X39917619Y-184797142D01*
X39870000Y-184844761D01*
X39774761Y-184892380D01*
X39393809Y-184892380D01*
X39393809Y-183892380D01*
X39727142Y-183892380D01*
X39822380Y-183940000D01*
X39870000Y-183987619D01*
X39917619Y-184082857D01*
X39917619Y-184178095D01*
X39870000Y-184273333D01*
X39822380Y-184320952D01*
X39727142Y-184368571D01*
X39393809Y-184368571D01*
X40822380Y-183892380D02*
X40631904Y-183892380D01*
X40536666Y-183940000D01*
X40489047Y-183987619D01*
X40393809Y-184130476D01*
X40346190Y-184320952D01*
X40346190Y-184701904D01*
X40393809Y-184797142D01*
X40441428Y-184844761D01*
X40536666Y-184892380D01*
X40727142Y-184892380D01*
X40822380Y-184844761D01*
X40870000Y-184797142D01*
X40917619Y-184701904D01*
X40917619Y-184463809D01*
X40870000Y-184368571D01*
X40822380Y-184320952D01*
X40727142Y-184273333D01*
X40536666Y-184273333D01*
X40441428Y-184320952D01*
X40393809Y-184368571D01*
X40346190Y-184463809D01*
%TO.C,J_B5*%
X47045714Y-175002380D02*
X47045714Y-175716666D01*
X46998095Y-175859523D01*
X46902857Y-175954761D01*
X46760000Y-176002380D01*
X46664761Y-176002380D01*
X47283809Y-176097619D02*
X48045714Y-176097619D01*
X48617142Y-175478571D02*
X48760000Y-175526190D01*
X48807619Y-175573809D01*
X48855238Y-175669047D01*
X48855238Y-175811904D01*
X48807619Y-175907142D01*
X48760000Y-175954761D01*
X48664761Y-176002380D01*
X48283809Y-176002380D01*
X48283809Y-175002380D01*
X48617142Y-175002380D01*
X48712380Y-175050000D01*
X48760000Y-175097619D01*
X48807619Y-175192857D01*
X48807619Y-175288095D01*
X48760000Y-175383333D01*
X48712380Y-175430952D01*
X48617142Y-175478571D01*
X48283809Y-175478571D01*
X49760000Y-175002380D02*
X49283809Y-175002380D01*
X49236190Y-175478571D01*
X49283809Y-175430952D01*
X49379047Y-175383333D01*
X49617142Y-175383333D01*
X49712380Y-175430952D01*
X49760000Y-175478571D01*
X49807619Y-175573809D01*
X49807619Y-175811904D01*
X49760000Y-175907142D01*
X49712380Y-175954761D01*
X49617142Y-176002380D01*
X49379047Y-176002380D01*
X49283809Y-175954761D01*
X49236190Y-175907142D01*
%TO.C,J_B4*%
X38155714Y-175002380D02*
X38155714Y-175716666D01*
X38108095Y-175859523D01*
X38012857Y-175954761D01*
X37870000Y-176002380D01*
X37774761Y-176002380D01*
X38393809Y-176097619D02*
X39155714Y-176097619D01*
X39727142Y-175478571D02*
X39870000Y-175526190D01*
X39917619Y-175573809D01*
X39965238Y-175669047D01*
X39965238Y-175811904D01*
X39917619Y-175907142D01*
X39870000Y-175954761D01*
X39774761Y-176002380D01*
X39393809Y-176002380D01*
X39393809Y-175002380D01*
X39727142Y-175002380D01*
X39822380Y-175050000D01*
X39870000Y-175097619D01*
X39917619Y-175192857D01*
X39917619Y-175288095D01*
X39870000Y-175383333D01*
X39822380Y-175430952D01*
X39727142Y-175478571D01*
X39393809Y-175478571D01*
X40822380Y-175335714D02*
X40822380Y-176002380D01*
X40584285Y-174954761D02*
X40346190Y-175669047D01*
X40965238Y-175669047D01*
%TO.C,J_B3*%
X47045714Y-171192380D02*
X47045714Y-171906666D01*
X46998095Y-172049523D01*
X46902857Y-172144761D01*
X46760000Y-172192380D01*
X46664761Y-172192380D01*
X47283809Y-172287619D02*
X48045714Y-172287619D01*
X48617142Y-171668571D02*
X48760000Y-171716190D01*
X48807619Y-171763809D01*
X48855238Y-171859047D01*
X48855238Y-172001904D01*
X48807619Y-172097142D01*
X48760000Y-172144761D01*
X48664761Y-172192380D01*
X48283809Y-172192380D01*
X48283809Y-171192380D01*
X48617142Y-171192380D01*
X48712380Y-171240000D01*
X48760000Y-171287619D01*
X48807619Y-171382857D01*
X48807619Y-171478095D01*
X48760000Y-171573333D01*
X48712380Y-171620952D01*
X48617142Y-171668571D01*
X48283809Y-171668571D01*
X49188571Y-171192380D02*
X49807619Y-171192380D01*
X49474285Y-171573333D01*
X49617142Y-171573333D01*
X49712380Y-171620952D01*
X49760000Y-171668571D01*
X49807619Y-171763809D01*
X49807619Y-172001904D01*
X49760000Y-172097142D01*
X49712380Y-172144761D01*
X49617142Y-172192380D01*
X49331428Y-172192380D01*
X49236190Y-172144761D01*
X49188571Y-172097142D01*
%TO.C,J_B2*%
X38155714Y-171192380D02*
X38155714Y-171906666D01*
X38108095Y-172049523D01*
X38012857Y-172144761D01*
X37870000Y-172192380D01*
X37774761Y-172192380D01*
X38393809Y-172287619D02*
X39155714Y-172287619D01*
X39727142Y-171668571D02*
X39870000Y-171716190D01*
X39917619Y-171763809D01*
X39965238Y-171859047D01*
X39965238Y-172001904D01*
X39917619Y-172097142D01*
X39870000Y-172144761D01*
X39774761Y-172192380D01*
X39393809Y-172192380D01*
X39393809Y-171192380D01*
X39727142Y-171192380D01*
X39822380Y-171240000D01*
X39870000Y-171287619D01*
X39917619Y-171382857D01*
X39917619Y-171478095D01*
X39870000Y-171573333D01*
X39822380Y-171620952D01*
X39727142Y-171668571D01*
X39393809Y-171668571D01*
X40346190Y-171287619D02*
X40393809Y-171240000D01*
X40489047Y-171192380D01*
X40727142Y-171192380D01*
X40822380Y-171240000D01*
X40870000Y-171287619D01*
X40917619Y-171382857D01*
X40917619Y-171478095D01*
X40870000Y-171620952D01*
X40298571Y-172192380D01*
X40917619Y-172192380D01*
%TO.C,J_B1*%
X47045714Y-164842380D02*
X47045714Y-165556666D01*
X46998095Y-165699523D01*
X46902857Y-165794761D01*
X46760000Y-165842380D01*
X46664761Y-165842380D01*
X47283809Y-165937619D02*
X48045714Y-165937619D01*
X48617142Y-165318571D02*
X48760000Y-165366190D01*
X48807619Y-165413809D01*
X48855238Y-165509047D01*
X48855238Y-165651904D01*
X48807619Y-165747142D01*
X48760000Y-165794761D01*
X48664761Y-165842380D01*
X48283809Y-165842380D01*
X48283809Y-164842380D01*
X48617142Y-164842380D01*
X48712380Y-164890000D01*
X48760000Y-164937619D01*
X48807619Y-165032857D01*
X48807619Y-165128095D01*
X48760000Y-165223333D01*
X48712380Y-165270952D01*
X48617142Y-165318571D01*
X48283809Y-165318571D01*
X49807619Y-165842380D02*
X49236190Y-165842380D01*
X49521904Y-165842380D02*
X49521904Y-164842380D01*
X49426666Y-164985238D01*
X49331428Y-165080476D01*
X49236190Y-165128095D01*
%TO.C,J_A8*%
X47117142Y-89912380D02*
X47117142Y-90626666D01*
X47069523Y-90769523D01*
X46974285Y-90864761D01*
X46831428Y-90912380D01*
X46736190Y-90912380D01*
X47355238Y-91007619D02*
X48117142Y-91007619D01*
X48307619Y-90626666D02*
X48783809Y-90626666D01*
X48212380Y-90912380D02*
X48545714Y-89912380D01*
X48879047Y-90912380D01*
X49355238Y-90340952D02*
X49260000Y-90293333D01*
X49212380Y-90245714D01*
X49164761Y-90150476D01*
X49164761Y-90102857D01*
X49212380Y-90007619D01*
X49260000Y-89960000D01*
X49355238Y-89912380D01*
X49545714Y-89912380D01*
X49640952Y-89960000D01*
X49688571Y-90007619D01*
X49736190Y-90102857D01*
X49736190Y-90150476D01*
X49688571Y-90245714D01*
X49640952Y-90293333D01*
X49545714Y-90340952D01*
X49355238Y-90340952D01*
X49260000Y-90388571D01*
X49212380Y-90436190D01*
X49164761Y-90531428D01*
X49164761Y-90721904D01*
X49212380Y-90817142D01*
X49260000Y-90864761D01*
X49355238Y-90912380D01*
X49545714Y-90912380D01*
X49640952Y-90864761D01*
X49688571Y-90817142D01*
X49736190Y-90721904D01*
X49736190Y-90531428D01*
X49688571Y-90436190D01*
X49640952Y-90388571D01*
X49545714Y-90340952D01*
%TO.C,J_A7*%
X38227142Y-89912380D02*
X38227142Y-90626666D01*
X38179523Y-90769523D01*
X38084285Y-90864761D01*
X37941428Y-90912380D01*
X37846190Y-90912380D01*
X38465238Y-91007619D02*
X39227142Y-91007619D01*
X39417619Y-90626666D02*
X39893809Y-90626666D01*
X39322380Y-90912380D02*
X39655714Y-89912380D01*
X39989047Y-90912380D01*
X40227142Y-89912380D02*
X40893809Y-89912380D01*
X40465238Y-90912380D01*
%TO.C,J_A6*%
X47117142Y-87372380D02*
X47117142Y-88086666D01*
X47069523Y-88229523D01*
X46974285Y-88324761D01*
X46831428Y-88372380D01*
X46736190Y-88372380D01*
X47355238Y-88467619D02*
X48117142Y-88467619D01*
X48307619Y-88086666D02*
X48783809Y-88086666D01*
X48212380Y-88372380D02*
X48545714Y-87372380D01*
X48879047Y-88372380D01*
X49640952Y-87372380D02*
X49450476Y-87372380D01*
X49355238Y-87420000D01*
X49307619Y-87467619D01*
X49212380Y-87610476D01*
X49164761Y-87800952D01*
X49164761Y-88181904D01*
X49212380Y-88277142D01*
X49260000Y-88324761D01*
X49355238Y-88372380D01*
X49545714Y-88372380D01*
X49640952Y-88324761D01*
X49688571Y-88277142D01*
X49736190Y-88181904D01*
X49736190Y-87943809D01*
X49688571Y-87848571D01*
X49640952Y-87800952D01*
X49545714Y-87753333D01*
X49355238Y-87753333D01*
X49260000Y-87800952D01*
X49212380Y-87848571D01*
X49164761Y-87943809D01*
%TO.C,J_A5*%
X38227142Y-87372380D02*
X38227142Y-88086666D01*
X38179523Y-88229523D01*
X38084285Y-88324761D01*
X37941428Y-88372380D01*
X37846190Y-88372380D01*
X38465238Y-88467619D02*
X39227142Y-88467619D01*
X39417619Y-88086666D02*
X39893809Y-88086666D01*
X39322380Y-88372380D02*
X39655714Y-87372380D01*
X39989047Y-88372380D01*
X40798571Y-87372380D02*
X40322380Y-87372380D01*
X40274761Y-87848571D01*
X40322380Y-87800952D01*
X40417619Y-87753333D01*
X40655714Y-87753333D01*
X40750952Y-87800952D01*
X40798571Y-87848571D01*
X40846190Y-87943809D01*
X40846190Y-88181904D01*
X40798571Y-88277142D01*
X40750952Y-88324761D01*
X40655714Y-88372380D01*
X40417619Y-88372380D01*
X40322380Y-88324761D01*
X40274761Y-88277142D01*
%TO.C,J_A4*%
X47117142Y-84832380D02*
X47117142Y-85546666D01*
X47069523Y-85689523D01*
X46974285Y-85784761D01*
X46831428Y-85832380D01*
X46736190Y-85832380D01*
X47355238Y-85927619D02*
X48117142Y-85927619D01*
X48307619Y-85546666D02*
X48783809Y-85546666D01*
X48212380Y-85832380D02*
X48545714Y-84832380D01*
X48879047Y-85832380D01*
X49640952Y-85165714D02*
X49640952Y-85832380D01*
X49402857Y-84784761D02*
X49164761Y-85499047D01*
X49783809Y-85499047D01*
%TO.C,J_A3*%
X38227142Y-84832380D02*
X38227142Y-85546666D01*
X38179523Y-85689523D01*
X38084285Y-85784761D01*
X37941428Y-85832380D01*
X37846190Y-85832380D01*
X38465238Y-85927619D02*
X39227142Y-85927619D01*
X39417619Y-85546666D02*
X39893809Y-85546666D01*
X39322380Y-85832380D02*
X39655714Y-84832380D01*
X39989047Y-85832380D01*
X40227142Y-84832380D02*
X40846190Y-84832380D01*
X40512857Y-85213333D01*
X40655714Y-85213333D01*
X40750952Y-85260952D01*
X40798571Y-85308571D01*
X40846190Y-85403809D01*
X40846190Y-85641904D01*
X40798571Y-85737142D01*
X40750952Y-85784761D01*
X40655714Y-85832380D01*
X40370000Y-85832380D01*
X40274761Y-85784761D01*
X40227142Y-85737142D01*
%TO.C,J_A2*%
X47117142Y-73402380D02*
X47117142Y-74116666D01*
X47069523Y-74259523D01*
X46974285Y-74354761D01*
X46831428Y-74402380D01*
X46736190Y-74402380D01*
X47355238Y-74497619D02*
X48117142Y-74497619D01*
X48307619Y-74116666D02*
X48783809Y-74116666D01*
X48212380Y-74402380D02*
X48545714Y-73402380D01*
X48879047Y-74402380D01*
X49164761Y-73497619D02*
X49212380Y-73450000D01*
X49307619Y-73402380D01*
X49545714Y-73402380D01*
X49640952Y-73450000D01*
X49688571Y-73497619D01*
X49736190Y-73592857D01*
X49736190Y-73688095D01*
X49688571Y-73830952D01*
X49117142Y-74402380D01*
X49736190Y-74402380D01*
%TO.C,J_A1*%
X38227142Y-73402380D02*
X38227142Y-74116666D01*
X38179523Y-74259523D01*
X38084285Y-74354761D01*
X37941428Y-74402380D01*
X37846190Y-74402380D01*
X38465238Y-74497619D02*
X39227142Y-74497619D01*
X39417619Y-74116666D02*
X39893809Y-74116666D01*
X39322380Y-74402380D02*
X39655714Y-73402380D01*
X39989047Y-74402380D01*
X40846190Y-74402380D02*
X40274761Y-74402380D01*
X40560476Y-74402380D02*
X40560476Y-73402380D01*
X40465238Y-73545238D01*
X40370000Y-73640476D01*
X40274761Y-73688095D01*
%TO.C,J_U3_OUT1*%
X107746190Y-159102380D02*
X107746190Y-159816666D01*
X107698571Y-159959523D01*
X107603333Y-160054761D01*
X107460476Y-160102380D01*
X107365238Y-160102380D01*
X107984285Y-160197619D02*
X108746190Y-160197619D01*
X108984285Y-159102380D02*
X108984285Y-159911904D01*
X109031904Y-160007142D01*
X109079523Y-160054761D01*
X109174761Y-160102380D01*
X109365238Y-160102380D01*
X109460476Y-160054761D01*
X109508095Y-160007142D01*
X109555714Y-159911904D01*
X109555714Y-159102380D01*
X109936666Y-159102380D02*
X110555714Y-159102380D01*
X110222380Y-159483333D01*
X110365238Y-159483333D01*
X110460476Y-159530952D01*
X110508095Y-159578571D01*
X110555714Y-159673809D01*
X110555714Y-159911904D01*
X110508095Y-160007142D01*
X110460476Y-160054761D01*
X110365238Y-160102380D01*
X110079523Y-160102380D01*
X109984285Y-160054761D01*
X109936666Y-160007142D01*
X110746190Y-160197619D02*
X111508095Y-160197619D01*
X111936666Y-159102380D02*
X112127142Y-159102380D01*
X112222380Y-159150000D01*
X112317619Y-159245238D01*
X112365238Y-159435714D01*
X112365238Y-159769047D01*
X112317619Y-159959523D01*
X112222380Y-160054761D01*
X112127142Y-160102380D01*
X111936666Y-160102380D01*
X111841428Y-160054761D01*
X111746190Y-159959523D01*
X111698571Y-159769047D01*
X111698571Y-159435714D01*
X111746190Y-159245238D01*
X111841428Y-159150000D01*
X111936666Y-159102380D01*
X112793809Y-159102380D02*
X112793809Y-159911904D01*
X112841428Y-160007142D01*
X112889047Y-160054761D01*
X112984285Y-160102380D01*
X113174761Y-160102380D01*
X113270000Y-160054761D01*
X113317619Y-160007142D01*
X113365238Y-159911904D01*
X113365238Y-159102380D01*
X113698571Y-159102380D02*
X114270000Y-159102380D01*
X113984285Y-160102380D02*
X113984285Y-159102380D01*
X115127142Y-160102380D02*
X114555714Y-160102380D01*
X114841428Y-160102380D02*
X114841428Y-159102380D01*
X114746190Y-159245238D01*
X114650952Y-159340476D01*
X114555714Y-159388095D01*
%TO.C,J_U3_IN1*%
X122832857Y-149002380D02*
X122832857Y-149716666D01*
X122785238Y-149859523D01*
X122690000Y-149954761D01*
X122547142Y-150002380D01*
X122451904Y-150002380D01*
X123070952Y-150097619D02*
X123832857Y-150097619D01*
X124070952Y-149002380D02*
X124070952Y-149811904D01*
X124118571Y-149907142D01*
X124166190Y-149954761D01*
X124261428Y-150002380D01*
X124451904Y-150002380D01*
X124547142Y-149954761D01*
X124594761Y-149907142D01*
X124642380Y-149811904D01*
X124642380Y-149002380D01*
X125023333Y-149002380D02*
X125642380Y-149002380D01*
X125309047Y-149383333D01*
X125451904Y-149383333D01*
X125547142Y-149430952D01*
X125594761Y-149478571D01*
X125642380Y-149573809D01*
X125642380Y-149811904D01*
X125594761Y-149907142D01*
X125547142Y-149954761D01*
X125451904Y-150002380D01*
X125166190Y-150002380D01*
X125070952Y-149954761D01*
X125023333Y-149907142D01*
X125832857Y-150097619D02*
X126594761Y-150097619D01*
X126832857Y-150002380D02*
X126832857Y-149002380D01*
X127309047Y-150002380D02*
X127309047Y-149002380D01*
X127880476Y-150002380D01*
X127880476Y-149002380D01*
X128880476Y-150002380D02*
X128309047Y-150002380D01*
X128594761Y-150002380D02*
X128594761Y-149002380D01*
X128499523Y-149145238D01*
X128404285Y-149240476D01*
X128309047Y-149288095D01*
%TO.C,J_U3_GNDOUT1*%
X149342380Y-122802380D02*
X149342380Y-123516666D01*
X149294761Y-123659523D01*
X149199523Y-123754761D01*
X149056666Y-123802380D01*
X148961428Y-123802380D01*
X149580476Y-123897619D02*
X150342380Y-123897619D01*
X150580476Y-122802380D02*
X150580476Y-123611904D01*
X150628095Y-123707142D01*
X150675714Y-123754761D01*
X150770952Y-123802380D01*
X150961428Y-123802380D01*
X151056666Y-123754761D01*
X151104285Y-123707142D01*
X151151904Y-123611904D01*
X151151904Y-122802380D01*
X151532857Y-122802380D02*
X152151904Y-122802380D01*
X151818571Y-123183333D01*
X151961428Y-123183333D01*
X152056666Y-123230952D01*
X152104285Y-123278571D01*
X152151904Y-123373809D01*
X152151904Y-123611904D01*
X152104285Y-123707142D01*
X152056666Y-123754761D01*
X151961428Y-123802380D01*
X151675714Y-123802380D01*
X151580476Y-123754761D01*
X151532857Y-123707142D01*
X152342380Y-123897619D02*
X153104285Y-123897619D01*
X153866190Y-122850000D02*
X153770952Y-122802380D01*
X153628095Y-122802380D01*
X153485238Y-122850000D01*
X153390000Y-122945238D01*
X153342380Y-123040476D01*
X153294761Y-123230952D01*
X153294761Y-123373809D01*
X153342380Y-123564285D01*
X153390000Y-123659523D01*
X153485238Y-123754761D01*
X153628095Y-123802380D01*
X153723333Y-123802380D01*
X153866190Y-123754761D01*
X153913809Y-123707142D01*
X153913809Y-123373809D01*
X153723333Y-123373809D01*
X154342380Y-123802380D02*
X154342380Y-122802380D01*
X154913809Y-123802380D01*
X154913809Y-122802380D01*
X155390000Y-123802380D02*
X155390000Y-122802380D01*
X155628095Y-122802380D01*
X155770952Y-122850000D01*
X155866190Y-122945238D01*
X155913809Y-123040476D01*
X155961428Y-123230952D01*
X155961428Y-123373809D01*
X155913809Y-123564285D01*
X155866190Y-123659523D01*
X155770952Y-123754761D01*
X155628095Y-123802380D01*
X155390000Y-123802380D01*
X156580476Y-122802380D02*
X156770952Y-122802380D01*
X156866190Y-122850000D01*
X156961428Y-122945238D01*
X157009047Y-123135714D01*
X157009047Y-123469047D01*
X156961428Y-123659523D01*
X156866190Y-123754761D01*
X156770952Y-123802380D01*
X156580476Y-123802380D01*
X156485238Y-123754761D01*
X156390000Y-123659523D01*
X156342380Y-123469047D01*
X156342380Y-123135714D01*
X156390000Y-122945238D01*
X156485238Y-122850000D01*
X156580476Y-122802380D01*
X157437619Y-122802380D02*
X157437619Y-123611904D01*
X157485238Y-123707142D01*
X157532857Y-123754761D01*
X157628095Y-123802380D01*
X157818571Y-123802380D01*
X157913809Y-123754761D01*
X157961428Y-123707142D01*
X158009047Y-123611904D01*
X158009047Y-122802380D01*
X158342380Y-122802380D02*
X158913809Y-122802380D01*
X158628095Y-123802380D02*
X158628095Y-122802380D01*
X159770952Y-123802380D02*
X159199523Y-123802380D01*
X159485238Y-123802380D02*
X159485238Y-122802380D01*
X159390000Y-122945238D01*
X159294761Y-123040476D01*
X159199523Y-123088095D01*
%TO.C,J_U3_GNDIN1*%
X121309047Y-154952380D02*
X121309047Y-155666666D01*
X121261428Y-155809523D01*
X121166190Y-155904761D01*
X121023333Y-155952380D01*
X120928095Y-155952380D01*
X121547142Y-156047619D02*
X122309047Y-156047619D01*
X122547142Y-154952380D02*
X122547142Y-155761904D01*
X122594761Y-155857142D01*
X122642380Y-155904761D01*
X122737619Y-155952380D01*
X122928095Y-155952380D01*
X123023333Y-155904761D01*
X123070952Y-155857142D01*
X123118571Y-155761904D01*
X123118571Y-154952380D01*
X123499523Y-154952380D02*
X124118571Y-154952380D01*
X123785238Y-155333333D01*
X123928095Y-155333333D01*
X124023333Y-155380952D01*
X124070952Y-155428571D01*
X124118571Y-155523809D01*
X124118571Y-155761904D01*
X124070952Y-155857142D01*
X124023333Y-155904761D01*
X123928095Y-155952380D01*
X123642380Y-155952380D01*
X123547142Y-155904761D01*
X123499523Y-155857142D01*
X124309047Y-156047619D02*
X125070952Y-156047619D01*
X125832857Y-155000000D02*
X125737619Y-154952380D01*
X125594761Y-154952380D01*
X125451904Y-155000000D01*
X125356666Y-155095238D01*
X125309047Y-155190476D01*
X125261428Y-155380952D01*
X125261428Y-155523809D01*
X125309047Y-155714285D01*
X125356666Y-155809523D01*
X125451904Y-155904761D01*
X125594761Y-155952380D01*
X125690000Y-155952380D01*
X125832857Y-155904761D01*
X125880476Y-155857142D01*
X125880476Y-155523809D01*
X125690000Y-155523809D01*
X126309047Y-155952380D02*
X126309047Y-154952380D01*
X126880476Y-155952380D01*
X126880476Y-154952380D01*
X127356666Y-155952380D02*
X127356666Y-154952380D01*
X127594761Y-154952380D01*
X127737619Y-155000000D01*
X127832857Y-155095238D01*
X127880476Y-155190476D01*
X127928095Y-155380952D01*
X127928095Y-155523809D01*
X127880476Y-155714285D01*
X127832857Y-155809523D01*
X127737619Y-155904761D01*
X127594761Y-155952380D01*
X127356666Y-155952380D01*
X128356666Y-155952380D02*
X128356666Y-154952380D01*
X128832857Y-155952380D02*
X128832857Y-154952380D01*
X129404285Y-155952380D01*
X129404285Y-154952380D01*
X130404285Y-155952380D02*
X129832857Y-155952380D01*
X130118571Y-155952380D02*
X130118571Y-154952380D01*
X130023333Y-155095238D01*
X129928095Y-155190476D01*
X129832857Y-155238095D01*
%TO.C,J_B12*%
X116029523Y-159102380D02*
X116029523Y-159816666D01*
X115981904Y-159959523D01*
X115886666Y-160054761D01*
X115743809Y-160102380D01*
X115648571Y-160102380D01*
X116267619Y-160197619D02*
X117029523Y-160197619D01*
X117600952Y-159578571D02*
X117743809Y-159626190D01*
X117791428Y-159673809D01*
X117839047Y-159769047D01*
X117839047Y-159911904D01*
X117791428Y-160007142D01*
X117743809Y-160054761D01*
X117648571Y-160102380D01*
X117267619Y-160102380D01*
X117267619Y-159102380D01*
X117600952Y-159102380D01*
X117696190Y-159150000D01*
X117743809Y-159197619D01*
X117791428Y-159292857D01*
X117791428Y-159388095D01*
X117743809Y-159483333D01*
X117696190Y-159530952D01*
X117600952Y-159578571D01*
X117267619Y-159578571D01*
X118791428Y-160102380D02*
X118220000Y-160102380D01*
X118505714Y-160102380D02*
X118505714Y-159102380D01*
X118410476Y-159245238D01*
X118315238Y-159340476D01*
X118220000Y-159388095D01*
X119172380Y-159197619D02*
X119220000Y-159150000D01*
X119315238Y-159102380D01*
X119553333Y-159102380D01*
X119648571Y-159150000D01*
X119696190Y-159197619D01*
X119743809Y-159292857D01*
X119743809Y-159388095D01*
X119696190Y-159530952D01*
X119124761Y-160102380D01*
X119743809Y-160102380D01*
%TO.C,J_B11*%
X146249523Y-122802380D02*
X146249523Y-123516666D01*
X146201904Y-123659523D01*
X146106666Y-123754761D01*
X145963809Y-123802380D01*
X145868571Y-123802380D01*
X146487619Y-123897619D02*
X147249523Y-123897619D01*
X147820952Y-123278571D02*
X147963809Y-123326190D01*
X148011428Y-123373809D01*
X148059047Y-123469047D01*
X148059047Y-123611904D01*
X148011428Y-123707142D01*
X147963809Y-123754761D01*
X147868571Y-123802380D01*
X147487619Y-123802380D01*
X147487619Y-122802380D01*
X147820952Y-122802380D01*
X147916190Y-122850000D01*
X147963809Y-122897619D01*
X148011428Y-122992857D01*
X148011428Y-123088095D01*
X147963809Y-123183333D01*
X147916190Y-123230952D01*
X147820952Y-123278571D01*
X147487619Y-123278571D01*
X149011428Y-123802380D02*
X148440000Y-123802380D01*
X148725714Y-123802380D02*
X148725714Y-122802380D01*
X148630476Y-122945238D01*
X148535238Y-123040476D01*
X148440000Y-123088095D01*
X149963809Y-123802380D02*
X149392380Y-123802380D01*
X149678095Y-123802380D02*
X149678095Y-122802380D01*
X149582857Y-122945238D01*
X149487619Y-123040476D01*
X149392380Y-123088095D01*
%TO.C,J_B10*%
X136149523Y-140952380D02*
X136149523Y-141666666D01*
X136101904Y-141809523D01*
X136006666Y-141904761D01*
X135863809Y-141952380D01*
X135768571Y-141952380D01*
X136387619Y-142047619D02*
X137149523Y-142047619D01*
X137720952Y-141428571D02*
X137863809Y-141476190D01*
X137911428Y-141523809D01*
X137959047Y-141619047D01*
X137959047Y-141761904D01*
X137911428Y-141857142D01*
X137863809Y-141904761D01*
X137768571Y-141952380D01*
X137387619Y-141952380D01*
X137387619Y-140952380D01*
X137720952Y-140952380D01*
X137816190Y-141000000D01*
X137863809Y-141047619D01*
X137911428Y-141142857D01*
X137911428Y-141238095D01*
X137863809Y-141333333D01*
X137816190Y-141380952D01*
X137720952Y-141428571D01*
X137387619Y-141428571D01*
X138911428Y-141952380D02*
X138340000Y-141952380D01*
X138625714Y-141952380D02*
X138625714Y-140952380D01*
X138530476Y-141095238D01*
X138435238Y-141190476D01*
X138340000Y-141238095D01*
X139530476Y-140952380D02*
X139625714Y-140952380D01*
X139720952Y-141000000D01*
X139768571Y-141047619D01*
X139816190Y-141142857D01*
X139863809Y-141333333D01*
X139863809Y-141571428D01*
X139816190Y-141761904D01*
X139768571Y-141857142D01*
X139720952Y-141904761D01*
X139625714Y-141952380D01*
X139530476Y-141952380D01*
X139435238Y-141904761D01*
X139387619Y-141857142D01*
X139340000Y-141761904D01*
X139292380Y-141571428D01*
X139292380Y-141333333D01*
X139340000Y-141142857D01*
X139387619Y-141047619D01*
X139435238Y-141000000D01*
X139530476Y-140952380D01*
%TO.C,J_B9*%
X146725714Y-128752380D02*
X146725714Y-129466666D01*
X146678095Y-129609523D01*
X146582857Y-129704761D01*
X146440000Y-129752380D01*
X146344761Y-129752380D01*
X146963809Y-129847619D02*
X147725714Y-129847619D01*
X148297142Y-129228571D02*
X148440000Y-129276190D01*
X148487619Y-129323809D01*
X148535238Y-129419047D01*
X148535238Y-129561904D01*
X148487619Y-129657142D01*
X148440000Y-129704761D01*
X148344761Y-129752380D01*
X147963809Y-129752380D01*
X147963809Y-128752380D01*
X148297142Y-128752380D01*
X148392380Y-128800000D01*
X148440000Y-128847619D01*
X148487619Y-128942857D01*
X148487619Y-129038095D01*
X148440000Y-129133333D01*
X148392380Y-129180952D01*
X148297142Y-129228571D01*
X147963809Y-129228571D01*
X149011428Y-129752380D02*
X149201904Y-129752380D01*
X149297142Y-129704761D01*
X149344761Y-129657142D01*
X149440000Y-129514285D01*
X149487619Y-129323809D01*
X149487619Y-128942857D01*
X149440000Y-128847619D01*
X149392380Y-128800000D01*
X149297142Y-128752380D01*
X149106666Y-128752380D01*
X149011428Y-128800000D01*
X148963809Y-128847619D01*
X148916190Y-128942857D01*
X148916190Y-129180952D01*
X148963809Y-129276190D01*
X149011428Y-129323809D01*
X149106666Y-129371428D01*
X149297142Y-129371428D01*
X149392380Y-129323809D01*
X149440000Y-129276190D01*
X149487619Y-129180952D01*
%TO.C,J_B8*%
X110055714Y-165052380D02*
X110055714Y-165766666D01*
X110008095Y-165909523D01*
X109912857Y-166004761D01*
X109770000Y-166052380D01*
X109674761Y-166052380D01*
X110293809Y-166147619D02*
X111055714Y-166147619D01*
X111627142Y-165528571D02*
X111770000Y-165576190D01*
X111817619Y-165623809D01*
X111865238Y-165719047D01*
X111865238Y-165861904D01*
X111817619Y-165957142D01*
X111770000Y-166004761D01*
X111674761Y-166052380D01*
X111293809Y-166052380D01*
X111293809Y-165052380D01*
X111627142Y-165052380D01*
X111722380Y-165100000D01*
X111770000Y-165147619D01*
X111817619Y-165242857D01*
X111817619Y-165338095D01*
X111770000Y-165433333D01*
X111722380Y-165480952D01*
X111627142Y-165528571D01*
X111293809Y-165528571D01*
X112436666Y-165480952D02*
X112341428Y-165433333D01*
X112293809Y-165385714D01*
X112246190Y-165290476D01*
X112246190Y-165242857D01*
X112293809Y-165147619D01*
X112341428Y-165100000D01*
X112436666Y-165052380D01*
X112627142Y-165052380D01*
X112722380Y-165100000D01*
X112770000Y-165147619D01*
X112817619Y-165242857D01*
X112817619Y-165290476D01*
X112770000Y-165385714D01*
X112722380Y-165433333D01*
X112627142Y-165480952D01*
X112436666Y-165480952D01*
X112341428Y-165528571D01*
X112293809Y-165576190D01*
X112246190Y-165671428D01*
X112246190Y-165861904D01*
X112293809Y-165957142D01*
X112341428Y-166004761D01*
X112436666Y-166052380D01*
X112627142Y-166052380D01*
X112722380Y-166004761D01*
X112770000Y-165957142D01*
X112817619Y-165861904D01*
X112817619Y-165671428D01*
X112770000Y-165576190D01*
X112722380Y-165528571D01*
X112627142Y-165480952D01*
%TO.C,JP3*%
X164266666Y-127192380D02*
X164266666Y-127906666D01*
X164219047Y-128049523D01*
X164123809Y-128144761D01*
X163980952Y-128192380D01*
X163885714Y-128192380D01*
X164742857Y-128192380D02*
X164742857Y-127192380D01*
X165123809Y-127192380D01*
X165219047Y-127240000D01*
X165266666Y-127287619D01*
X165314285Y-127382857D01*
X165314285Y-127525714D01*
X165266666Y-127620952D01*
X165219047Y-127668571D01*
X165123809Y-127716190D01*
X164742857Y-127716190D01*
X165647619Y-127192380D02*
X166266666Y-127192380D01*
X165933333Y-127573333D01*
X166076190Y-127573333D01*
X166171428Y-127620952D01*
X166219047Y-127668571D01*
X166266666Y-127763809D01*
X166266666Y-128001904D01*
X166219047Y-128097142D01*
X166171428Y-128144761D01*
X166076190Y-128192380D01*
X165790476Y-128192380D01*
X165695238Y-128144761D01*
X165647619Y-128097142D01*
%TO.C,U4*%
X127778095Y-140082380D02*
X127778095Y-140891904D01*
X127825714Y-140987142D01*
X127873333Y-141034761D01*
X127968571Y-141082380D01*
X128159047Y-141082380D01*
X128254285Y-141034761D01*
X128301904Y-140987142D01*
X128349523Y-140891904D01*
X128349523Y-140082380D01*
X129254285Y-140415714D02*
X129254285Y-141082380D01*
X129016190Y-140034761D02*
X128778095Y-140749047D01*
X129397142Y-140749047D01*
%TO.C,U3*%
X86288095Y-156732380D02*
X86288095Y-157541904D01*
X86335714Y-157637142D01*
X86383333Y-157684761D01*
X86478571Y-157732380D01*
X86669047Y-157732380D01*
X86764285Y-157684761D01*
X86811904Y-157637142D01*
X86859523Y-157541904D01*
X86859523Y-156732380D01*
X87240476Y-156732380D02*
X87859523Y-156732380D01*
X87526190Y-157113333D01*
X87669047Y-157113333D01*
X87764285Y-157160952D01*
X87811904Y-157208571D01*
X87859523Y-157303809D01*
X87859523Y-157541904D01*
X87811904Y-157637142D01*
X87764285Y-157684761D01*
X87669047Y-157732380D01*
X87383333Y-157732380D01*
X87288095Y-157684761D01*
X87240476Y-157637142D01*
%TO.C,R10*%
X142797142Y-144392380D02*
X142463809Y-143916190D01*
X142225714Y-144392380D02*
X142225714Y-143392380D01*
X142606666Y-143392380D01*
X142701904Y-143440000D01*
X142749523Y-143487619D01*
X142797142Y-143582857D01*
X142797142Y-143725714D01*
X142749523Y-143820952D01*
X142701904Y-143868571D01*
X142606666Y-143916190D01*
X142225714Y-143916190D01*
X143749523Y-144392380D02*
X143178095Y-144392380D01*
X143463809Y-144392380D02*
X143463809Y-143392380D01*
X143368571Y-143535238D01*
X143273333Y-143630476D01*
X143178095Y-143678095D01*
X144368571Y-143392380D02*
X144463809Y-143392380D01*
X144559047Y-143440000D01*
X144606666Y-143487619D01*
X144654285Y-143582857D01*
X144701904Y-143773333D01*
X144701904Y-144011428D01*
X144654285Y-144201904D01*
X144606666Y-144297142D01*
X144559047Y-144344761D01*
X144463809Y-144392380D01*
X144368571Y-144392380D01*
X144273333Y-144344761D01*
X144225714Y-144297142D01*
X144178095Y-144201904D01*
X144130476Y-144011428D01*
X144130476Y-143773333D01*
X144178095Y-143582857D01*
X144225714Y-143487619D01*
X144273333Y-143440000D01*
X144368571Y-143392380D01*
%TO.C,R9*%
X159823333Y-126242380D02*
X159490000Y-125766190D01*
X159251904Y-126242380D02*
X159251904Y-125242380D01*
X159632857Y-125242380D01*
X159728095Y-125290000D01*
X159775714Y-125337619D01*
X159823333Y-125432857D01*
X159823333Y-125575714D01*
X159775714Y-125670952D01*
X159728095Y-125718571D01*
X159632857Y-125766190D01*
X159251904Y-125766190D01*
X160299523Y-126242380D02*
X160490000Y-126242380D01*
X160585238Y-126194761D01*
X160632857Y-126147142D01*
X160728095Y-126004285D01*
X160775714Y-125813809D01*
X160775714Y-125432857D01*
X160728095Y-125337619D01*
X160680476Y-125290000D01*
X160585238Y-125242380D01*
X160394761Y-125242380D01*
X160299523Y-125290000D01*
X160251904Y-125337619D01*
X160204285Y-125432857D01*
X160204285Y-125670952D01*
X160251904Y-125766190D01*
X160299523Y-125813809D01*
X160394761Y-125861428D01*
X160585238Y-125861428D01*
X160680476Y-125813809D01*
X160728095Y-125766190D01*
X160775714Y-125670952D01*
%TO.C,R8*%
X151733333Y-135142380D02*
X151400000Y-134666190D01*
X151161904Y-135142380D02*
X151161904Y-134142380D01*
X151542857Y-134142380D01*
X151638095Y-134190000D01*
X151685714Y-134237619D01*
X151733333Y-134332857D01*
X151733333Y-134475714D01*
X151685714Y-134570952D01*
X151638095Y-134618571D01*
X151542857Y-134666190D01*
X151161904Y-134666190D01*
X152304761Y-134570952D02*
X152209523Y-134523333D01*
X152161904Y-134475714D01*
X152114285Y-134380476D01*
X152114285Y-134332857D01*
X152161904Y-134237619D01*
X152209523Y-134190000D01*
X152304761Y-134142380D01*
X152495238Y-134142380D01*
X152590476Y-134190000D01*
X152638095Y-134237619D01*
X152685714Y-134332857D01*
X152685714Y-134380476D01*
X152638095Y-134475714D01*
X152590476Y-134523333D01*
X152495238Y-134570952D01*
X152304761Y-134570952D01*
X152209523Y-134618571D01*
X152161904Y-134666190D01*
X152114285Y-134761428D01*
X152114285Y-134951904D01*
X152161904Y-135047142D01*
X152209523Y-135094761D01*
X152304761Y-135142380D01*
X152495238Y-135142380D01*
X152590476Y-135094761D01*
X152638095Y-135047142D01*
X152685714Y-134951904D01*
X152685714Y-134761428D01*
X152638095Y-134666190D01*
X152590476Y-134618571D01*
X152495238Y-134570952D01*
%TO.C,R7*%
X123153333Y-164342380D02*
X122820000Y-163866190D01*
X122581904Y-164342380D02*
X122581904Y-163342380D01*
X122962857Y-163342380D01*
X123058095Y-163390000D01*
X123105714Y-163437619D01*
X123153333Y-163532857D01*
X123153333Y-163675714D01*
X123105714Y-163770952D01*
X123058095Y-163818571D01*
X122962857Y-163866190D01*
X122581904Y-163866190D01*
X123486666Y-163342380D02*
X124153333Y-163342380D01*
X123724761Y-164342380D01*
%TO.C,R6*%
X131123333Y-153882380D02*
X130790000Y-153406190D01*
X130551904Y-153882380D02*
X130551904Y-152882380D01*
X130932857Y-152882380D01*
X131028095Y-152930000D01*
X131075714Y-152977619D01*
X131123333Y-153072857D01*
X131123333Y-153215714D01*
X131075714Y-153310952D01*
X131028095Y-153358571D01*
X130932857Y-153406190D01*
X130551904Y-153406190D01*
X131980476Y-152882380D02*
X131790000Y-152882380D01*
X131694761Y-152930000D01*
X131647142Y-152977619D01*
X131551904Y-153120476D01*
X131504285Y-153310952D01*
X131504285Y-153691904D01*
X131551904Y-153787142D01*
X131599523Y-153834761D01*
X131694761Y-153882380D01*
X131885238Y-153882380D01*
X131980476Y-153834761D01*
X132028095Y-153787142D01*
X132075714Y-153691904D01*
X132075714Y-153453809D01*
X132028095Y-153358571D01*
X131980476Y-153310952D01*
X131885238Y-153263333D01*
X131694761Y-153263333D01*
X131599523Y-153310952D01*
X131551904Y-153358571D01*
X131504285Y-153453809D01*
%TO.C,R5*%
X136013333Y-151782380D02*
X135680000Y-151306190D01*
X135441904Y-151782380D02*
X135441904Y-150782380D01*
X135822857Y-150782380D01*
X135918095Y-150830000D01*
X135965714Y-150877619D01*
X136013333Y-150972857D01*
X136013333Y-151115714D01*
X135965714Y-151210952D01*
X135918095Y-151258571D01*
X135822857Y-151306190D01*
X135441904Y-151306190D01*
X136918095Y-150782380D02*
X136441904Y-150782380D01*
X136394285Y-151258571D01*
X136441904Y-151210952D01*
X136537142Y-151163333D01*
X136775238Y-151163333D01*
X136870476Y-151210952D01*
X136918095Y-151258571D01*
X136965714Y-151353809D01*
X136965714Y-151591904D01*
X136918095Y-151687142D01*
X136870476Y-151734761D01*
X136775238Y-151782380D01*
X136537142Y-151782380D01*
X136441904Y-151734761D01*
X136394285Y-151687142D01*
%TO.C,R4*%
X131123333Y-156832380D02*
X130790000Y-156356190D01*
X130551904Y-156832380D02*
X130551904Y-155832380D01*
X130932857Y-155832380D01*
X131028095Y-155880000D01*
X131075714Y-155927619D01*
X131123333Y-156022857D01*
X131123333Y-156165714D01*
X131075714Y-156260952D01*
X131028095Y-156308571D01*
X130932857Y-156356190D01*
X130551904Y-156356190D01*
X131980476Y-156165714D02*
X131980476Y-156832380D01*
X131742380Y-155784761D02*
X131504285Y-156499047D01*
X132123333Y-156499047D01*
%TO.C,R3*%
X153373333Y-132192380D02*
X153040000Y-131716190D01*
X152801904Y-132192380D02*
X152801904Y-131192380D01*
X153182857Y-131192380D01*
X153278095Y-131240000D01*
X153325714Y-131287619D01*
X153373333Y-131382857D01*
X153373333Y-131525714D01*
X153325714Y-131620952D01*
X153278095Y-131668571D01*
X153182857Y-131716190D01*
X152801904Y-131716190D01*
X153706666Y-131192380D02*
X154325714Y-131192380D01*
X153992380Y-131573333D01*
X154135238Y-131573333D01*
X154230476Y-131620952D01*
X154278095Y-131668571D01*
X154325714Y-131763809D01*
X154325714Y-132001904D01*
X154278095Y-132097142D01*
X154230476Y-132144761D01*
X154135238Y-132192380D01*
X153849523Y-132192380D01*
X153754285Y-132144761D01*
X153706666Y-132097142D01*
%TO.C,R2*%
X118213333Y-186762380D02*
X117880000Y-186286190D01*
X117641904Y-186762380D02*
X117641904Y-185762380D01*
X118022857Y-185762380D01*
X118118095Y-185810000D01*
X118165714Y-185857619D01*
X118213333Y-185952857D01*
X118213333Y-186095714D01*
X118165714Y-186190952D01*
X118118095Y-186238571D01*
X118022857Y-186286190D01*
X117641904Y-186286190D01*
X118594285Y-185857619D02*
X118641904Y-185810000D01*
X118737142Y-185762380D01*
X118975238Y-185762380D01*
X119070476Y-185810000D01*
X119118095Y-185857619D01*
X119165714Y-185952857D01*
X119165714Y-186048095D01*
X119118095Y-186190952D01*
X118546666Y-186762380D01*
X119165714Y-186762380D01*
%TO.C,R1*%
X146923333Y-138142380D02*
X146590000Y-137666190D01*
X146351904Y-138142380D02*
X146351904Y-137142380D01*
X146732857Y-137142380D01*
X146828095Y-137190000D01*
X146875714Y-137237619D01*
X146923333Y-137332857D01*
X146923333Y-137475714D01*
X146875714Y-137570952D01*
X146828095Y-137618571D01*
X146732857Y-137666190D01*
X146351904Y-137666190D01*
X147875714Y-138142380D02*
X147304285Y-138142380D01*
X147590000Y-138142380D02*
X147590000Y-137142380D01*
X147494761Y-137285238D01*
X147399523Y-137380476D01*
X147304285Y-137428095D01*
%TO.C,Q3*%
X131264761Y-149527619D02*
X131169523Y-149480000D01*
X131074285Y-149384761D01*
X130931428Y-149241904D01*
X130836190Y-149194285D01*
X130740952Y-149194285D01*
X130788571Y-149432380D02*
X130693333Y-149384761D01*
X130598095Y-149289523D01*
X130550476Y-149099047D01*
X130550476Y-148765714D01*
X130598095Y-148575238D01*
X130693333Y-148480000D01*
X130788571Y-148432380D01*
X130979047Y-148432380D01*
X131074285Y-148480000D01*
X131169523Y-148575238D01*
X131217142Y-148765714D01*
X131217142Y-149099047D01*
X131169523Y-149289523D01*
X131074285Y-149384761D01*
X130979047Y-149432380D01*
X130788571Y-149432380D01*
X131550476Y-148432380D02*
X132169523Y-148432380D01*
X131836190Y-148813333D01*
X131979047Y-148813333D01*
X132074285Y-148860952D01*
X132121904Y-148908571D01*
X132169523Y-149003809D01*
X132169523Y-149241904D01*
X132121904Y-149337142D01*
X132074285Y-149384761D01*
X131979047Y-149432380D01*
X131693333Y-149432380D01*
X131598095Y-149384761D01*
X131550476Y-149337142D01*
%TO.C,Q2*%
X101874761Y-159327619D02*
X101779523Y-159280000D01*
X101684285Y-159184761D01*
X101541428Y-159041904D01*
X101446190Y-158994285D01*
X101350952Y-158994285D01*
X101398571Y-159232380D02*
X101303333Y-159184761D01*
X101208095Y-159089523D01*
X101160476Y-158899047D01*
X101160476Y-158565714D01*
X101208095Y-158375238D01*
X101303333Y-158280000D01*
X101398571Y-158232380D01*
X101589047Y-158232380D01*
X101684285Y-158280000D01*
X101779523Y-158375238D01*
X101827142Y-158565714D01*
X101827142Y-158899047D01*
X101779523Y-159089523D01*
X101684285Y-159184761D01*
X101589047Y-159232380D01*
X101398571Y-159232380D01*
X102208095Y-158327619D02*
X102255714Y-158280000D01*
X102350952Y-158232380D01*
X102589047Y-158232380D01*
X102684285Y-158280000D01*
X102731904Y-158327619D01*
X102779523Y-158422857D01*
X102779523Y-158518095D01*
X102731904Y-158660952D01*
X102160476Y-159232380D01*
X102779523Y-159232380D01*
%TO.C,Q1*%
X136964761Y-147427619D02*
X136869523Y-147380000D01*
X136774285Y-147284761D01*
X136631428Y-147141904D01*
X136536190Y-147094285D01*
X136440952Y-147094285D01*
X136488571Y-147332380D02*
X136393333Y-147284761D01*
X136298095Y-147189523D01*
X136250476Y-146999047D01*
X136250476Y-146665714D01*
X136298095Y-146475238D01*
X136393333Y-146380000D01*
X136488571Y-146332380D01*
X136679047Y-146332380D01*
X136774285Y-146380000D01*
X136869523Y-146475238D01*
X136917142Y-146665714D01*
X136917142Y-146999047D01*
X136869523Y-147189523D01*
X136774285Y-147284761D01*
X136679047Y-147332380D01*
X136488571Y-147332380D01*
X137869523Y-147332380D02*
X137298095Y-147332380D01*
X137583809Y-147332380D02*
X137583809Y-146332380D01*
X137488571Y-146475238D01*
X137393333Y-146570476D01*
X137298095Y-146618095D01*
%TO.C,L1*%
X89163333Y-122842380D02*
X88687142Y-122842380D01*
X88687142Y-121842380D01*
X90020476Y-122842380D02*
X89449047Y-122842380D01*
X89734761Y-122842380D02*
X89734761Y-121842380D01*
X89639523Y-121985238D01*
X89544285Y-122080476D01*
X89449047Y-122128095D01*
%TO.C,JP2*%
X163766666Y-122382380D02*
X163766666Y-123096666D01*
X163719047Y-123239523D01*
X163623809Y-123334761D01*
X163480952Y-123382380D01*
X163385714Y-123382380D01*
X164242857Y-123382380D02*
X164242857Y-122382380D01*
X164623809Y-122382380D01*
X164719047Y-122430000D01*
X164766666Y-122477619D01*
X164814285Y-122572857D01*
X164814285Y-122715714D01*
X164766666Y-122810952D01*
X164719047Y-122858571D01*
X164623809Y-122906190D01*
X164242857Y-122906190D01*
X165195238Y-122477619D02*
X165242857Y-122430000D01*
X165338095Y-122382380D01*
X165576190Y-122382380D01*
X165671428Y-122430000D01*
X165719047Y-122477619D01*
X165766666Y-122572857D01*
X165766666Y-122668095D01*
X165719047Y-122810952D01*
X165147619Y-123382380D01*
X165766666Y-123382380D01*
%TO.C,JP1*%
X157316666Y-128342380D02*
X157316666Y-129056666D01*
X157269047Y-129199523D01*
X157173809Y-129294761D01*
X157030952Y-129342380D01*
X156935714Y-129342380D01*
X157792857Y-129342380D02*
X157792857Y-128342380D01*
X158173809Y-128342380D01*
X158269047Y-128390000D01*
X158316666Y-128437619D01*
X158364285Y-128532857D01*
X158364285Y-128675714D01*
X158316666Y-128770952D01*
X158269047Y-128818571D01*
X158173809Y-128866190D01*
X157792857Y-128866190D01*
X159316666Y-129342380D02*
X158745238Y-129342380D01*
X159030952Y-129342380D02*
X159030952Y-128342380D01*
X158935714Y-128485238D01*
X158840476Y-128580476D01*
X158745238Y-128628095D01*
%TO.C,F_SEC1*%
X32227142Y-120928571D02*
X31893809Y-120928571D01*
X31893809Y-121452380D02*
X31893809Y-120452380D01*
X32369999Y-120452380D01*
X32512857Y-121547619D02*
X33274761Y-121547619D01*
X33465238Y-121404761D02*
X33608095Y-121452380D01*
X33846190Y-121452380D01*
X33941428Y-121404761D01*
X33989047Y-121357142D01*
X34036666Y-121261904D01*
X34036666Y-121166666D01*
X33989047Y-121071428D01*
X33941428Y-121023809D01*
X33846190Y-120976190D01*
X33655714Y-120928571D01*
X33560476Y-120880952D01*
X33512857Y-120833333D01*
X33465238Y-120738095D01*
X33465238Y-120642857D01*
X33512857Y-120547619D01*
X33560476Y-120500000D01*
X33655714Y-120452380D01*
X33893809Y-120452380D01*
X34036666Y-120500000D01*
X34465238Y-120928571D02*
X34798571Y-120928571D01*
X34941428Y-121452380D02*
X34465238Y-121452380D01*
X34465238Y-120452380D01*
X34941428Y-120452380D01*
X35941428Y-121357142D02*
X35893809Y-121404761D01*
X35750952Y-121452380D01*
X35655714Y-121452380D01*
X35512857Y-121404761D01*
X35417619Y-121309523D01*
X35370000Y-121214285D01*
X35322380Y-121023809D01*
X35322380Y-120880952D01*
X35370000Y-120690476D01*
X35417619Y-120595238D01*
X35512857Y-120500000D01*
X35655714Y-120452380D01*
X35750952Y-120452380D01*
X35893809Y-120500000D01*
X35941428Y-120547619D01*
X36893809Y-121452380D02*
X36322380Y-121452380D01*
X36608095Y-121452380D02*
X36608095Y-120452380D01*
X36512857Y-120595238D01*
X36417619Y-120690476D01*
X36322380Y-120738095D01*
%TO.C,F_MAIN1*%
X31633809Y-108228571D02*
X31300476Y-108228571D01*
X31300476Y-108752380D02*
X31300476Y-107752380D01*
X31776666Y-107752380D01*
X31919523Y-108847619D02*
X32681428Y-108847619D01*
X32919523Y-108752380D02*
X32919523Y-107752380D01*
X33252857Y-108466666D01*
X33586190Y-107752380D01*
X33586190Y-108752380D01*
X34014761Y-108466666D02*
X34490952Y-108466666D01*
X33919523Y-108752380D02*
X34252857Y-107752380D01*
X34586190Y-108752380D01*
X34919523Y-108752380D02*
X34919523Y-107752380D01*
X35395714Y-108752380D02*
X35395714Y-107752380D01*
X35967142Y-108752380D01*
X35967142Y-107752380D01*
X36967142Y-108752380D02*
X36395714Y-108752380D01*
X36681428Y-108752380D02*
X36681428Y-107752380D01*
X36586190Y-107895238D01*
X36490952Y-107990476D01*
X36395714Y-108038095D01*
%TO.C,F_CHARGE1*%
X30750952Y-146328571D02*
X30417619Y-146328571D01*
X30417619Y-146852380D02*
X30417619Y-145852380D01*
X30893809Y-145852380D01*
X31036666Y-146947619D02*
X31798571Y-146947619D01*
X32608095Y-146757142D02*
X32560476Y-146804761D01*
X32417619Y-146852380D01*
X32322380Y-146852380D01*
X32179523Y-146804761D01*
X32084285Y-146709523D01*
X32036666Y-146614285D01*
X31989047Y-146423809D01*
X31989047Y-146280952D01*
X32036666Y-146090476D01*
X32084285Y-145995238D01*
X32179523Y-145900000D01*
X32322380Y-145852380D01*
X32417619Y-145852380D01*
X32560476Y-145900000D01*
X32608095Y-145947619D01*
X33036666Y-146852380D02*
X33036666Y-145852380D01*
X33036666Y-146328571D02*
X33608095Y-146328571D01*
X33608095Y-146852380D02*
X33608095Y-145852380D01*
X34036666Y-146566666D02*
X34512857Y-146566666D01*
X33941428Y-146852380D02*
X34274761Y-145852380D01*
X34608095Y-146852380D01*
X35512857Y-146852380D02*
X35179523Y-146376190D01*
X34941428Y-146852380D02*
X34941428Y-145852380D01*
X35322380Y-145852380D01*
X35417619Y-145900000D01*
X35465238Y-145947619D01*
X35512857Y-146042857D01*
X35512857Y-146185714D01*
X35465238Y-146280952D01*
X35417619Y-146328571D01*
X35322380Y-146376190D01*
X34941428Y-146376190D01*
X36465238Y-145900000D02*
X36370000Y-145852380D01*
X36227142Y-145852380D01*
X36084285Y-145900000D01*
X35989047Y-145995238D01*
X35941428Y-146090476D01*
X35893809Y-146280952D01*
X35893809Y-146423809D01*
X35941428Y-146614285D01*
X35989047Y-146709523D01*
X36084285Y-146804761D01*
X36227142Y-146852380D01*
X36322380Y-146852380D01*
X36465238Y-146804761D01*
X36512857Y-146757142D01*
X36512857Y-146423809D01*
X36322380Y-146423809D01*
X36941428Y-146328571D02*
X37274761Y-146328571D01*
X37417619Y-146852380D02*
X36941428Y-146852380D01*
X36941428Y-145852380D01*
X37417619Y-145852380D01*
X38370000Y-146852380D02*
X37798571Y-146852380D01*
X38084285Y-146852380D02*
X38084285Y-145852380D01*
X37989047Y-145995238D01*
X37893809Y-146090476D01*
X37798571Y-146138095D01*
%TO.C,D1*%
X99181904Y-167532380D02*
X99181904Y-166532380D01*
X99420000Y-166532380D01*
X99562857Y-166580000D01*
X99658095Y-166675238D01*
X99705714Y-166770476D01*
X99753333Y-166960952D01*
X99753333Y-167103809D01*
X99705714Y-167294285D01*
X99658095Y-167389523D01*
X99562857Y-167484761D01*
X99420000Y-167532380D01*
X99181904Y-167532380D01*
X100705714Y-167532380D02*
X100134285Y-167532380D01*
X100420000Y-167532380D02*
X100420000Y-166532380D01*
X100324761Y-166675238D01*
X100229523Y-166770476D01*
X100134285Y-166818095D01*
%TO.C,C10*%
X122707142Y-161237142D02*
X122659523Y-161284761D01*
X122516666Y-161332380D01*
X122421428Y-161332380D01*
X122278571Y-161284761D01*
X122183333Y-161189523D01*
X122135714Y-161094285D01*
X122088095Y-160903809D01*
X122088095Y-160760952D01*
X122135714Y-160570476D01*
X122183333Y-160475238D01*
X122278571Y-160380000D01*
X122421428Y-160332380D01*
X122516666Y-160332380D01*
X122659523Y-160380000D01*
X122707142Y-160427619D01*
X123659523Y-161332380D02*
X123088095Y-161332380D01*
X123373809Y-161332380D02*
X123373809Y-160332380D01*
X123278571Y-160475238D01*
X123183333Y-160570476D01*
X123088095Y-160618095D01*
X124278571Y-160332380D02*
X124373809Y-160332380D01*
X124469047Y-160380000D01*
X124516666Y-160427619D01*
X124564285Y-160522857D01*
X124611904Y-160713333D01*
X124611904Y-160951428D01*
X124564285Y-161141904D01*
X124516666Y-161237142D01*
X124469047Y-161284761D01*
X124373809Y-161332380D01*
X124278571Y-161332380D01*
X124183333Y-161284761D01*
X124135714Y-161237142D01*
X124088095Y-161141904D01*
X124040476Y-160951428D01*
X124040476Y-160713333D01*
X124088095Y-160522857D01*
X124135714Y-160427619D01*
X124183333Y-160380000D01*
X124278571Y-160332380D01*
%TO.C,C9*%
X143303333Y-141287142D02*
X143255714Y-141334761D01*
X143112857Y-141382380D01*
X143017619Y-141382380D01*
X142874761Y-141334761D01*
X142779523Y-141239523D01*
X142731904Y-141144285D01*
X142684285Y-140953809D01*
X142684285Y-140810952D01*
X142731904Y-140620476D01*
X142779523Y-140525238D01*
X142874761Y-140430000D01*
X143017619Y-140382380D01*
X143112857Y-140382380D01*
X143255714Y-140430000D01*
X143303333Y-140477619D01*
X143779523Y-141382380D02*
X143970000Y-141382380D01*
X144065238Y-141334761D01*
X144112857Y-141287142D01*
X144208095Y-141144285D01*
X144255714Y-140953809D01*
X144255714Y-140572857D01*
X144208095Y-140477619D01*
X144160476Y-140430000D01*
X144065238Y-140382380D01*
X143874761Y-140382380D01*
X143779523Y-140430000D01*
X143731904Y-140477619D01*
X143684285Y-140572857D01*
X143684285Y-140810952D01*
X143731904Y-140906190D01*
X143779523Y-140953809D01*
X143874761Y-141001428D01*
X144065238Y-141001428D01*
X144160476Y-140953809D01*
X144208095Y-140906190D01*
X144255714Y-140810952D01*
%TO.C,C8*%
X146953333Y-135037142D02*
X146905714Y-135084761D01*
X146762857Y-135132380D01*
X146667619Y-135132380D01*
X146524761Y-135084761D01*
X146429523Y-134989523D01*
X146381904Y-134894285D01*
X146334285Y-134703809D01*
X146334285Y-134560952D01*
X146381904Y-134370476D01*
X146429523Y-134275238D01*
X146524761Y-134180000D01*
X146667619Y-134132380D01*
X146762857Y-134132380D01*
X146905714Y-134180000D01*
X146953333Y-134227619D01*
X147524761Y-134560952D02*
X147429523Y-134513333D01*
X147381904Y-134465714D01*
X147334285Y-134370476D01*
X147334285Y-134322857D01*
X147381904Y-134227619D01*
X147429523Y-134180000D01*
X147524761Y-134132380D01*
X147715238Y-134132380D01*
X147810476Y-134180000D01*
X147858095Y-134227619D01*
X147905714Y-134322857D01*
X147905714Y-134370476D01*
X147858095Y-134465714D01*
X147810476Y-134513333D01*
X147715238Y-134560952D01*
X147524761Y-134560952D01*
X147429523Y-134608571D01*
X147381904Y-134656190D01*
X147334285Y-134751428D01*
X147334285Y-134941904D01*
X147381904Y-135037142D01*
X147429523Y-135084761D01*
X147524761Y-135132380D01*
X147715238Y-135132380D01*
X147810476Y-135084761D01*
X147858095Y-135037142D01*
X147905714Y-134941904D01*
X147905714Y-134751428D01*
X147858095Y-134656190D01*
X147810476Y-134608571D01*
X147715238Y-134560952D01*
%TO.C,C7*%
X133628333Y-123037142D02*
X133580714Y-123084761D01*
X133437857Y-123132380D01*
X133342619Y-123132380D01*
X133199761Y-123084761D01*
X133104523Y-122989523D01*
X133056904Y-122894285D01*
X133009285Y-122703809D01*
X133009285Y-122560952D01*
X133056904Y-122370476D01*
X133104523Y-122275238D01*
X133199761Y-122180000D01*
X133342619Y-122132380D01*
X133437857Y-122132380D01*
X133580714Y-122180000D01*
X133628333Y-122227619D01*
X133961666Y-122132380D02*
X134628333Y-122132380D01*
X134199761Y-123132380D01*
%TO.C,C6*%
X153403333Y-129087142D02*
X153355714Y-129134761D01*
X153212857Y-129182380D01*
X153117619Y-129182380D01*
X152974761Y-129134761D01*
X152879523Y-129039523D01*
X152831904Y-128944285D01*
X152784285Y-128753809D01*
X152784285Y-128610952D01*
X152831904Y-128420476D01*
X152879523Y-128325238D01*
X152974761Y-128230000D01*
X153117619Y-128182380D01*
X153212857Y-128182380D01*
X153355714Y-128230000D01*
X153403333Y-128277619D01*
X154260476Y-128182380D02*
X154070000Y-128182380D01*
X153974761Y-128230000D01*
X153927142Y-128277619D01*
X153831904Y-128420476D01*
X153784285Y-128610952D01*
X153784285Y-128991904D01*
X153831904Y-129087142D01*
X153879523Y-129134761D01*
X153974761Y-129182380D01*
X154165238Y-129182380D01*
X154260476Y-129134761D01*
X154308095Y-129087142D01*
X154355714Y-128991904D01*
X154355714Y-128753809D01*
X154308095Y-128658571D01*
X154260476Y-128610952D01*
X154165238Y-128563333D01*
X153974761Y-128563333D01*
X153879523Y-128610952D01*
X153831904Y-128658571D01*
X153784285Y-128753809D01*
%TO.C,C5*%
X111378333Y-141187142D02*
X111330714Y-141234761D01*
X111187857Y-141282380D01*
X111092619Y-141282380D01*
X110949761Y-141234761D01*
X110854523Y-141139523D01*
X110806904Y-141044285D01*
X110759285Y-140853809D01*
X110759285Y-140710952D01*
X110806904Y-140520476D01*
X110854523Y-140425238D01*
X110949761Y-140330000D01*
X111092619Y-140282380D01*
X111187857Y-140282380D01*
X111330714Y-140330000D01*
X111378333Y-140377619D01*
X112283095Y-140282380D02*
X111806904Y-140282380D01*
X111759285Y-140758571D01*
X111806904Y-140710952D01*
X111902142Y-140663333D01*
X112140238Y-140663333D01*
X112235476Y-140710952D01*
X112283095Y-140758571D01*
X112330714Y-140853809D01*
X112330714Y-141091904D01*
X112283095Y-141187142D01*
X112235476Y-141234761D01*
X112140238Y-141282380D01*
X111902142Y-141282380D01*
X111806904Y-141234761D01*
X111759285Y-141187142D01*
%TO.C,C4*%
X89248333Y-139687142D02*
X89200714Y-139734761D01*
X89057857Y-139782380D01*
X88962619Y-139782380D01*
X88819761Y-139734761D01*
X88724523Y-139639523D01*
X88676904Y-139544285D01*
X88629285Y-139353809D01*
X88629285Y-139210952D01*
X88676904Y-139020476D01*
X88724523Y-138925238D01*
X88819761Y-138830000D01*
X88962619Y-138782380D01*
X89057857Y-138782380D01*
X89200714Y-138830000D01*
X89248333Y-138877619D01*
X90105476Y-139115714D02*
X90105476Y-139782380D01*
X89867380Y-138734761D02*
X89629285Y-139449047D01*
X90248333Y-139449047D01*
%TO.C,C3*%
X116733333Y-165387142D02*
X116685714Y-165434761D01*
X116542857Y-165482380D01*
X116447619Y-165482380D01*
X116304761Y-165434761D01*
X116209523Y-165339523D01*
X116161904Y-165244285D01*
X116114285Y-165053809D01*
X116114285Y-164910952D01*
X116161904Y-164720476D01*
X116209523Y-164625238D01*
X116304761Y-164530000D01*
X116447619Y-164482380D01*
X116542857Y-164482380D01*
X116685714Y-164530000D01*
X116733333Y-164577619D01*
X117066666Y-164482380D02*
X117685714Y-164482380D01*
X117352380Y-164863333D01*
X117495238Y-164863333D01*
X117590476Y-164910952D01*
X117638095Y-164958571D01*
X117685714Y-165053809D01*
X117685714Y-165291904D01*
X117638095Y-165387142D01*
X117590476Y-165434761D01*
X117495238Y-165482380D01*
X117209523Y-165482380D01*
X117114285Y-165434761D01*
X117066666Y-165387142D01*
%TO.C,C2*%
X111498333Y-123037142D02*
X111450714Y-123084761D01*
X111307857Y-123132380D01*
X111212619Y-123132380D01*
X111069761Y-123084761D01*
X110974523Y-122989523D01*
X110926904Y-122894285D01*
X110879285Y-122703809D01*
X110879285Y-122560952D01*
X110926904Y-122370476D01*
X110974523Y-122275238D01*
X111069761Y-122180000D01*
X111212619Y-122132380D01*
X111307857Y-122132380D01*
X111450714Y-122180000D01*
X111498333Y-122227619D01*
X111879285Y-122227619D02*
X111926904Y-122180000D01*
X112022142Y-122132380D01*
X112260238Y-122132380D01*
X112355476Y-122180000D01*
X112403095Y-122227619D01*
X112450714Y-122322857D01*
X112450714Y-122418095D01*
X112403095Y-122560952D01*
X111831666Y-123132380D01*
X112450714Y-123132380D01*
%TO.C,C1*%
X159853333Y-123137142D02*
X159805714Y-123184761D01*
X159662857Y-123232380D01*
X159567619Y-123232380D01*
X159424761Y-123184761D01*
X159329523Y-123089523D01*
X159281904Y-122994285D01*
X159234285Y-122803809D01*
X159234285Y-122660952D01*
X159281904Y-122470476D01*
X159329523Y-122375238D01*
X159424761Y-122280000D01*
X159567619Y-122232380D01*
X159662857Y-122232380D01*
X159805714Y-122280000D01*
X159853333Y-122327619D01*
X160805714Y-123232380D02*
X160234285Y-123232380D01*
X160520000Y-123232380D02*
X160520000Y-122232380D01*
X160424761Y-122375238D01*
X160329523Y-122470476D01*
X160234285Y-122518095D01*
D11*
%TO.C,U2*%
X35560000Y-160020000D02*
X35560000Y-195580000D01*
X35560000Y-195580000D02*
X16510000Y-195580000D01*
X16510000Y-195580000D02*
X16510000Y-160020000D01*
X16510000Y-160020000D02*
X35560000Y-160020000D01*
%TO.C,U1*%
X35560000Y-64770000D02*
X35560000Y-106680000D01*
X35560000Y-106680000D02*
X16510000Y-106680000D01*
X16510000Y-106680000D02*
X16510000Y-64770000D01*
X16510000Y-64770000D02*
X35560000Y-64770000D01*
D12*
%TO.C,JP3*%
X164400000Y-128540000D02*
X165800000Y-128540000D01*
X165800000Y-130540000D02*
X164400000Y-130540000D01*
X166500000Y-129240000D02*
X166500000Y-129840000D01*
X163700000Y-129840000D02*
X163700000Y-129240000D01*
X166500000Y-129240000D02*
G75*
G03*
X165800000Y-128540000I-700000J0D01*
G01*
X164400000Y-128540000D02*
G75*
G03*
X163700000Y-129240000I-1J-699999D01*
G01*
X163700000Y-129840000D02*
G75*
G03*
X164400000Y-130540000I699999J-1D01*
G01*
X165800000Y-130540000D02*
G75*
G03*
X166500000Y-129840000I0J700000D01*
G01*
%TO.C,U4*%
X127570000Y-141680000D02*
X126070000Y-141680000D01*
X126070000Y-141950000D02*
X123240000Y-141950000D01*
X126070000Y-148310000D02*
X124970000Y-148310000D01*
X127570000Y-148580000D02*
X126070000Y-148580000D01*
X126070000Y-141680000D02*
X126070000Y-141950000D01*
X126070000Y-148580000D02*
X126070000Y-148310000D01*
%TO.C,U3*%
X85600000Y-169130000D02*
X84100000Y-169130000D01*
X84100000Y-169130000D02*
X84100000Y-168180000D01*
X84100000Y-158730000D02*
X84100000Y-159680000D01*
X84100000Y-159680000D02*
X78975000Y-159680000D01*
X85600000Y-158730000D02*
X84100000Y-158730000D01*
X84100000Y-168180000D02*
X83000000Y-168180000D01*
%TO.C,R10*%
X143212936Y-144855000D02*
X143667064Y-144855000D01*
X143212936Y-146325000D02*
X143667064Y-146325000D01*
%TO.C,R9*%
X159762936Y-126705000D02*
X160217064Y-126705000D01*
X159762936Y-128175000D02*
X160217064Y-128175000D01*
%TO.C,R8*%
X151672936Y-135605000D02*
X152127064Y-135605000D01*
X151672936Y-137075000D02*
X152127064Y-137075000D01*
%TO.C,R7*%
X123092936Y-164805000D02*
X123547064Y-164805000D01*
X123092936Y-166275000D02*
X123547064Y-166275000D01*
%TO.C,R6*%
X131062936Y-154345000D02*
X131517064Y-154345000D01*
X131062936Y-155815000D02*
X131517064Y-155815000D01*
%TO.C,R5*%
X135952936Y-152245000D02*
X136407064Y-152245000D01*
X135952936Y-153715000D02*
X136407064Y-153715000D01*
%TO.C,R4*%
X131062936Y-157295000D02*
X131517064Y-157295000D01*
X131062936Y-158765000D02*
X131517064Y-158765000D01*
%TO.C,R3*%
X153312936Y-132655000D02*
X153767064Y-132655000D01*
X153312936Y-134125000D02*
X153767064Y-134125000D01*
%TO.C,R2*%
X118152936Y-187225000D02*
X118607064Y-187225000D01*
X118152936Y-188695000D02*
X118607064Y-188695000D01*
%TO.C,R1*%
X146862936Y-138605000D02*
X147317064Y-138605000D01*
X146862936Y-140075000D02*
X147317064Y-140075000D01*
%TO.C,Q3*%
X131360000Y-149820000D02*
X132010000Y-149820000D01*
X131360000Y-152940000D02*
X132010000Y-152940000D01*
X131360000Y-149820000D02*
X129685000Y-149820000D01*
X131360000Y-152940000D02*
X130710000Y-152940000D01*
%TO.C,Q2*%
X101000000Y-159830000D02*
X99500000Y-159830000D01*
X99500000Y-160100000D02*
X96670000Y-160100000D01*
X99500000Y-166460000D02*
X98400000Y-166460000D01*
X101000000Y-166730000D02*
X99500000Y-166730000D01*
X99500000Y-159830000D02*
X99500000Y-160100000D01*
X99500000Y-166730000D02*
X99500000Y-166460000D01*
%TO.C,Q1*%
X137060000Y-147720000D02*
X137710000Y-147720000D01*
X137060000Y-150840000D02*
X137710000Y-150840000D01*
X137060000Y-147720000D02*
X135385000Y-147720000D01*
X137060000Y-150840000D02*
X136410000Y-150840000D01*
%TO.C,L1*%
X98630000Y-128680000D02*
X98630000Y-129180000D01*
X98630000Y-133880000D02*
X98630000Y-133380000D01*
X80030000Y-128680000D02*
X84930000Y-125080000D01*
X80030000Y-133880000D02*
X80030000Y-133380000D01*
X93430000Y-137680000D02*
X98630000Y-133880000D01*
X93930000Y-125180000D02*
X98630000Y-128680000D01*
X84330000Y-136980000D02*
X80030000Y-133880000D01*
X80030000Y-128680000D02*
X80030000Y-129180000D01*
X84308497Y-136989379D02*
G75*
G03*
X94580000Y-136780000I5021503J5709379D01*
G01*
X94351503Y-125570621D02*
G75*
G03*
X84080000Y-125780000I-5021503J-5709379D01*
G01*
%TO.C,JP2*%
X163900000Y-123730000D02*
X165300000Y-123730000D01*
X165300000Y-125730000D02*
X163900000Y-125730000D01*
X166000000Y-124430000D02*
X166000000Y-125030000D01*
X163200000Y-125030000D02*
X163200000Y-124430000D01*
X166000000Y-124430000D02*
G75*
G03*
X165300000Y-123730000I-700000J0D01*
G01*
X163900000Y-123730000D02*
G75*
G03*
X163200000Y-124430000I-1J-699999D01*
G01*
X163200000Y-125030000D02*
G75*
G03*
X163900000Y-125730000I699999J-1D01*
G01*
X165300000Y-125730000D02*
G75*
G03*
X166000000Y-125030000I0J700000D01*
G01*
%TO.C,JP1*%
X157450000Y-129690000D02*
X158850000Y-129690000D01*
X158850000Y-131690000D02*
X157450000Y-131690000D01*
X159550000Y-130390000D02*
X159550000Y-130990000D01*
X156750000Y-130990000D02*
X156750000Y-130390000D01*
X159550000Y-130390000D02*
G75*
G03*
X158850000Y-129690000I-700000J0D01*
G01*
X157450000Y-129690000D02*
G75*
G03*
X156750000Y-130390000I-1J-699999D01*
G01*
X156750000Y-130990000D02*
G75*
G03*
X157450000Y-131690000I699999J-1D01*
G01*
X158850000Y-131690000D02*
G75*
G03*
X159550000Y-130990000I0J700000D01*
G01*
%TO.C,F_SEC1*%
X23120000Y-131800000D02*
X45720000Y-131800000D01*
X23120000Y-131800000D02*
X23120000Y-129000000D01*
X45720000Y-125000000D02*
X45720000Y-122200000D01*
X23120000Y-125000000D02*
X23120000Y-122200000D01*
X45720000Y-131800000D02*
X45720000Y-129000000D01*
X23120000Y-122200000D02*
X45720000Y-122200000D01*
%TO.C,F_MAIN1*%
X22860000Y-119100000D02*
X45460000Y-119100000D01*
X22860000Y-119100000D02*
X22860000Y-116300000D01*
X45460000Y-112300000D02*
X45460000Y-109500000D01*
X22860000Y-112300000D02*
X22860000Y-109500000D01*
X45460000Y-119100000D02*
X45460000Y-116300000D01*
X22860000Y-109500000D02*
X45460000Y-109500000D01*
%TO.C,F_CHARGE1*%
X23120000Y-157200000D02*
X45720000Y-157200000D01*
X23120000Y-157200000D02*
X23120000Y-154400000D01*
X45720000Y-150400000D02*
X45720000Y-147600000D01*
X23120000Y-150400000D02*
X23120000Y-147600000D01*
X45720000Y-157200000D02*
X45720000Y-154400000D01*
X23120000Y-147600000D02*
X45720000Y-147600000D01*
%TO.C,D1*%
X96520000Y-167930000D02*
X101920000Y-167930000D01*
X96520000Y-171230000D02*
X101920000Y-171230000D01*
X96520000Y-167930000D02*
X96520000Y-171230000D01*
%TO.C,C10*%
X123088748Y-161825000D02*
X123611252Y-161825000D01*
X123088748Y-163295000D02*
X123611252Y-163295000D01*
%TO.C,C9*%
X143208748Y-141875000D02*
X143731252Y-141875000D01*
X143208748Y-143345000D02*
X143731252Y-143345000D01*
%TO.C,C8*%
X146858748Y-135625000D02*
X147381252Y-135625000D01*
X146858748Y-137095000D02*
X147381252Y-137095000D01*
%TO.C,C7*%
X124145000Y-123970000D02*
X124145000Y-125970000D01*
X142205000Y-140440000D02*
X142205000Y-137090000D01*
X126449437Y-123620000D02*
X142205000Y-123620000D01*
X123145000Y-124970000D02*
X125145000Y-124970000D01*
X125385000Y-124684437D02*
X126449437Y-123620000D01*
X125385000Y-139375563D02*
X125385000Y-137090000D01*
X142205000Y-123620000D02*
X142205000Y-126970000D01*
X125385000Y-124684437D02*
X125385000Y-126970000D01*
X125385000Y-139375563D02*
X126449437Y-140440000D01*
X126449437Y-140440000D02*
X142205000Y-140440000D01*
%TO.C,C6*%
X153308748Y-129675000D02*
X153831252Y-129675000D01*
X153308748Y-131145000D02*
X153831252Y-131145000D01*
%TO.C,C5*%
X101895000Y-142120000D02*
X101895000Y-144120000D01*
X119955000Y-158590000D02*
X119955000Y-155240000D01*
X104199437Y-141770000D02*
X119955000Y-141770000D01*
X100895000Y-143120000D02*
X102895000Y-143120000D01*
X103135000Y-142834437D02*
X104199437Y-141770000D01*
X103135000Y-157525563D02*
X103135000Y-155240000D01*
X119955000Y-141770000D02*
X119955000Y-145120000D01*
X103135000Y-142834437D02*
X103135000Y-145120000D01*
X103135000Y-157525563D02*
X104199437Y-158590000D01*
X104199437Y-158590000D02*
X119955000Y-158590000D01*
%TO.C,C4*%
X79765000Y-140620000D02*
X79765000Y-142620000D01*
X97825000Y-157090000D02*
X97825000Y-153740000D01*
X82069437Y-140270000D02*
X97825000Y-140270000D01*
X78765000Y-141620000D02*
X80765000Y-141620000D01*
X81005000Y-141334437D02*
X82069437Y-140270000D01*
X81005000Y-156025563D02*
X81005000Y-153740000D01*
X97825000Y-140270000D02*
X97825000Y-143620000D01*
X81005000Y-141334437D02*
X81005000Y-143620000D01*
X81005000Y-156025563D02*
X82069437Y-157090000D01*
X82069437Y-157090000D02*
X97825000Y-157090000D01*
%TO.C,C3*%
X116638748Y-165975000D02*
X117161252Y-165975000D01*
X116638748Y-167445000D02*
X117161252Y-167445000D01*
%TO.C,C2*%
X102015000Y-123970000D02*
X102015000Y-125970000D01*
X120075000Y-140440000D02*
X120075000Y-137090000D01*
X104319437Y-123620000D02*
X120075000Y-123620000D01*
X101015000Y-124970000D02*
X103015000Y-124970000D01*
X103255000Y-124684437D02*
X104319437Y-123620000D01*
X103255000Y-139375563D02*
X103255000Y-137090000D01*
X120075000Y-123620000D02*
X120075000Y-126970000D01*
X103255000Y-124684437D02*
X103255000Y-126970000D01*
X103255000Y-139375563D02*
X104319437Y-140440000D01*
X104319437Y-140440000D02*
X120075000Y-140440000D01*
%TO.C,C1*%
X159758748Y-123725000D02*
X160281252Y-123725000D01*
X159758748Y-125195000D02*
X160281252Y-125195000D01*
%TD*%
M02*
